<?xml version="1.0" encoding="utf-8" standalone="no"?>
<!DOCTYPE svg PUBLIC "-//W3C//DTD SVG 1.1//EN"
  "http://www.w3.org/Graphics/SVG/1.1/DTD/svg11.dtd">
<svg xmlns:xlink="http://www.w3.org/1999/xlink" width="681.618281pt" height="263.888701pt" viewBox="0 0 681.618281 263.888701" xmlns="http://www.w3.org/2000/svg" version="1.1">
 <metadata>
  <rdf:RDF xmlns:dc="http://purl.org/dc/elements/1.1/" xmlns:cc="http://creativecommons.org/ns#" xmlns:rdf="http://www.w3.org/1999/02/22-rdf-syntax-ns#">
   <cc:Work>
    <dc:type rdf:resource="http://purl.org/dc/dcmitype/StillImage"/>
    <dc:date>2026-07-13T12:51:06.498011</dc:date>
    <dc:format>image/svg+xml</dc:format>
    <dc:creator>
     <cc:Agent>
      <dc:title>Matplotlib v3.11.0, https://matplotlib.org/</dc:title>
     </cc:Agent>
    </dc:creator>
   </cc:Work>
  </rdf:RDF>
 </metadata>
 <defs>
  <style type="text/css">*{stroke-linejoin: round; stroke-linecap: butt}</style>
 </defs>
 <g id="figure_1">
  <g id="patch_1">
   <path d="M 0 263.888701 
L 681.618281 263.888701 
L 681.618281 0 
L 0 0 
z
" style="fill: #ffffff"/>
  </g>
  <g id="axes_1">
   <g id="patch_2">
    <path d="M 44.898281 206.942657 
L 325.488281 206.942657 
L 325.488281 22.698047 
L 44.898281 22.698047 
z
" style="fill: #ffffff"/>
   </g>
   <g id="matplotlib.axis_1">
    <g id="xtick_1">
     <g id="line2d_1">
      <path d="M 70.406463 206.942657 
L 70.406463 22.698047 
" clip-path="url(#p3b66dfddc1)" style="fill: none; stroke: #e1e0d9; stroke-width: 0.8; stroke-linecap: square"/>
     </g>
     <g id="line2d_2">
      <defs>
       <path id="ma6fc547883" d="M 0 0 
L 0 3 
" style="stroke: #898781; stroke-width: 0.8"/>
      </defs>
      <g>
       <use xlink:href="#ma6fc547883" x="70.406463" y="206.942657" style="fill: #898781; stroke: #898781; stroke-width: 0.8"/>
      </g>
     </g>
     <g id="text_1">
      <!-- 100 -->
      <g style="fill: #898781" transform="translate(60.385526 221.420196) scale(0.105 -0.105)">
       <defs>
        <path id="DejaVuSans-14" d="M 794 531 
L 1825 531 
L 1825 4091 
L 703 3866 
L 703 4441 
L 1819 4666 
L 2450 4666 
L 2450 531 
L 3481 531 
L 3481 0 
L 794 0 
L 794 531 
z
" transform="scale(0.015625)"/>
        <path id="DejaVuSans-13" d="M 2034 4250 
Q 1547 4250 1301 3770 
Q 1056 3291 1056 2328 
Q 1056 1369 1301 889 
Q 1547 409 2034 409 
Q 2525 409 2770 889 
Q 3016 1369 3016 2328 
Q 3016 3291 2770 3770 
Q 2525 4250 2034 4250 
z
M 2034 4750 
Q 2819 4750 3233 4129 
Q 3647 3509 3647 2328 
Q 3647 1150 3233 529 
Q 2819 -91 2034 -91 
Q 1250 -91 836 529 
Q 422 1150 422 2328 
Q 422 3509 836 4129 
Q 1250 4750 2034 4750 
z
" transform="scale(0.015625)"/>
       </defs>
       <use xlink:href="#DejaVuSans-14"/>
       <use xlink:href="#DejaVuSans-13" transform="translate(63.625 0)"/>
       <use xlink:href="#DejaVuSans-13" transform="translate(127.25 0)"/>
      </g>
     </g>
    </g>
    <g id="xtick_2">
     <g id="line2d_3">
      <path d="M 121.422827 206.942657 
L 121.422827 22.698047 
" clip-path="url(#p3b66dfddc1)" style="fill: none; stroke: #e1e0d9; stroke-width: 0.8; stroke-linecap: square"/>
     </g>
     <g id="line2d_4">
      <g>
       <use xlink:href="#ma6fc547883" x="121.422827" y="206.942657" style="fill: #898781; stroke: #898781; stroke-width: 0.8"/>
      </g>
     </g>
     <g id="text_2">
      <!-- 150 -->
      <g style="fill: #898781" transform="translate(111.401889 221.420196) scale(0.105 -0.105)">
       <defs>
        <path id="DejaVuSans-18" d="M 691 4666 
L 3169 4666 
L 3169 4134 
L 1269 4134 
L 1269 2991 
Q 1406 3038 1543 3061 
Q 1681 3084 1819 3084 
Q 2600 3084 3056 2656 
Q 3513 2228 3513 1497 
Q 3513 744 3044 326 
Q 2575 -91 1722 -91 
Q 1428 -91 1123 -41 
Q 819 9 494 109 
L 494 744 
Q 775 591 1075 516 
Q 1375 441 1709 441 
Q 2250 441 2565 725 
Q 2881 1009 2881 1497 
Q 2881 1984 2565 2268 
Q 2250 2553 1709 2553 
Q 1456 2553 1204 2497 
Q 953 2441 691 2322 
L 691 4666 
z
" transform="scale(0.015625)"/>
       </defs>
       <use xlink:href="#DejaVuSans-14"/>
       <use xlink:href="#DejaVuSans-18" transform="translate(63.625 0)"/>
       <use xlink:href="#DejaVuSans-13" transform="translate(127.25 0)"/>
      </g>
     </g>
    </g>
    <g id="xtick_3">
     <g id="line2d_5">
      <path d="M 172.43919 206.942657 
L 172.43919 22.698047 
" clip-path="url(#p3b66dfddc1)" style="fill: none; stroke: #e1e0d9; stroke-width: 0.8; stroke-linecap: square"/>
     </g>
     <g id="line2d_6">
      <g>
       <use xlink:href="#ma6fc547883" x="172.43919" y="206.942657" style="fill: #898781; stroke: #898781; stroke-width: 0.8"/>
      </g>
     </g>
     <g id="text_3">
      <!-- 200 -->
      <g style="fill: #898781" transform="translate(162.418253 221.420196) scale(0.105 -0.105)">
       <defs>
        <path id="DejaVuSans-15" d="M 1228 531 
L 3431 531 
L 3431 0 
L 469 0 
L 469 531 
Q 828 903 1448 1529 
Q 2069 2156 2228 2338 
Q 2531 2678 2651 2914 
Q 2772 3150 2772 3378 
Q 2772 3750 2511 3984 
Q 2250 4219 1831 4219 
Q 1534 4219 1204 4116 
Q 875 4013 500 3803 
L 500 4441 
Q 881 4594 1212 4672 
Q 1544 4750 1819 4750 
Q 2544 4750 2975 4387 
Q 3406 4025 3406 3419 
Q 3406 3131 3298 2873 
Q 3191 2616 2906 2266 
Q 2828 2175 2409 1742 
Q 1991 1309 1228 531 
z
" transform="scale(0.015625)"/>
       </defs>
       <use xlink:href="#DejaVuSans-15"/>
       <use xlink:href="#DejaVuSans-13" transform="translate(63.625 0)"/>
       <use xlink:href="#DejaVuSans-13" transform="translate(127.25 0)"/>
      </g>
     </g>
    </g>
    <g id="xtick_4">
     <g id="line2d_7">
      <path d="M 223.455554 206.942657 
L 223.455554 22.698047 
" clip-path="url(#p3b66dfddc1)" style="fill: none; stroke: #e1e0d9; stroke-width: 0.8; stroke-linecap: square"/>
     </g>
     <g id="line2d_8">
      <g>
       <use xlink:href="#ma6fc547883" x="223.455554" y="206.942657" style="fill: #898781; stroke: #898781; stroke-width: 0.8"/>
      </g>
     </g>
     <g id="text_4">
      <!-- 250 -->
      <g style="fill: #898781" transform="translate(213.434616 221.420196) scale(0.105 -0.105)">
       <use xlink:href="#DejaVuSans-15"/>
       <use xlink:href="#DejaVuSans-18" transform="translate(63.625 0)"/>
       <use xlink:href="#DejaVuSans-13" transform="translate(127.25 0)"/>
      </g>
     </g>
    </g>
    <g id="xtick_5">
     <g id="line2d_9">
      <path d="M 274.471918 206.942657 
L 274.471918 22.698047 
" clip-path="url(#p3b66dfddc1)" style="fill: none; stroke: #e1e0d9; stroke-width: 0.8; stroke-linecap: square"/>
     </g>
     <g id="line2d_10">
      <g>
       <use xlink:href="#ma6fc547883" x="274.471918" y="206.942657" style="fill: #898781; stroke: #898781; stroke-width: 0.8"/>
      </g>
     </g>
     <g id="text_5">
      <!-- 300 -->
      <g style="fill: #898781" transform="translate(264.45098 221.420196) scale(0.105 -0.105)">
       <defs>
        <path id="DejaVuSans-16" d="M 2597 2516 
Q 3050 2419 3304 2112 
Q 3559 1806 3559 1356 
Q 3559 666 3084 287 
Q 2609 -91 1734 -91 
Q 1441 -91 1130 -33 
Q 819 25 488 141 
L 488 750 
Q 750 597 1062 519 
Q 1375 441 1716 441 
Q 2309 441 2620 675 
Q 2931 909 2931 1356 
Q 2931 1769 2642 2001 
Q 2353 2234 1838 2234 
L 1294 2234 
L 1294 2753 
L 1863 2753 
Q 2328 2753 2575 2939 
Q 2822 3125 2822 3475 
Q 2822 3834 2567 4026 
Q 2313 4219 1838 4219 
Q 1578 4219 1281 4162 
Q 984 4106 628 3988 
L 628 4550 
Q 988 4650 1302 4700 
Q 1616 4750 1894 4750 
Q 2613 4750 3031 4423 
Q 3450 4097 3450 3541 
Q 3450 3153 3228 2886 
Q 3006 2619 2597 2516 
z
" transform="scale(0.015625)"/>
       </defs>
       <use xlink:href="#DejaVuSans-16"/>
       <use xlink:href="#DejaVuSans-13" transform="translate(63.625 0)"/>
       <use xlink:href="#DejaVuSans-13" transform="translate(127.25 0)"/>
      </g>
     </g>
    </g>
    <g id="xtick_6">
     <g id="line2d_11">
      <path d="M 325.488281 206.942657 
L 325.488281 22.698047 
" clip-path="url(#p3b66dfddc1)" style="fill: none; stroke: #e1e0d9; stroke-width: 0.8; stroke-linecap: square"/>
     </g>
     <g id="line2d_12">
      <g>
       <use xlink:href="#ma6fc547883" x="325.488281" y="206.942657" style="fill: #898781; stroke: #898781; stroke-width: 0.8"/>
      </g>
     </g>
     <g id="text_6">
      <!-- 350 -->
      <g style="fill: #898781" transform="translate(315.467344 221.420196) scale(0.105 -0.105)">
       <use xlink:href="#DejaVuSans-16"/>
       <use xlink:href="#DejaVuSans-18" transform="translate(63.625 0)"/>
       <use xlink:href="#DejaVuSans-13" transform="translate(127.25 0)"/>
      </g>
     </g>
    </g>
    <g id="text_7">
     <!-- power (W)  →  increasing intensity -->
     <g style="fill: #52514e" transform="translate(95.491289 235.921016) scale(0.105 -0.105)">
      <defs>
       <path id="DejaVuSans-53" d="M 1159 525 
L 1159 -1331 
L 581 -1331 
L 581 3500 
L 1159 3500 
L 1159 2969 
Q 1341 3281 1617 3432 
Q 1894 3584 2278 3584 
Q 2916 3584 3314 3078 
Q 3713 2572 3713 1747 
Q 3713 922 3314 415 
Q 2916 -91 2278 -91 
Q 1894 -91 1617 61 
Q 1341 213 1159 525 
z
M 3116 1747 
Q 3116 2381 2855 2742 
Q 2594 3103 2138 3103 
Q 1681 3103 1420 2742 
Q 1159 2381 1159 1747 
Q 1159 1113 1420 752 
Q 1681 391 2138 391 
Q 2594 391 2855 752 
Q 3116 1113 3116 1747 
z
" transform="scale(0.015625)"/>
       <path id="DejaVuSans-52" d="M 1959 3097 
Q 1497 3097 1228 2736 
Q 959 2375 959 1747 
Q 959 1119 1226 758 
Q 1494 397 1959 397 
Q 2419 397 2687 759 
Q 2956 1122 2956 1747 
Q 2956 2369 2687 2733 
Q 2419 3097 1959 3097 
z
M 1959 3584 
Q 2709 3584 3137 3096 
Q 3566 2609 3566 1747 
Q 3566 888 3137 398 
Q 2709 -91 1959 -91 
Q 1206 -91 779 398 
Q 353 888 353 1747 
Q 353 2609 779 3096 
Q 1206 3584 1959 3584 
z
" transform="scale(0.015625)"/>
       <path id="DejaVuSans-5a" d="M 269 3500 
L 844 3500 
L 1563 769 
L 2278 3500 
L 2956 3500 
L 3675 769 
L 4391 3500 
L 4966 3500 
L 4050 0 
L 3372 0 
L 2619 2869 
L 1863 0 
L 1184 0 
L 269 3500 
z
" transform="scale(0.015625)"/>
       <path id="DejaVuSans-48" d="M 3597 1894 
L 3597 1613 
L 953 1613 
Q 991 1019 1311 708 
Q 1631 397 2203 397 
Q 2534 397 2845 478 
Q 3156 559 3463 722 
L 3463 178 
Q 3153 47 2828 -22 
Q 2503 -91 2169 -91 
Q 1331 -91 842 396 
Q 353 884 353 1716 
Q 353 2575 817 3079 
Q 1281 3584 2069 3584 
Q 2775 3584 3186 3129 
Q 3597 2675 3597 1894 
z
M 3022 2063 
Q 3016 2534 2758 2815 
Q 2500 3097 2075 3097 
Q 1594 3097 1305 2825 
Q 1016 2553 972 2059 
L 3022 2063 
z
" transform="scale(0.015625)"/>
       <path id="DejaVuSans-55" d="M 2631 2963 
Q 2534 3019 2420 3045 
Q 2306 3072 2169 3072 
Q 1681 3072 1420 2755 
Q 1159 2438 1159 1844 
L 1159 0 
L 581 0 
L 581 3500 
L 1159 3500 
L 1159 2956 
Q 1341 3275 1631 3429 
Q 1922 3584 2338 3584 
Q 2397 3584 2469 3576 
Q 2541 3569 2628 3553 
L 2631 2963 
z
" transform="scale(0.015625)"/>
       <path id="DejaVuSans-3" transform="scale(0.015625)"/>
       <path id="DejaVuSans-b" d="M 1984 4856 
Q 1566 4138 1362 3434 
Q 1159 2731 1159 2009 
Q 1159 1288 1364 580 
Q 1569 -128 1984 -844 
L 1484 -844 
Q 1016 -109 783 600 
Q 550 1309 550 2009 
Q 550 2706 781 3412 
Q 1013 4119 1484 4856 
L 1984 4856 
z
" transform="scale(0.015625)"/>
       <path id="DejaVuSans-3a" d="M 213 4666 
L 850 4666 
L 1831 722 
L 2809 4666 
L 3519 4666 
L 4500 722 
L 5478 4666 
L 6119 4666 
L 4947 0 
L 4153 0 
L 3169 4050 
L 2175 0 
L 1381 0 
L 213 4666 
z
" transform="scale(0.015625)"/>
       <path id="DejaVuSans-c" d="M 513 4856 
L 1013 4856 
Q 1481 4119 1714 3412 
Q 1947 2706 1947 2009 
Q 1947 1309 1714 600 
Q 1481 -109 1013 -844 
L 513 -844 
Q 928 -128 1133 580 
Q 1338 1288 1338 2009 
Q 1338 2731 1133 3434 
Q 928 4138 513 4856 
z
" transform="scale(0.015625)"/>
       <path id="DejaVuSans-c1c" d="M 5050 2147 
L 5050 1866 
L 3822 638 
L 3447 1013 
L 4175 1741 
L 366 1741 
L 366 2272 
L 4175 2272 
L 3447 3000 
L 3822 3375 
L 5050 2147 
z
" transform="scale(0.015625)"/>
       <path id="DejaVuSans-4c" d="M 603 3500 
L 1178 3500 
L 1178 0 
L 603 0 
L 603 3500 
z
M 603 4863 
L 1178 4863 
L 1178 4134 
L 603 4134 
L 603 4863 
z
" transform="scale(0.015625)"/>
       <path id="DejaVuSans-51" d="M 3513 2113 
L 3513 0 
L 2938 0 
L 2938 2094 
Q 2938 2591 2744 2837 
Q 2550 3084 2163 3084 
Q 1697 3084 1428 2787 
Q 1159 2491 1159 1978 
L 1159 0 
L 581 0 
L 581 3500 
L 1159 3500 
L 1159 2956 
Q 1366 3272 1645 3428 
Q 1925 3584 2291 3584 
Q 2894 3584 3203 3211 
Q 3513 2838 3513 2113 
z
" transform="scale(0.015625)"/>
       <path id="DejaVuSans-46" d="M 3122 3366 
L 3122 2828 
Q 2878 2963 2633 3030 
Q 2388 3097 2138 3097 
Q 1578 3097 1268 2742 
Q 959 2388 959 1747 
Q 959 1106 1268 751 
Q 1578 397 2138 397 
Q 2388 397 2633 464 
Q 2878 531 3122 666 
L 3122 134 
Q 2881 22 2623 -34 
Q 2366 -91 2075 -91 
Q 1284 -91 818 406 
Q 353 903 353 1747 
Q 353 2603 823 3093 
Q 1294 3584 2113 3584 
Q 2378 3584 2631 3529 
Q 2884 3475 3122 3366 
z
" transform="scale(0.015625)"/>
       <path id="DejaVuSans-44" d="M 2194 1759 
Q 1497 1759 1228 1600 
Q 959 1441 959 1056 
Q 959 750 1161 570 
Q 1363 391 1709 391 
Q 2188 391 2477 730 
Q 2766 1069 2766 1631 
L 2766 1759 
L 2194 1759 
z
M 3341 1997 
L 3341 0 
L 2766 0 
L 2766 531 
Q 2569 213 2275 61 
Q 1981 -91 1556 -91 
Q 1019 -91 701 211 
Q 384 513 384 1019 
Q 384 1609 779 1909 
Q 1175 2209 1959 2209 
L 2766 2209 
L 2766 2266 
Q 2766 2663 2505 2880 
Q 2244 3097 1772 3097 
Q 1472 3097 1187 3025 
Q 903 2953 641 2809 
L 641 3341 
Q 956 3463 1253 3523 
Q 1550 3584 1831 3584 
Q 2591 3584 2966 3190 
Q 3341 2797 3341 1997 
z
" transform="scale(0.015625)"/>
       <path id="DejaVuSans-56" d="M 2834 3397 
L 2834 2853 
Q 2591 2978 2328 3040 
Q 2066 3103 1784 3103 
Q 1356 3103 1142 2972 
Q 928 2841 928 2578 
Q 928 2378 1081 2264 
Q 1234 2150 1697 2047 
L 1894 2003 
Q 2506 1872 2764 1633 
Q 3022 1394 3022 966 
Q 3022 478 2636 193 
Q 2250 -91 1575 -91 
Q 1294 -91 989 -36 
Q 684 19 347 128 
L 347 722 
Q 666 556 975 473 
Q 1284 391 1588 391 
Q 1994 391 2212 530 
Q 2431 669 2431 922 
Q 2431 1156 2273 1281 
Q 2116 1406 1581 1522 
L 1381 1569 
Q 847 1681 609 1914 
Q 372 2147 372 2553 
Q 372 3047 722 3315 
Q 1072 3584 1716 3584 
Q 2034 3584 2315 3537 
Q 2597 3491 2834 3397 
z
" transform="scale(0.015625)"/>
       <path id="DejaVuSans-4a" d="M 2906 1791 
Q 2906 2416 2648 2759 
Q 2391 3103 1925 3103 
Q 1463 3103 1205 2759 
Q 947 2416 947 1791 
Q 947 1169 1205 825 
Q 1463 481 1925 481 
Q 2391 481 2648 825 
Q 2906 1169 2906 1791 
z
M 3481 434 
Q 3481 -459 3084 -895 
Q 2688 -1331 1869 -1331 
Q 1566 -1331 1297 -1286 
Q 1028 -1241 775 -1147 
L 775 -588 
Q 1028 -725 1275 -790 
Q 1522 -856 1778 -856 
Q 2344 -856 2625 -561 
Q 2906 -266 2906 331 
L 2906 616 
Q 2728 306 2450 153 
Q 2172 0 1784 0 
Q 1141 0 747 490 
Q 353 981 353 1791 
Q 353 2603 747 3093 
Q 1141 3584 1784 3584 
Q 2172 3584 2450 3431 
Q 2728 3278 2906 2969 
L 2906 3500 
L 3481 3500 
L 3481 434 
z
" transform="scale(0.015625)"/>
       <path id="DejaVuSans-57" d="M 1172 4494 
L 1172 3500 
L 2356 3500 
L 2356 3053 
L 1172 3053 
L 1172 1153 
Q 1172 725 1289 603 
Q 1406 481 1766 481 
L 2356 481 
L 2356 0 
L 1766 0 
Q 1100 0 847 248 
Q 594 497 594 1153 
L 594 3053 
L 172 3053 
L 172 3500 
L 594 3500 
L 594 4494 
L 1172 4494 
z
" transform="scale(0.015625)"/>
       <path id="DejaVuSans-5c" d="M 2059 -325 
Q 1816 -950 1584 -1140 
Q 1353 -1331 966 -1331 
L 506 -1331 
L 506 -850 
L 844 -850 
Q 1081 -850 1212 -737 
Q 1344 -625 1503 -206 
L 1606 56 
L 191 3500 
L 800 3500 
L 1894 763 
L 2988 3500 
L 3597 3500 
L 2059 -325 
z
" transform="scale(0.015625)"/>
      </defs>
      <use xlink:href="#DejaVuSans-53"/>
      <use xlink:href="#DejaVuSans-52" transform="translate(63.484375 0)"/>
      <use xlink:href="#DejaVuSans-5a" transform="translate(124.671875 0)"/>
      <use xlink:href="#DejaVuSans-48" transform="translate(206.453125 0)"/>
      <use xlink:href="#DejaVuSans-55" transform="translate(267.984375 0)"/>
      <use xlink:href="#DejaVuSans-3" transform="translate(309.09375 0)"/>
      <use xlink:href="#DejaVuSans-b" transform="translate(340.875 0)"/>
      <use xlink:href="#DejaVuSans-3a" transform="translate(379.890625 0)"/>
      <use xlink:href="#DejaVuSans-c" transform="translate(478.765625 0)"/>
      <use xlink:href="#DejaVuSans-3" transform="translate(517.78125 0)"/>
      <use xlink:href="#DejaVuSans-3" transform="translate(549.5625 0)"/>
      <use xlink:href="#DejaVuSans-c1c" transform="translate(581.34375 0)"/>
      <use xlink:href="#DejaVuSans-3" transform="translate(665.140625 0)"/>
      <use xlink:href="#DejaVuSans-3" transform="translate(696.921875 0)"/>
      <use xlink:href="#DejaVuSans-4c" transform="translate(728.703125 0)"/>
      <use xlink:href="#DejaVuSans-51" transform="translate(756.484375 0)"/>
      <use xlink:href="#DejaVuSans-46" transform="translate(819.859375 0)"/>
      <use xlink:href="#DejaVuSans-55" transform="translate(874.84375 0)"/>
      <use xlink:href="#DejaVuSans-48" transform="translate(913.75 0)"/>
      <use xlink:href="#DejaVuSans-44" transform="translate(975.28125 0)"/>
      <use xlink:href="#DejaVuSans-56" transform="translate(1036.5625 0)"/>
      <use xlink:href="#DejaVuSans-4c" transform="translate(1088.65625 0)"/>
      <use xlink:href="#DejaVuSans-51" transform="translate(1116.4375 0)"/>
      <use xlink:href="#DejaVuSans-4a" transform="translate(1179.8125 0)"/>
      <use xlink:href="#DejaVuSans-3" transform="translate(1243.296875 0)"/>
      <use xlink:href="#DejaVuSans-4c" transform="translate(1275.078125 0)"/>
      <use xlink:href="#DejaVuSans-51" transform="translate(1302.859375 0)"/>
      <use xlink:href="#DejaVuSans-57" transform="translate(1366.234375 0)"/>
      <use xlink:href="#DejaVuSans-48" transform="translate(1405.4375 0)"/>
      <use xlink:href="#DejaVuSans-51" transform="translate(1466.96875 0)"/>
      <use xlink:href="#DejaVuSans-56" transform="translate(1530.34375 0)"/>
      <use xlink:href="#DejaVuSans-4c" transform="translate(1582.4375 0)"/>
      <use xlink:href="#DejaVuSans-57" transform="translate(1610.21875 0)"/>
      <use xlink:href="#DejaVuSans-5c" transform="translate(1649.421875 0)"/>
     </g>
    </g>
   </g>
   <g id="matplotlib.axis_2">
    <g id="ytick_1">
     <g id="line2d_13">
      <path d="M 44.898281 194.323163 
L 325.488281 194.323163 
" clip-path="url(#p3b66dfddc1)" style="fill: none; stroke: #e1e0d9; stroke-width: 0.8; stroke-linecap: square"/>
     </g>
     <g id="line2d_14">
      <defs>
       <path id="m9ca25852ac" d="M 0 0 
L -3 0 
" style="stroke: #898781; stroke-width: 0.8"/>
      </defs>
      <g>
       <use xlink:href="#m9ca25852ac" x="44.898281" y="194.323163" style="fill: #898781; stroke: #898781; stroke-width: 0.8"/>
      </g>
     </g>
     <g id="text_8">
      <!-- 0.4 -->
      <g style="fill: #898781" transform="translate(21.7 198.311932) scale(0.105 -0.105)">
       <defs>
        <path id="DejaVuSans-11" d="M 684 794 
L 1344 794 
L 1344 0 
L 684 0 
L 684 794 
z
" transform="scale(0.015625)"/>
        <path id="DejaVuSans-17" d="M 2419 4116 
L 825 1625 
L 2419 1625 
L 2419 4116 
z
M 2253 4666 
L 3047 4666 
L 3047 1625 
L 3713 1625 
L 3713 1100 
L 3047 1100 
L 3047 0 
L 2419 0 
L 2419 1100 
L 313 1100 
L 313 1709 
L 2253 4666 
z
" transform="scale(0.015625)"/>
       </defs>
       <use xlink:href="#DejaVuSans-13"/>
       <use xlink:href="#DejaVuSans-11" transform="translate(63.625 0)"/>
       <use xlink:href="#DejaVuSans-17" transform="translate(95.40625 0)"/>
      </g>
     </g>
    </g>
    <g id="ytick_2">
     <g id="line2d_15">
      <path d="M 44.898281 169.084175 
L 325.488281 169.084175 
" clip-path="url(#p3b66dfddc1)" style="fill: none; stroke: #e1e0d9; stroke-width: 0.8; stroke-linecap: square"/>
     </g>
     <g id="line2d_16">
      <g>
       <use xlink:href="#m9ca25852ac" x="44.898281" y="169.084175" style="fill: #898781; stroke: #898781; stroke-width: 0.8"/>
      </g>
     </g>
     <g id="text_9">
      <!-- 0.5 -->
      <g style="fill: #898781" transform="translate(21.7 173.072945) scale(0.105 -0.105)">
       <use xlink:href="#DejaVuSans-13"/>
       <use xlink:href="#DejaVuSans-11" transform="translate(63.625 0)"/>
       <use xlink:href="#DejaVuSans-18" transform="translate(95.40625 0)"/>
      </g>
     </g>
    </g>
    <g id="ytick_3">
     <g id="line2d_17">
      <path d="M 44.898281 143.845187 
L 325.488281 143.845187 
" clip-path="url(#p3b66dfddc1)" style="fill: none; stroke: #e1e0d9; stroke-width: 0.8; stroke-linecap: square"/>
     </g>
     <g id="line2d_18">
      <g>
       <use xlink:href="#m9ca25852ac" x="44.898281" y="143.845187" style="fill: #898781; stroke: #898781; stroke-width: 0.8"/>
      </g>
     </g>
     <g id="text_10">
      <!-- 0.6 -->
      <g style="fill: #898781" transform="translate(21.7 147.833957) scale(0.105 -0.105)">
       <defs>
        <path id="DejaVuSans-19" d="M 2113 2584 
Q 1688 2584 1439 2293 
Q 1191 2003 1191 1497 
Q 1191 994 1439 701 
Q 1688 409 2113 409 
Q 2538 409 2786 701 
Q 3034 994 3034 1497 
Q 3034 2003 2786 2293 
Q 2538 2584 2113 2584 
z
M 3366 4563 
L 3366 3988 
Q 3128 4100 2886 4159 
Q 2644 4219 2406 4219 
Q 1781 4219 1451 3797 
Q 1122 3375 1075 2522 
Q 1259 2794 1537 2939 
Q 1816 3084 2150 3084 
Q 2853 3084 3261 2657 
Q 3669 2231 3669 1497 
Q 3669 778 3244 343 
Q 2819 -91 2113 -91 
Q 1303 -91 875 529 
Q 447 1150 447 2328 
Q 447 3434 972 4092 
Q 1497 4750 2381 4750 
Q 2619 4750 2861 4703 
Q 3103 4656 3366 4563 
z
" transform="scale(0.015625)"/>
       </defs>
       <use xlink:href="#DejaVuSans-13"/>
       <use xlink:href="#DejaVuSans-11" transform="translate(63.625 0)"/>
       <use xlink:href="#DejaVuSans-19" transform="translate(95.40625 0)"/>
      </g>
     </g>
    </g>
    <g id="ytick_4">
     <g id="line2d_19">
      <path d="M 44.898281 118.6062 
L 325.488281 118.6062 
" clip-path="url(#p3b66dfddc1)" style="fill: none; stroke: #e1e0d9; stroke-width: 0.8; stroke-linecap: square"/>
     </g>
     <g id="line2d_20">
      <g>
       <use xlink:href="#m9ca25852ac" x="44.898281" y="118.6062" style="fill: #898781; stroke: #898781; stroke-width: 0.8"/>
      </g>
     </g>
     <g id="text_11">
      <!-- 0.7 -->
      <g style="fill: #898781" transform="translate(21.7 122.594969) scale(0.105 -0.105)">
       <defs>
        <path id="DejaVuSans-1a" d="M 525 4666 
L 3525 4666 
L 3525 4397 
L 1831 0 
L 1172 0 
L 2766 4134 
L 525 4134 
L 525 4666 
z
" transform="scale(0.015625)"/>
       </defs>
       <use xlink:href="#DejaVuSans-13"/>
       <use xlink:href="#DejaVuSans-11" transform="translate(63.625 0)"/>
       <use xlink:href="#DejaVuSans-1a" transform="translate(95.40625 0)"/>
      </g>
     </g>
    </g>
    <g id="ytick_5">
     <g id="line2d_21">
      <path d="M 44.898281 93.367212 
L 325.488281 93.367212 
" clip-path="url(#p3b66dfddc1)" style="fill: none; stroke: #e1e0d9; stroke-width: 0.8; stroke-linecap: square"/>
     </g>
     <g id="line2d_22">
      <g>
       <use xlink:href="#m9ca25852ac" x="44.898281" y="93.367212" style="fill: #898781; stroke: #898781; stroke-width: 0.8"/>
      </g>
     </g>
     <g id="text_12">
      <!-- 0.8 -->
      <g style="fill: #898781" transform="translate(21.7 97.355982) scale(0.105 -0.105)">
       <defs>
        <path id="DejaVuSans-1b" d="M 2034 2216 
Q 1584 2216 1326 1975 
Q 1069 1734 1069 1313 
Q 1069 891 1326 650 
Q 1584 409 2034 409 
Q 2484 409 2743 651 
Q 3003 894 3003 1313 
Q 3003 1734 2745 1975 
Q 2488 2216 2034 2216 
z
M 1403 2484 
Q 997 2584 770 2862 
Q 544 3141 544 3541 
Q 544 4100 942 4425 
Q 1341 4750 2034 4750 
Q 2731 4750 3128 4425 
Q 3525 4100 3525 3541 
Q 3525 3141 3298 2862 
Q 3072 2584 2669 2484 
Q 3125 2378 3379 2068 
Q 3634 1759 3634 1313 
Q 3634 634 3220 271 
Q 2806 -91 2034 -91 
Q 1263 -91 848 271 
Q 434 634 434 1313 
Q 434 1759 690 2068 
Q 947 2378 1403 2484 
z
M 1172 3481 
Q 1172 3119 1398 2916 
Q 1625 2713 2034 2713 
Q 2441 2713 2670 2916 
Q 2900 3119 2900 3481 
Q 2900 3844 2670 4047 
Q 2441 4250 2034 4250 
Q 1625 4250 1398 4047 
Q 1172 3844 1172 3481 
z
" transform="scale(0.015625)"/>
       </defs>
       <use xlink:href="#DejaVuSans-13"/>
       <use xlink:href="#DejaVuSans-11" transform="translate(63.625 0)"/>
       <use xlink:href="#DejaVuSans-1b" transform="translate(95.40625 0)"/>
      </g>
     </g>
    </g>
    <g id="ytick_6">
     <g id="line2d_23">
      <path d="M 44.898281 68.128225 
L 325.488281 68.128225 
" clip-path="url(#p3b66dfddc1)" style="fill: none; stroke: #e1e0d9; stroke-width: 0.8; stroke-linecap: square"/>
     </g>
     <g id="line2d_24">
      <g>
       <use xlink:href="#m9ca25852ac" x="44.898281" y="68.128225" style="fill: #898781; stroke: #898781; stroke-width: 0.8"/>
      </g>
     </g>
     <g id="text_13">
      <!-- 0.9 -->
      <g style="fill: #898781" transform="translate(21.7 72.116994) scale(0.105 -0.105)">
       <defs>
        <path id="DejaVuSans-1c" d="M 703 97 
L 703 672 
Q 941 559 1184 500 
Q 1428 441 1663 441 
Q 2288 441 2617 861 
Q 2947 1281 2994 2138 
Q 2813 1869 2534 1725 
Q 2256 1581 1919 1581 
Q 1219 1581 811 2004 
Q 403 2428 403 3163 
Q 403 3881 828 4315 
Q 1253 4750 1959 4750 
Q 2769 4750 3195 4129 
Q 3622 3509 3622 2328 
Q 3622 1225 3098 567 
Q 2575 -91 1691 -91 
Q 1453 -91 1209 -44 
Q 966 3 703 97 
z
M 1959 2075 
Q 2384 2075 2632 2365 
Q 2881 2656 2881 3163 
Q 2881 3666 2632 3958 
Q 2384 4250 1959 4250 
Q 1534 4250 1286 3958 
Q 1038 3666 1038 3163 
Q 1038 2656 1286 2365 
Q 1534 2075 1959 2075 
z
" transform="scale(0.015625)"/>
       </defs>
       <use xlink:href="#DejaVuSans-13"/>
       <use xlink:href="#DejaVuSans-11" transform="translate(63.625 0)"/>
       <use xlink:href="#DejaVuSans-1c" transform="translate(95.40625 0)"/>
      </g>
     </g>
    </g>
    <g id="ytick_7">
     <g id="line2d_25">
      <path d="M 44.898281 42.889237 
L 325.488281 42.889237 
" clip-path="url(#p3b66dfddc1)" style="fill: none; stroke: #e1e0d9; stroke-width: 0.8; stroke-linecap: square"/>
     </g>
     <g id="line2d_26">
      <g>
       <use xlink:href="#m9ca25852ac" x="44.898281" y="42.889237" style="fill: #898781; stroke: #898781; stroke-width: 0.8"/>
      </g>
     </g>
     <g id="text_14">
      <!-- 1.0 -->
      <g style="fill: #898781" transform="translate(21.7 46.878007) scale(0.105 -0.105)">
       <use xlink:href="#DejaVuSans-14"/>
       <use xlink:href="#DejaVuSans-11" transform="translate(63.625 0)"/>
       <use xlink:href="#DejaVuSans-13" transform="translate(95.40625 0)"/>
      </g>
     </g>
    </g>
    <g id="text_15">
     <!-- DFA-α1 -->
     <g style="fill: #52514e" transform="translate(15.177539 133.571875) rotate(-90) scale(0.105 -0.105)">
      <defs>
       <path id="DejaVuSans-27" d="M 1259 4147 
L 1259 519 
L 2022 519 
Q 2988 519 3436 956 
Q 3884 1394 3884 2338 
Q 3884 3275 3436 3711 
Q 2988 4147 2022 4147 
L 1259 4147 
z
M 628 4666 
L 1925 4666 
Q 3281 4666 3915 4102 
Q 4550 3538 4550 2338 
Q 4550 1131 3912 565 
Q 3275 0 1925 0 
L 628 0 
L 628 4666 
z
" transform="scale(0.015625)"/>
       <path id="DejaVuSans-29" d="M 628 4666 
L 3309 4666 
L 3309 4134 
L 1259 4134 
L 1259 2759 
L 3109 2759 
L 3109 2228 
L 1259 2228 
L 1259 0 
L 628 0 
L 628 4666 
z
" transform="scale(0.015625)"/>
       <path id="DejaVuSans-24" d="M 2188 4044 
L 1331 1722 
L 3047 1722 
L 2188 4044 
z
M 1831 4666 
L 2547 4666 
L 4325 0 
L 3669 0 
L 3244 1197 
L 1141 1197 
L 716 0 
L 50 0 
L 1831 4666 
z
" transform="scale(0.015625)"/>
       <path id="DejaVuSans-10" d="M 313 2009 
L 1997 2009 
L 1997 1497 
L 313 1497 
L 313 2009 
z
" transform="scale(0.015625)"/>
       <path id="DejaVuSans-345" d="M 2644 1628 
L 2506 2350 
Q 2366 3091 1809 3091 
Q 1391 3091 1200 2747 
Q 959 2316 959 1747 
Q 959 1059 1194 731 
Q 1431 397 1809 397 
Q 2228 397 2453 1063 
L 2644 1628 
z
M 2966 2584 
L 3275 3500 
L 3788 3500 
L 3147 1603 
L 3272 919 
Q 3300 766 3409 638 
Q 3538 488 3638 488 
L 3913 488 
L 3913 0 
L 3569 0 
Q 3275 0 3013 263 
Q 2884 394 2831 669 
Q 2688 322 2394 50 
Q 2256 -78 1809 -78 
Q 1075 -78 719 397 
Q 353 888 353 1747 
Q 353 2666 750 3097 
Q 1191 3578 1809 3578 
Q 2781 3578 2966 2584 
z
" transform="scale(0.015625)"/>
      </defs>
      <use xlink:href="#DejaVuSans-27"/>
      <use xlink:href="#DejaVuSans-29" transform="translate(77 0)"/>
      <use xlink:href="#DejaVuSans-24" transform="translate(125.34375 0)"/>
      <use xlink:href="#DejaVuSans-10" transform="translate(191.546875 0)"/>
      <use xlink:href="#DejaVuSans-345" transform="translate(227.625 0)"/>
      <use xlink:href="#DejaVuSans-14" transform="translate(293.546875 0)"/>
     </g>
    </g>
   </g>
   <g id="line2d_27">
    <path d="M 57.652372 57.932042 
L 65.324006 60.04128 
L 72.995639 62.394367 
L 80.02797 64.777162 
L 87.060301 67.384213 
L 94.092632 70.220423 
L 101.124963 73.286873 
L 108.157294 76.580124 
L 115.828927 80.421209 
L 123.500561 84.503212 
L 131.811497 89.165925 
L 141.401039 94.799261 
L 154.187095 102.590004 
L 179.759207 118.242891 
L 189.988052 124.19398 
L 198.298989 128.787434 
L 205.970622 132.795662 
L 213.642256 136.556177 
L 220.674587 139.771776 
L 227.706918 142.758835 
L 234.739248 145.515549 
L 241.771579 148.044404 
L 248.80391 150.351448 
L 256.475544 152.625728 
L 264.147177 154.660954 
L 271.818811 156.473429 
L 280.129747 158.205781 
L 289.079987 159.82784 
L 298.030226 161.224521 
L 307.619768 162.501096 
L 312.73419 163.09927 
L 312.73419 163.09927 
" clip-path="url(#p3b66dfddc1)" style="fill: none; stroke: #2a78d6; stroke-width: 2.3; stroke-linecap: square"/>
   </g>
   <g id="line2d_28">
    <path d="M 44.898281 105.986706 
L 325.488281 105.986706 
" clip-path="url(#p3b66dfddc1)" style="fill: none; stroke-dasharray: 1,1.65; stroke-dashoffset: 0; stroke: #898781"/>
   </g>
   <g id="line2d_29">
    <path d="M 44.898281 169.084175 
L 325.488281 169.084175 
" clip-path="url(#p3b66dfddc1)" style="fill: none; stroke-dasharray: 1,1.65; stroke-dashoffset: 0; stroke: #898781"/>
   </g>
   <g id="line2d_30">
    <path d="M 159.685099 206.942657 
L 159.685099 22.698047 
" clip-path="url(#p3b66dfddc1)" style="fill: none; stroke-dasharray: 4.44,1.92; stroke-dashoffset: 0; stroke: #008300; stroke-width: 1.2"/>
   </g>
   <g id="patch_3">
    <path d="M 44.898281 206.942657 
L 44.898281 22.698047 
" style="fill: none; stroke: #c3c2b7; stroke-width: 0.9; stroke-linejoin: miter; stroke-linecap: square"/>
   </g>
   <g id="patch_4">
    <path d="M 44.898281 206.942657 
L 325.488281 206.942657 
" style="fill: none; stroke: #c3c2b7; stroke-width: 0.9; stroke-linejoin: miter; stroke-linecap: square"/>
   </g>
   <g id="text_16">
    <!-- AeT anchor 0.75 -->
    <g style="fill: #898781" transform="translate(57.652372 103.462807) scale(0.08 -0.08)">
     <defs>
      <path id="DejaVuSans-37" d="M -19 4666 
L 3928 4666 
L 3928 4134 
L 2272 4134 
L 2272 0 
L 1638 0 
L 1638 4134 
L -19 4134 
L -19 4666 
z
" transform="scale(0.015625)"/>
      <path id="DejaVuSans-4b" d="M 3513 2113 
L 3513 0 
L 2938 0 
L 2938 2094 
Q 2938 2591 2744 2837 
Q 2550 3084 2163 3084 
Q 1697 3084 1428 2787 
Q 1159 2491 1159 1978 
L 1159 0 
L 581 0 
L 581 4863 
L 1159 4863 
L 1159 2956 
Q 1366 3272 1645 3428 
Q 1925 3584 2291 3584 
Q 2894 3584 3203 3211 
Q 3513 2838 3513 2113 
z
" transform="scale(0.015625)"/>
     </defs>
     <use xlink:href="#DejaVuSans-24"/>
     <use xlink:href="#DejaVuSans-48" transform="translate(66.65625 0)"/>
     <use xlink:href="#DejaVuSans-37" transform="translate(128.1875 0)"/>
     <use xlink:href="#DejaVuSans-3" transform="translate(189.265625 0)"/>
     <use xlink:href="#DejaVuSans-44" transform="translate(221.046875 0)"/>
     <use xlink:href="#DejaVuSans-51" transform="translate(282.328125 0)"/>
     <use xlink:href="#DejaVuSans-46" transform="translate(345.703125 0)"/>
     <use xlink:href="#DejaVuSans-4b" transform="translate(400.6875 0)"/>
     <use xlink:href="#DejaVuSans-52" transform="translate(464.0625 0)"/>
     <use xlink:href="#DejaVuSans-55" transform="translate(525.25 0)"/>
     <use xlink:href="#DejaVuSans-3" transform="translate(566.359375 0)"/>
     <use xlink:href="#DejaVuSans-13" transform="translate(598.140625 0)"/>
     <use xlink:href="#DejaVuSans-11" transform="translate(661.765625 0)"/>
     <use xlink:href="#DejaVuSans-1a" transform="translate(693.546875 0)"/>
     <use xlink:href="#DejaVuSans-18" transform="translate(757.171875 0)"/>
    </g>
   </g>
   <g id="text_17">
    <!-- AnT anchor 0.50 -->
    <g style="fill: #898781" transform="translate(57.652372 166.560276) scale(0.08 -0.08)">
     <use xlink:href="#DejaVuSans-24"/>
     <use xlink:href="#DejaVuSans-51" transform="translate(68.40625 0)"/>
     <use xlink:href="#DejaVuSans-37" transform="translate(131.78125 0)"/>
     <use xlink:href="#DejaVuSans-3" transform="translate(192.859375 0)"/>
     <use xlink:href="#DejaVuSans-44" transform="translate(224.640625 0)"/>
     <use xlink:href="#DejaVuSans-51" transform="translate(285.921875 0)"/>
     <use xlink:href="#DejaVuSans-46" transform="translate(349.296875 0)"/>
     <use xlink:href="#DejaVuSans-4b" transform="translate(404.28125 0)"/>
     <use xlink:href="#DejaVuSans-52" transform="translate(467.65625 0)"/>
     <use xlink:href="#DejaVuSans-55" transform="translate(528.84375 0)"/>
     <use xlink:href="#DejaVuSans-3" transform="translate(569.953125 0)"/>
     <use xlink:href="#DejaVuSans-13" transform="translate(601.734375 0)"/>
     <use xlink:href="#DejaVuSans-11" transform="translate(665.359375 0)"/>
     <use xlink:href="#DejaVuSans-18" transform="translate(697.140625 0)"/>
     <use xlink:href="#DejaVuSans-13" transform="translate(760.765625 0)"/>
    </g>
   </g>
   <g id="text_18">
    <!-- P_AeT -->
    <g style="fill: #008300" transform="translate(163.766409 37.841439) scale(0.085 -0.085)">
     <defs>
      <path id="DejaVuSans-33" d="M 1259 4147 
L 1259 2394 
L 2053 2394 
Q 2494 2394 2734 2622 
Q 2975 2850 2975 3272 
Q 2975 3691 2734 3919 
Q 2494 4147 2053 4147 
L 1259 4147 
z
M 628 4666 
L 2053 4666 
Q 2838 4666 3239 4311 
Q 3641 3956 3641 3272 
Q 3641 2581 3239 2228 
Q 2838 1875 2053 1875 
L 1259 1875 
L 1259 0 
L 628 0 
L 628 4666 
z
" transform="scale(0.015625)"/>
      <path id="DejaVuSans-42" d="M 3263 -1063 
L 3263 -1509 
L -63 -1509 
L -63 -1063 
L 3263 -1063 
z
" transform="scale(0.015625)"/>
     </defs>
     <use xlink:href="#DejaVuSans-33"/>
     <use xlink:href="#DejaVuSans-42" transform="translate(60.296875 0)"/>
     <use xlink:href="#DejaVuSans-24" transform="translate(110.296875 0)"/>
     <use xlink:href="#DejaVuSans-48" transform="translate(176.953125 0)"/>
     <use xlink:href="#DejaVuSans-37" transform="translate(238.484375 0)"/>
    </g>
   </g>
   <g id="text_19">
    <!-- A1_target(P) = a0 − a1/(1+e^{−s(P−P_AeT)}) -->
    <g style="fill: #898781" transform="translate(53.315981 193.845988) scale(0.085 -0.085)">
     <defs>
      <path id="DejaVuSans-Oblique-24" d="M 2356 4666 
L 3072 4666 
L 3938 0 
L 3278 0 
L 3084 1197 
L 984 1197 
L 325 0 
L -341 0 
L 2356 4666 
z
M 2584 4044 
L 1275 1722 
L 2988 1722 
L 2584 4044 
z
" transform="scale(0.015625)"/>
      <path id="DejaVuSans-Oblique-14" d="M 416 531 
L 1447 531 
L 2144 4122 
L 978 3897 
L 1088 4441 
L 2247 4666 
L 2881 4666 
L 2075 531 
L 3103 531 
L 3003 0 
L 313 0 
L 416 531 
z
" transform="scale(0.015625)"/>
      <path id="DejaVuSans-Oblique-42" d="M 3263 -1063 
L 3263 -1509 
L -63 -1509 
L -63 -1063 
L 3263 -1063 
z
" transform="scale(0.015625)"/>
      <path id="DejaVuSans-Oblique-57" d="M 2706 3500 
L 2619 3053 
L 1472 3053 
L 1100 1153 
Q 1081 1047 1072 975 
Q 1063 903 1063 863 
Q 1063 663 1183 572 
Q 1303 481 1569 481 
L 2150 481 
L 2053 0 
L 1503 0 
Q 991 0 739 200 
Q 488 400 488 806 
Q 488 878 497 964 
Q 506 1050 525 1153 
L 897 3053 
L 409 3053 
L 500 3500 
L 978 3500 
L 1172 4494 
L 1747 4494 
L 1556 3500 
L 2706 3500 
z
" transform="scale(0.015625)"/>
      <path id="DejaVuSans-Oblique-44" d="M 3438 1997 
L 3047 0 
L 2472 0 
L 2578 531 
Q 2325 219 2001 64 
Q 1678 -91 1281 -91 
Q 834 -91 548 182 
Q 263 456 263 884 
Q 263 1497 752 1853 
Q 1241 2209 2100 2209 
L 2900 2209 
L 2931 2363 
Q 2938 2388 2941 2417 
Q 2944 2447 2944 2509 
Q 2944 2788 2717 2942 
Q 2491 3097 2081 3097 
Q 1800 3097 1504 3025 
Q 1209 2953 897 2809 
L 997 3341 
Q 1322 3463 1633 3523 
Q 1944 3584 2234 3584 
Q 2853 3584 3176 3315 
Q 3500 3047 3500 2534 
Q 3500 2431 3484 2292 
Q 3469 2153 3438 1997 
z
M 2816 1759 
L 2241 1759 
Q 1534 1759 1195 1570 
Q 856 1381 856 984 
Q 856 709 1029 553 
Q 1203 397 1509 397 
Q 1978 397 2328 733 
Q 2678 1069 2791 1631 
L 2816 1759 
z
" transform="scale(0.015625)"/>
      <path id="DejaVuSans-Oblique-55" d="M 2853 2969 
Q 2766 3016 2653 3041 
Q 2541 3066 2413 3066 
Q 1953 3066 1609 2717 
Q 1266 2369 1153 1784 
L 800 0 
L 225 0 
L 909 3500 
L 1484 3500 
L 1375 2956 
Q 1603 3259 1920 3421 
Q 2238 3584 2597 3584 
Q 2691 3584 2781 3573 
Q 2872 3563 2963 3538 
L 2853 2969 
z
" transform="scale(0.015625)"/>
      <path id="DejaVuSans-Oblique-4a" d="M 3816 3500 
L 3219 434 
Q 3047 -456 2561 -893 
Q 2075 -1331 1253 -1331 
Q 950 -1331 690 -1286 
Q 431 -1241 206 -1147 
L 313 -588 
Q 525 -725 762 -790 
Q 1000 -856 1269 -856 
Q 1816 -856 2167 -557 
Q 2519 -259 2631 300 
L 2681 563 
Q 2441 288 2122 144 
Q 1803 0 1434 0 
Q 903 0 598 351 
Q 294 703 294 1319 
Q 294 1803 478 2267 
Q 663 2731 997 3091 
Q 1219 3328 1514 3456 
Q 1809 3584 2131 3584 
Q 2484 3584 2746 3420 
Q 3009 3256 3138 2956 
L 3238 3500 
L 3816 3500 
z
M 2950 2216 
Q 2950 2641 2750 2872 
Q 2550 3103 2181 3103 
Q 1953 3103 1747 3012 
Q 1541 2922 1394 2759 
Q 1156 2491 1023 2127 
Q 891 1763 891 1375 
Q 891 944 1092 712 
Q 1294 481 1672 481 
Q 2219 481 2584 976 
Q 2950 1472 2950 2216 
z
" transform="scale(0.015625)"/>
      <path id="DejaVuSans-Oblique-48" d="M 3078 2063 
Q 3088 2113 3092 2166 
Q 3097 2219 3097 2272 
Q 3097 2653 2873 2875 
Q 2650 3097 2266 3097 
Q 1838 3097 1509 2826 
Q 1181 2556 1013 2059 
L 3078 2063 
z
M 3578 1613 
L 903 1613 
Q 884 1494 878 1425 
Q 872 1356 872 1306 
Q 872 872 1139 634 
Q 1406 397 1894 397 
Q 2269 397 2603 481 
Q 2938 566 3225 728 
L 3116 159 
Q 2806 34 2476 -28 
Q 2147 -91 1806 -91 
Q 1078 -91 686 257 
Q 294 606 294 1247 
Q 294 1794 489 2264 
Q 684 2734 1063 3103 
Q 1306 3334 1642 3459 
Q 1978 3584 2356 3584 
Q 2950 3584 3301 3228 
Q 3653 2872 3653 2272 
Q 3653 2128 3634 1964 
Q 3616 1800 3578 1613 
z
" transform="scale(0.015625)"/>
      <path id="DejaVuSans-Oblique-b" d="M 2731 4856 
Q 1903 3822 1495 2892 
Q 1088 1963 1088 1100 
Q 1088 606 1206 120 
Q 1325 -366 1563 -844 
L 1063 -844 
Q 775 -306 634 201 
Q 494 709 494 1197 
Q 494 2125 923 3036 
Q 1353 3947 2222 4856 
L 2731 4856 
z
" transform="scale(0.015625)"/>
      <path id="DejaVuSans-Oblique-33" d="M 1081 4666 
L 2541 4666 
Q 3178 4666 3512 4369 
Q 3847 4072 3847 3500 
Q 3847 2731 3353 2303 
Q 2859 1875 1966 1875 
L 1172 1875 
L 806 0 
L 172 0 
L 1081 4666 
z
M 1613 4147 
L 1275 2394 
L 2069 2394 
Q 2606 2394 2893 2669 
Q 3181 2944 3181 3456 
Q 3181 3784 2986 3965 
Q 2791 4147 2438 4147 
L 1613 4147 
z
" transform="scale(0.015625)"/>
      <path id="DejaVuSans-Oblique-c" d="M -397 -844 
Q 434 191 840 1120 
Q 1247 2050 1247 2913 
Q 1247 3406 1130 3892 
Q 1013 4378 775 4856 
L 1275 4856 
Q 1563 4316 1703 3812 
Q 1844 3309 1844 2822 
Q 1844 1891 1411 973 
Q 978 56 116 -844 
L -397 -844 
z
" transform="scale(0.015625)"/>
      <path id="DejaVuSans-Oblique-3" transform="scale(0.015625)"/>
      <path id="DejaVuSans-Oblique-20" d="M 678 2906 
L 4684 2906 
L 4684 2381 
L 678 2381 
L 678 2906 
z
M 678 1631 
L 4684 1631 
L 4684 1100 
L 678 1100 
L 678 1631 
z
" transform="scale(0.015625)"/>
      <path id="DejaVuSans-Oblique-13" d="M 2444 4750 
Q 3078 4750 3414 4328 
Q 3750 3906 3750 3116 
Q 3750 2516 3592 1923 
Q 3434 1331 3150 863 
Q 2859 394 2467 151 
Q 2075 -91 1600 -91 
Q 988 -91 653 334 
Q 319 759 319 1544 
Q 319 2138 480 2733 
Q 641 3328 928 3794 
Q 1216 4263 1602 4506 
Q 1988 4750 2444 4750 
z
M 2406 4250 
Q 2169 4250 1955 4123 
Q 1741 3997 1569 3750 
Q 1281 3338 1111 2720 
Q 941 2103 941 1453 
Q 941 938 1123 673 
Q 1306 409 1663 409 
Q 1913 409 2125 536 
Q 2338 663 2509 909 
Q 2794 1319 2961 1936 
Q 3128 2553 3128 3206 
Q 3128 3722 2945 3986 
Q 2763 4250 2406 4250 
z
" transform="scale(0.015625)"/>
      <path id="DejaVuSans-Oblique-ba4" d="M 678 2272 
L 4684 2272 
L 4684 1741 
L 678 1741 
L 678 2272 
z
" transform="scale(0.015625)"/>
      <path id="DejaVuSans-Oblique-12" d="M 2175 4666 
L 2731 4666 
L 84 -594 
L -469 -594 
L 2175 4666 
z
" transform="scale(0.015625)"/>
      <path id="DejaVuSans-Oblique-e" d="M 2944 4013 
L 2944 2272 
L 4684 2272 
L 4684 1741 
L 2944 1741 
L 2944 0 
L 2419 0 
L 2419 1741 
L 678 1741 
L 678 2272 
L 2419 2272 
L 2419 4013 
L 2944 4013 
z
" transform="scale(0.015625)"/>
      <path id="DejaVuSans-Oblique-41" d="M 2988 4666 
L 4684 2925 
L 4056 2925 
L 2681 4159 
L 1306 2925 
L 678 2925 
L 2375 4666 
L 2988 4666 
z
" transform="scale(0.015625)"/>
      <path id="DejaVuSans-Oblique-5e" d="M 3872 4863 
L 3781 4416 
L 3541 4416 
Q 3116 4416 2969 4292 
Q 2822 4169 2725 3700 
L 2566 2913 
Q 2466 2413 2277 2186 
Q 2088 1959 1741 1894 
Q 1969 1838 2095 1677 
Q 2222 1516 2222 1281 
Q 2222 1206 2209 1103 
Q 2197 1000 2175 881 
L 2028 119 
Q 2013 22 2005 -61 
Q 1997 -144 1997 -219 
Q 1997 -416 2130 -505 
Q 2263 -594 2566 -594 
L 2809 -594 
L 2719 -1044 
L 2497 -1044 
Q 1909 -1044 1656 -873 
Q 1403 -703 1403 -319 
Q 1403 -219 1414 -112 
Q 1425 -6 1447 109 
L 1588 844 
Q 1588 853 1594 881 
Q 1625 1038 1625 1178 
Q 1625 1444 1472 1561 
Q 1319 1678 966 1678 
L 775 1678 
L 863 2138 
L 1056 2138 
Q 1506 2138 1704 2308 
Q 1903 2478 2003 2950 
L 2150 3713 
Q 2231 4097 2342 4320 
Q 2453 4544 2625 4666 
Q 2769 4772 2984 4817 
Q 3200 4863 3616 4863 
L 3872 4863 
z
" transform="scale(0.015625)"/>
      <path id="DejaVuSans-Oblique-56" d="M 3200 3397 
L 3091 2853 
Q 2863 2978 2609 3040 
Q 2356 3103 2088 3103 
Q 1634 3103 1373 2948 
Q 1113 2794 1113 2528 
Q 1113 2219 1719 2053 
Q 1766 2041 1788 2034 
L 1972 1978 
Q 2547 1819 2739 1644 
Q 2931 1469 2931 1166 
Q 2931 609 2489 259 
Q 2047 -91 1331 -91 
Q 1053 -91 747 -37 
Q 441 16 72 128 
L 184 722 
Q 500 559 806 475 
Q 1113 391 1394 391 
Q 1816 391 2080 572 
Q 2344 753 2344 1031 
Q 2344 1331 1650 1516 
L 1591 1531 
L 1394 1581 
Q 956 1697 753 1886 
Q 550 2075 550 2369 
Q 550 2928 970 3256 
Q 1391 3584 2113 3584 
Q 2397 3584 2667 3537 
Q 2938 3491 3200 3397 
z
" transform="scale(0.015625)"/>
      <path id="DejaVuSans-Oblique-37" d="M 378 4666 
L 4325 4666 
L 4225 4134 
L 2559 4134 
L 1759 0 
L 1125 0 
L 1925 4134 
L 275 4134 
L 378 4666 
z
" transform="scale(0.015625)"/>
      <path id="DejaVuSans-Oblique-60" d="M 44 -1044 
L 134 -594 
L 378 -594 
Q 803 -594 950 -470 
Q 1097 -347 1191 122 
L 1350 909 
Q 1453 1409 1640 1636 
Q 1828 1863 2175 1925 
Q 1947 1984 1822 2143 
Q 1697 2303 1697 2541 
Q 1697 2619 1708 2719 
Q 1719 2819 1741 2938 
L 1888 3697 
Q 1906 3803 1912 3881 
Q 1919 3959 1919 4038 
Q 1919 4238 1786 4327 
Q 1653 4416 1350 4416 
L 1106 4416 
L 1191 4863 
L 1422 4863 
Q 2006 4863 2261 4694 
Q 2516 4525 2516 4141 
Q 2516 4044 2505 3937 
Q 2494 3831 2469 3709 
L 2328 2975 
Q 2328 2966 2322 2938 
Q 2291 2784 2291 2644 
Q 2291 2375 2444 2259 
Q 2597 2144 2950 2144 
L 3144 2144 
L 3053 1684 
L 2859 1684 
Q 2409 1684 2212 1512 
Q 2016 1341 1925 872 
L 1759 109 
Q 1678 -284 1568 -504 
Q 1459 -725 1294 -844 
Q 1147 -950 931 -997 
Q 716 -1044 300 -1044 
L 44 -1044 
z
" transform="scale(0.015625)"/>
     </defs>
     <use xlink:href="#DejaVuSans-Oblique-24"/>
     <use xlink:href="#DejaVuSans-Oblique-14" transform="translate(68.40625 0)"/>
     <use xlink:href="#DejaVuSans-Oblique-42" transform="translate(132.03125 0)"/>
     <use xlink:href="#DejaVuSans-Oblique-57" transform="translate(182.03125 0)"/>
     <use xlink:href="#DejaVuSans-Oblique-44" transform="translate(221.234375 0)"/>
     <use xlink:href="#DejaVuSans-Oblique-55" transform="translate(282.515625 0)"/>
     <use xlink:href="#DejaVuSans-Oblique-4a" transform="translate(323.625 0)"/>
     <use xlink:href="#DejaVuSans-Oblique-48" transform="translate(387.109375 0)"/>
     <use xlink:href="#DejaVuSans-Oblique-57" transform="translate(448.640625 0)"/>
     <use xlink:href="#DejaVuSans-Oblique-b" transform="translate(487.84375 0)"/>
     <use xlink:href="#DejaVuSans-Oblique-33" transform="translate(526.859375 0)"/>
     <use xlink:href="#DejaVuSans-Oblique-c" transform="translate(587.15625 0)"/>
     <use xlink:href="#DejaVuSans-Oblique-3" transform="translate(626.171875 0)"/>
     <use xlink:href="#DejaVuSans-Oblique-20" transform="translate(657.953125 0)"/>
     <use xlink:href="#DejaVuSans-Oblique-3" transform="translate(741.75 0)"/>
     <use xlink:href="#DejaVuSans-Oblique-44" transform="translate(773.53125 0)"/>
     <use xlink:href="#DejaVuSans-Oblique-13" transform="translate(834.8125 0)"/>
     <use xlink:href="#DejaVuSans-Oblique-3" transform="translate(898.4375 0)"/>
     <use xlink:href="#DejaVuSans-Oblique-ba4" transform="translate(930.21875 0)"/>
     <use xlink:href="#DejaVuSans-Oblique-3" transform="translate(1014.015625 0)"/>
     <use xlink:href="#DejaVuSans-Oblique-44" transform="translate(1045.796875 0)"/>
     <use xlink:href="#DejaVuSans-Oblique-14" transform="translate(1107.078125 0)"/>
     <use xlink:href="#DejaVuSans-Oblique-12" transform="translate(1170.703125 0)"/>
     <use xlink:href="#DejaVuSans-Oblique-b" transform="translate(1204.390625 0)"/>
     <use xlink:href="#DejaVuSans-Oblique-14" transform="translate(1243.40625 0)"/>
     <use xlink:href="#DejaVuSans-Oblique-e" transform="translate(1307.03125 0)"/>
     <use xlink:href="#DejaVuSans-Oblique-48" transform="translate(1390.828125 0)"/>
     <use xlink:href="#DejaVuSans-Oblique-41" transform="translate(1452.359375 0)"/>
     <use xlink:href="#DejaVuSans-Oblique-5e" transform="translate(1536.15625 0)"/>
     <use xlink:href="#DejaVuSans-Oblique-ba4" transform="translate(1599.78125 0)"/>
     <use xlink:href="#DejaVuSans-Oblique-56" transform="translate(1683.578125 0)"/>
     <use xlink:href="#DejaVuSans-Oblique-b" transform="translate(1735.671875 0)"/>
     <use xlink:href="#DejaVuSans-Oblique-33" transform="translate(1774.6875 0)"/>
     <use xlink:href="#DejaVuSans-Oblique-ba4" transform="translate(1834.984375 0)"/>
     <use xlink:href="#DejaVuSans-Oblique-33" transform="translate(1918.78125 0)"/>
     <use xlink:href="#DejaVuSans-Oblique-42" transform="translate(1979.078125 0)"/>
     <use xlink:href="#DejaVuSans-Oblique-24" transform="translate(2029.078125 0)"/>
     <use xlink:href="#DejaVuSans-Oblique-48" transform="translate(2097.484375 0)"/>
     <use xlink:href="#DejaVuSans-Oblique-37" transform="translate(2159.015625 0)"/>
     <use xlink:href="#DejaVuSans-Oblique-c" transform="translate(2220.09375 0)"/>
     <use xlink:href="#DejaVuSans-Oblique-60" transform="translate(2259.109375 0)"/>
     <use xlink:href="#DejaVuSans-Oblique-c" transform="translate(2322.734375 0)"/>
    </g>
   </g>
   <g id="text_20">
    <!-- (a)  Power → DFA-α1 map -->
    <g style="fill: #0b0b0b" transform="translate(97.157148 16.698047) scale(0.125 -0.125)">
     <defs>
      <path id="DejaVuSans-Bold-b" d="M 2413 -844 
L 1484 -844 
Q 1006 -72 778 623 
Q 550 1319 550 2003 
Q 550 2688 779 3389 
Q 1009 4091 1484 4856 
L 2413 4856 
Q 2013 4116 1813 3408 
Q 1613 2700 1613 2009 
Q 1613 1319 1811 609 
Q 2009 -100 2413 -844 
z
" transform="scale(0.015625)"/>
      <path id="DejaVuSans-Bold-44" d="M 2106 1575 
Q 1756 1575 1579 1456 
Q 1403 1338 1403 1106 
Q 1403 894 1545 773 
Q 1688 653 1941 653 
Q 2256 653 2472 879 
Q 2688 1106 2688 1447 
L 2688 1575 
L 2106 1575 
z
M 3816 1997 
L 3816 0 
L 2688 0 
L 2688 519 
Q 2463 200 2181 54 
Q 1900 -91 1497 -91 
Q 953 -91 614 226 
Q 275 544 275 1050 
Q 275 1666 698 1953 
Q 1122 2241 2028 2241 
L 2688 2241 
L 2688 2328 
Q 2688 2594 2478 2717 
Q 2269 2841 1825 2841 
Q 1466 2841 1156 2769 
Q 847 2697 581 2553 
L 581 3406 
Q 941 3494 1303 3539 
Q 1666 3584 2028 3584 
Q 2975 3584 3395 3211 
Q 3816 2838 3816 1997 
z
" transform="scale(0.015625)"/>
      <path id="DejaVuSans-Bold-c" d="M 513 -844 
Q 913 -100 1113 609 
Q 1313 1319 1313 2009 
Q 1313 2700 1113 3408 
Q 913 4116 513 4856 
L 1441 4856 
Q 1916 4091 2145 3389 
Q 2375 2688 2375 2003 
Q 2375 1319 2147 623 
Q 1919 -72 1441 -844 
L 513 -844 
z
" transform="scale(0.015625)"/>
      <path id="DejaVuSans-Bold-3" transform="scale(0.015625)"/>
      <path id="DejaVuSans-Bold-33" d="M 588 4666 
L 2584 4666 
Q 3475 4666 3951 4270 
Q 4428 3875 4428 3144 
Q 4428 2409 3951 2014 
Q 3475 1619 2584 1619 
L 1791 1619 
L 1791 0 
L 588 0 
L 588 4666 
z
M 1791 3794 
L 1791 2491 
L 2456 2491 
Q 2806 2491 2997 2661 
Q 3188 2831 3188 3144 
Q 3188 3456 2997 3625 
Q 2806 3794 2456 3794 
L 1791 3794 
z
" transform="scale(0.015625)"/>
      <path id="DejaVuSans-Bold-52" d="M 2203 2784 
Q 1831 2784 1636 2517 
Q 1441 2250 1441 1747 
Q 1441 1244 1636 976 
Q 1831 709 2203 709 
Q 2569 709 2762 976 
Q 2956 1244 2956 1747 
Q 2956 2250 2762 2517 
Q 2569 2784 2203 2784 
z
M 2203 3584 
Q 3106 3584 3614 3096 
Q 4122 2609 4122 1747 
Q 4122 884 3614 396 
Q 3106 -91 2203 -91 
Q 1297 -91 786 396 
Q 275 884 275 1747 
Q 275 2609 786 3096 
Q 1297 3584 2203 3584 
z
" transform="scale(0.015625)"/>
      <path id="DejaVuSans-Bold-5a" d="M 225 3500 
L 1313 3500 
L 1900 1088 
L 2491 3500 
L 3425 3500 
L 4013 1113 
L 4603 3500 
L 5691 3500 
L 4769 0 
L 3547 0 
L 2956 2406 
L 2369 0 
L 1147 0 
L 225 3500 
z
" transform="scale(0.015625)"/>
      <path id="DejaVuSans-Bold-48" d="M 4031 1759 
L 4031 1441 
L 1416 1441 
Q 1456 1047 1700 850 
Q 1944 653 2381 653 
Q 2734 653 3104 758 
Q 3475 863 3866 1075 
L 3866 213 
Q 3469 63 3072 -14 
Q 2675 -91 2278 -91 
Q 1328 -91 801 392 
Q 275 875 275 1747 
Q 275 2603 792 3093 
Q 1309 3584 2216 3584 
Q 3041 3584 3536 3087 
Q 4031 2591 4031 1759 
z
M 2881 2131 
Q 2881 2450 2695 2645 
Q 2509 2841 2209 2841 
Q 1884 2841 1681 2658 
Q 1478 2475 1428 2131 
L 2881 2131 
z
" transform="scale(0.015625)"/>
      <path id="DejaVuSans-Bold-55" d="M 3138 2547 
Q 2991 2616 2845 2648 
Q 2700 2681 2553 2681 
Q 2122 2681 1889 2404 
Q 1656 2128 1656 1613 
L 1656 0 
L 538 0 
L 538 3500 
L 1656 3500 
L 1656 2925 
Q 1872 3269 2151 3426 
Q 2431 3584 2822 3584 
Q 2878 3584 2943 3579 
Q 3009 3575 3134 3559 
L 3138 2547 
z
" transform="scale(0.015625)"/>
      <path id="DejaVuSans-Bold-c1c" d="M 5050 2225 
L 5050 1788 
L 3822 559 
L 3369 1013 
L 3988 1631 
L 366 1631 
L 366 2381 
L 3988 2381 
L 3369 3000 
L 3822 3453 
L 5050 2225 
z
" transform="scale(0.015625)"/>
      <path id="DejaVuSans-Bold-27" d="M 1791 3756 
L 1791 909 
L 2222 909 
Q 2959 909 3348 1275 
Q 3738 1641 3738 2338 
Q 3738 3031 3350 3393 
Q 2963 3756 2222 3756 
L 1791 3756 
z
M 588 4666 
L 1856 4666 
Q 2919 4666 3439 4514 
Q 3959 4363 4331 4000 
Q 4659 3684 4818 3271 
Q 4978 2859 4978 2338 
Q 4978 1809 4818 1395 
Q 4659 981 4331 666 
Q 3956 303 3431 151 
Q 2906 0 1856 0 
L 588 0 
L 588 4666 
z
" transform="scale(0.015625)"/>
      <path id="DejaVuSans-Bold-29" d="M 588 4666 
L 3834 4666 
L 3834 3756 
L 1791 3756 
L 1791 2888 
L 3713 2888 
L 3713 1978 
L 1791 1978 
L 1791 0 
L 588 0 
L 588 4666 
z
" transform="scale(0.015625)"/>
      <path id="DejaVuSans-Bold-24" d="M 3419 850 
L 1538 850 
L 1241 0 
L 31 0 
L 1759 4666 
L 3194 4666 
L 4922 0 
L 3713 0 
L 3419 850 
z
M 1838 1716 
L 3116 1716 
L 2478 3572 
L 1838 1716 
z
" transform="scale(0.015625)"/>
      <path id="DejaVuSans-Bold-10" d="M 347 2297 
L 2309 2297 
L 2309 1388 
L 347 1388 
L 347 2297 
z
" transform="scale(0.015625)"/>
      <path id="DejaVuSans-Bold-345" d="M 3006 3163 
L 3119 3500 
L 4088 3500 
L 3484 1697 
L 3569 1219 
Q 3659 703 3872 703 
L 4128 703 
L 4128 0 
L 3809 0 
Q 3313 0 3059 263 
Q 3003 322 2988 353 
Q 2838 163 2689 39 
Q 2541 -84 1763 -78 
Q 988 -72 648 400 
Q 309 872 309 1794 
Q 309 2713 663 3088 
Q 1109 3569 1966 3578 
Q 2688 3588 3006 3163 
z
M 2575 1841 
L 2481 2350 
Q 2394 2825 1981 2828 
Q 1772 2828 1598 2558 
Q 1425 2288 1425 1741 
Q 1425 1191 1581 944 
Q 1738 697 1969 691 
Q 2213 684 2363 1163 
L 2575 1841 
z
" transform="scale(0.015625)"/>
      <path id="DejaVuSans-Bold-14" d="M 750 831 
L 1813 831 
L 1813 3847 
L 722 3622 
L 722 4441 
L 1806 4666 
L 2950 4666 
L 2950 831 
L 4013 831 
L 4013 0 
L 750 0 
L 750 831 
z
" transform="scale(0.015625)"/>
      <path id="DejaVuSans-Bold-50" d="M 3781 2919 
Q 3994 3244 4286 3414 
Q 4578 3584 4928 3584 
Q 5531 3584 5847 3212 
Q 6163 2841 6163 2131 
L 6163 0 
L 5038 0 
L 5038 1825 
Q 5041 1866 5042 1909 
Q 5044 1953 5044 2034 
Q 5044 2406 4934 2573 
Q 4825 2741 4581 2741 
Q 4263 2741 4089 2478 
Q 3916 2216 3909 1719 
L 3909 0 
L 2784 0 
L 2784 1825 
Q 2784 2406 2684 2573 
Q 2584 2741 2328 2741 
Q 2006 2741 1831 2477 
Q 1656 2213 1656 1722 
L 1656 0 
L 531 0 
L 531 3500 
L 1656 3500 
L 1656 2988 
Q 1863 3284 2130 3434 
Q 2397 3584 2719 3584 
Q 3081 3584 3359 3409 
Q 3638 3234 3781 2919 
z
" transform="scale(0.015625)"/>
      <path id="DejaVuSans-Bold-53" d="M 1656 506 
L 1656 -1331 
L 538 -1331 
L 538 3500 
L 1656 3500 
L 1656 2988 
Q 1888 3294 2169 3439 
Q 2450 3584 2816 3584 
Q 3463 3584 3878 3070 
Q 4294 2556 4294 1747 
Q 4294 938 3878 423 
Q 3463 -91 2816 -91 
Q 2450 -91 2169 54 
Q 1888 200 1656 506 
z
M 2400 2772 
Q 2041 2772 1848 2508 
Q 1656 2244 1656 1747 
Q 1656 1250 1848 986 
Q 2041 722 2400 722 
Q 2759 722 2948 984 
Q 3138 1247 3138 1747 
Q 3138 2247 2948 2509 
Q 2759 2772 2400 2772 
z
" transform="scale(0.015625)"/>
     </defs>
     <use xlink:href="#DejaVuSans-Bold-b"/>
     <use xlink:href="#DejaVuSans-Bold-44" transform="translate(45.703125 0)"/>
     <use xlink:href="#DejaVuSans-Bold-c" transform="translate(113.1875 0)"/>
     <use xlink:href="#DejaVuSans-Bold-3" transform="translate(158.890625 0)"/>
     <use xlink:href="#DejaVuSans-Bold-3" transform="translate(193.703125 0)"/>
     <use xlink:href="#DejaVuSans-Bold-33" transform="translate(228.515625 0)"/>
     <use xlink:href="#DejaVuSans-Bold-52" transform="translate(301.8125 0)"/>
     <use xlink:href="#DejaVuSans-Bold-5a" transform="translate(370.515625 0)"/>
     <use xlink:href="#DejaVuSans-Bold-48" transform="translate(462.90625 0)"/>
     <use xlink:href="#DejaVuSans-Bold-55" transform="translate(530.734375 0)"/>
     <use xlink:href="#DejaVuSans-Bold-3" transform="translate(580.046875 0)"/>
     <use xlink:href="#DejaVuSans-Bold-c1c" transform="translate(614.859375 0)"/>
     <use xlink:href="#DejaVuSans-Bold-3" transform="translate(698.65625 0)"/>
     <use xlink:href="#DejaVuSans-Bold-27" transform="translate(733.46875 0)"/>
     <use xlink:href="#DejaVuSans-Bold-29" transform="translate(816.484375 0)"/>
     <use xlink:href="#DejaVuSans-Bold-24" transform="translate(873.328125 0)"/>
     <use xlink:href="#DejaVuSans-Bold-10" transform="translate(950.71875 0)"/>
     <use xlink:href="#DejaVuSans-Bold-345" transform="translate(992.21875 0)"/>
     <use xlink:href="#DejaVuSans-Bold-14" transform="translate(1060.921875 0)"/>
     <use xlink:href="#DejaVuSans-Bold-3" transform="translate(1130.5 0)"/>
     <use xlink:href="#DejaVuSans-Bold-50" transform="translate(1165.3125 0)"/>
     <use xlink:href="#DejaVuSans-Bold-44" transform="translate(1269.515625 0)"/>
     <use xlink:href="#DejaVuSans-Bold-53" transform="translate(1337 0)"/>
    </g>
   </g>
  </g>
  <g id="axes_2">
   <g id="patch_5">
    <path d="M 393.828281 206.942657 
L 674.418281 206.942657 
L 674.418281 22.698047 
L 393.828281 22.698047 
z
" style="fill: #ffffff"/>
   </g>
   <g id="matplotlib.axis_3">
    <g id="xtick_7">
     <g id="line2d_31">
      <path d="M 406.582372 206.942657 
L 406.582372 22.698047 
" clip-path="url(#p57e8ac68e2)" style="fill: none; stroke: #e1e0d9; stroke-width: 0.8; stroke-linecap: square"/>
     </g>
     <g id="line2d_32">
      <g>
       <use xlink:href="#ma6fc547883" x="406.582372" y="206.942657" style="fill: #898781; stroke: #898781; stroke-width: 0.8"/>
      </g>
     </g>
     <g id="text_21">
      <!-- 0 -->
      <g style="fill: #898781" transform="translate(403.24206 221.420196) scale(0.105 -0.105)">
       <use xlink:href="#DejaVuSans-13"/>
      </g>
     </g>
    </g>
    <g id="xtick_8">
     <g id="line2d_33">
      <path d="M 443.550752 206.942657 
L 443.550752 22.698047 
" clip-path="url(#p57e8ac68e2)" style="fill: none; stroke: #e1e0d9; stroke-width: 0.8; stroke-linecap: square"/>
     </g>
     <g id="line2d_34">
      <g>
       <use xlink:href="#ma6fc547883" x="443.550752" y="206.942657" style="fill: #898781; stroke: #898781; stroke-width: 0.8"/>
      </g>
     </g>
     <g id="text_22">
      <!-- 2 -->
      <g style="fill: #898781" transform="translate(440.210439 221.420196) scale(0.105 -0.105)">
       <use xlink:href="#DejaVuSans-15"/>
      </g>
     </g>
    </g>
    <g id="xtick_9">
     <g id="line2d_35">
      <path d="M 480.519131 206.942657 
L 480.519131 22.698047 
" clip-path="url(#p57e8ac68e2)" style="fill: none; stroke: #e1e0d9; stroke-width: 0.8; stroke-linecap: square"/>
     </g>
     <g id="line2d_36">
      <g>
       <use xlink:href="#ma6fc547883" x="480.519131" y="206.942657" style="fill: #898781; stroke: #898781; stroke-width: 0.8"/>
      </g>
     </g>
     <g id="text_23">
      <!-- 4 -->
      <g style="fill: #898781" transform="translate(477.178819 221.420196) scale(0.105 -0.105)">
       <use xlink:href="#DejaVuSans-17"/>
      </g>
     </g>
    </g>
    <g id="xtick_10">
     <g id="line2d_37">
      <path d="M 517.48751 206.942657 
L 517.48751 22.698047 
" clip-path="url(#p57e8ac68e2)" style="fill: none; stroke: #e1e0d9; stroke-width: 0.8; stroke-linecap: square"/>
     </g>
     <g id="line2d_38">
      <g>
       <use xlink:href="#ma6fc547883" x="517.48751" y="206.942657" style="fill: #898781; stroke: #898781; stroke-width: 0.8"/>
      </g>
     </g>
     <g id="text_24">
      <!-- 6 -->
      <g style="fill: #898781" transform="translate(514.147198 221.420196) scale(0.105 -0.105)">
       <use xlink:href="#DejaVuSans-19"/>
      </g>
     </g>
    </g>
    <g id="xtick_11">
     <g id="line2d_39">
      <path d="M 554.45589 206.942657 
L 554.45589 22.698047 
" clip-path="url(#p57e8ac68e2)" style="fill: none; stroke: #e1e0d9; stroke-width: 0.8; stroke-linecap: square"/>
     </g>
     <g id="line2d_40">
      <g>
       <use xlink:href="#ma6fc547883" x="554.45589" y="206.942657" style="fill: #898781; stroke: #898781; stroke-width: 0.8"/>
      </g>
     </g>
     <g id="text_25">
      <!-- 8 -->
      <g style="fill: #898781" transform="translate(551.115577 221.420196) scale(0.105 -0.105)">
       <use xlink:href="#DejaVuSans-1b"/>
      </g>
     </g>
    </g>
    <g id="xtick_12">
     <g id="line2d_41">
      <path d="M 591.424269 206.942657 
L 591.424269 22.698047 
" clip-path="url(#p57e8ac68e2)" style="fill: none; stroke: #e1e0d9; stroke-width: 0.8; stroke-linecap: square"/>
     </g>
     <g id="line2d_42">
      <g>
       <use xlink:href="#ma6fc547883" x="591.424269" y="206.942657" style="fill: #898781; stroke: #898781; stroke-width: 0.8"/>
      </g>
     </g>
     <g id="text_26">
      <!-- 10 -->
      <g style="fill: #898781" transform="translate(584.743644 221.420196) scale(0.105 -0.105)">
       <use xlink:href="#DejaVuSans-14"/>
       <use xlink:href="#DejaVuSans-13" transform="translate(63.625 0)"/>
      </g>
     </g>
    </g>
    <g id="xtick_13">
     <g id="line2d_43">
      <path d="M 628.392649 206.942657 
L 628.392649 22.698047 
" clip-path="url(#p57e8ac68e2)" style="fill: none; stroke: #e1e0d9; stroke-width: 0.8; stroke-linecap: square"/>
     </g>
     <g id="line2d_44">
      <g>
       <use xlink:href="#ma6fc547883" x="628.392649" y="206.942657" style="fill: #898781; stroke: #898781; stroke-width: 0.8"/>
      </g>
     </g>
     <g id="text_27">
      <!-- 12 -->
      <g style="fill: #898781" transform="translate(621.712024 221.420196) scale(0.105 -0.105)">
       <use xlink:href="#DejaVuSans-14"/>
       <use xlink:href="#DejaVuSans-15" transform="translate(63.625 0)"/>
      </g>
     </g>
    </g>
    <g id="xtick_14">
     <g id="line2d_45">
      <path d="M 665.361028 206.942657 
L 665.361028 22.698047 
" clip-path="url(#p57e8ac68e2)" style="fill: none; stroke: #e1e0d9; stroke-width: 0.8; stroke-linecap: square"/>
     </g>
     <g id="line2d_46">
      <g>
       <use xlink:href="#ma6fc547883" x="665.361028" y="206.942657" style="fill: #898781; stroke: #898781; stroke-width: 0.8"/>
      </g>
     </g>
     <g id="text_28">
      <!-- 14 -->
      <g style="fill: #898781" transform="translate(658.680403 221.420196) scale(0.105 -0.105)">
       <use xlink:href="#DejaVuSans-14"/>
       <use xlink:href="#DejaVuSans-17" transform="translate(63.625 0)"/>
      </g>
     </g>
    </g>
    <g id="text_29">
     <!-- fatigue state  F  (bpm) -->
     <g style="fill: #52514e" transform="translate(475.113281 233.921016) scale(0.105 -0.105)">
      <defs>
       <path id="DejaVuSans-49" d="M 2375 4863 
L 2375 4384 
L 1825 4384 
Q 1516 4384 1395 4259 
Q 1275 4134 1275 3809 
L 1275 3500 
L 2222 3500 
L 2222 3053 
L 1275 3053 
L 1275 0 
L 697 0 
L 697 3053 
L 147 3053 
L 147 3500 
L 697 3500 
L 697 3744 
Q 697 4328 969 4595 
Q 1241 4863 1831 4863 
L 2375 4863 
z
" transform="scale(0.015625)"/>
       <path id="DejaVuSans-58" d="M 544 1381 
L 544 3500 
L 1119 3500 
L 1119 1403 
Q 1119 906 1312 657 
Q 1506 409 1894 409 
Q 2359 409 2629 706 
Q 2900 1003 2900 1516 
L 2900 3500 
L 3475 3500 
L 3475 0 
L 2900 0 
L 2900 538 
Q 2691 219 2414 64 
Q 2138 -91 1772 -91 
Q 1169 -91 856 284 
Q 544 659 544 1381 
z
M 1991 3584 
L 1991 3584 
z
" transform="scale(0.015625)"/>
       <path id="DejaVuSans-45" d="M 3116 1747 
Q 3116 2381 2855 2742 
Q 2594 3103 2138 3103 
Q 1681 3103 1420 2742 
Q 1159 2381 1159 1747 
Q 1159 1113 1420 752 
Q 1681 391 2138 391 
Q 2594 391 2855 752 
Q 3116 1113 3116 1747 
z
M 1159 2969 
Q 1341 3281 1617 3432 
Q 1894 3584 2278 3584 
Q 2916 3584 3314 3078 
Q 3713 2572 3713 1747 
Q 3713 922 3314 415 
Q 2916 -91 2278 -91 
Q 1894 -91 1617 61 
Q 1341 213 1159 525 
L 1159 0 
L 581 0 
L 581 4863 
L 1159 4863 
L 1159 2969 
z
" transform="scale(0.015625)"/>
       <path id="DejaVuSans-50" d="M 3328 2828 
Q 3544 3216 3844 3400 
Q 4144 3584 4550 3584 
Q 5097 3584 5394 3201 
Q 5691 2819 5691 2113 
L 5691 0 
L 5113 0 
L 5113 2094 
Q 5113 2597 4934 2840 
Q 4756 3084 4391 3084 
Q 3944 3084 3684 2787 
Q 3425 2491 3425 1978 
L 3425 0 
L 2847 0 
L 2847 2094 
Q 2847 2600 2669 2842 
Q 2491 3084 2119 3084 
Q 1678 3084 1418 2786 
Q 1159 2488 1159 1978 
L 1159 0 
L 581 0 
L 581 3500 
L 1159 3500 
L 1159 2956 
Q 1356 3278 1631 3431 
Q 1906 3584 2284 3584 
Q 2666 3584 2933 3390 
Q 3200 3197 3328 2828 
z
" transform="scale(0.015625)"/>
      </defs>
      <use xlink:href="#DejaVuSans-49"/>
      <use xlink:href="#DejaVuSans-44" transform="translate(35.203125 0)"/>
      <use xlink:href="#DejaVuSans-57" transform="translate(96.484375 0)"/>
      <use xlink:href="#DejaVuSans-4c" transform="translate(135.6875 0)"/>
      <use xlink:href="#DejaVuSans-4a" transform="translate(163.46875 0)"/>
      <use xlink:href="#DejaVuSans-58" transform="translate(226.953125 0)"/>
      <use xlink:href="#DejaVuSans-48" transform="translate(290.328125 0)"/>
      <use xlink:href="#DejaVuSans-3" transform="translate(351.859375 0)"/>
      <use xlink:href="#DejaVuSans-56" transform="translate(383.640625 0)"/>
      <use xlink:href="#DejaVuSans-57" transform="translate(435.734375 0)"/>
      <use xlink:href="#DejaVuSans-44" transform="translate(474.9375 0)"/>
      <use xlink:href="#DejaVuSans-57" transform="translate(536.21875 0)"/>
      <use xlink:href="#DejaVuSans-48" transform="translate(575.421875 0)"/>
      <use xlink:href="#DejaVuSans-3" transform="translate(636.953125 0)"/>
      <use xlink:href="#DejaVuSans-3" transform="translate(668.734375 0)"/>
      <use xlink:href="#DejaVuSans-29" transform="translate(700.515625 0)"/>
      <use xlink:href="#DejaVuSans-3" transform="translate(758.03125 0)"/>
      <use xlink:href="#DejaVuSans-3" transform="translate(789.8125 0)"/>
      <use xlink:href="#DejaVuSans-b" transform="translate(821.59375 0)"/>
      <use xlink:href="#DejaVuSans-45" transform="translate(860.609375 0)"/>
      <use xlink:href="#DejaVuSans-53" transform="translate(924.09375 0)"/>
      <use xlink:href="#DejaVuSans-50" transform="translate(987.578125 0)"/>
      <use xlink:href="#DejaVuSans-c" transform="translate(1084.984375 0)"/>
     </g>
    </g>
   </g>
   <g id="matplotlib.axis_4">
    <g id="ytick_8">
     <g id="line2d_47">
      <path d="M 393.828281 176.43 
L 674.418281 176.43 
" clip-path="url(#p57e8ac68e2)" style="fill: none; stroke: #e1e0d9; stroke-width: 0.8; stroke-linecap: square"/>
     </g>
     <g id="line2d_48">
      <g>
       <use xlink:href="#m9ca25852ac" x="393.828281" y="176.43" style="fill: #898781; stroke: #898781; stroke-width: 0.8"/>
      </g>
     </g>
     <g id="text_30">
      <!-- 0.55 -->
      <g style="fill: #898781" transform="translate(363.949375 180.41877) scale(0.105 -0.105)">
       <use xlink:href="#DejaVuSans-13"/>
       <use xlink:href="#DejaVuSans-11" transform="translate(63.625 0)"/>
       <use xlink:href="#DejaVuSans-18" transform="translate(95.40625 0)"/>
       <use xlink:href="#DejaVuSans-18" transform="translate(159.03125 0)"/>
      </g>
     </g>
    </g>
    <g id="ytick_9">
     <g id="line2d_49">
      <path d="M 393.828281 140.090701 
L 674.418281 140.090701 
" clip-path="url(#p57e8ac68e2)" style="fill: none; stroke: #e1e0d9; stroke-width: 0.8; stroke-linecap: square"/>
     </g>
     <g id="line2d_50">
      <g>
       <use xlink:href="#m9ca25852ac" x="393.828281" y="140.090701" style="fill: #898781; stroke: #898781; stroke-width: 0.8"/>
      </g>
     </g>
     <g id="text_31">
      <!-- 0.60 -->
      <g style="fill: #898781" transform="translate(363.949375 144.07947) scale(0.105 -0.105)">
       <use xlink:href="#DejaVuSans-13"/>
       <use xlink:href="#DejaVuSans-11" transform="translate(63.625 0)"/>
       <use xlink:href="#DejaVuSans-19" transform="translate(95.40625 0)"/>
       <use xlink:href="#DejaVuSans-13" transform="translate(159.03125 0)"/>
      </g>
     </g>
    </g>
    <g id="ytick_10">
     <g id="line2d_51">
      <path d="M 393.828281 103.751401 
L 674.418281 103.751401 
" clip-path="url(#p57e8ac68e2)" style="fill: none; stroke: #e1e0d9; stroke-width: 0.8; stroke-linecap: square"/>
     </g>
     <g id="line2d_52">
      <g>
       <use xlink:href="#m9ca25852ac" x="393.828281" y="103.751401" style="fill: #898781; stroke: #898781; stroke-width: 0.8"/>
      </g>
     </g>
     <g id="text_32">
      <!-- 0.65 -->
      <g style="fill: #898781" transform="translate(363.949375 107.740171) scale(0.105 -0.105)">
       <use xlink:href="#DejaVuSans-13"/>
       <use xlink:href="#DejaVuSans-11" transform="translate(63.625 0)"/>
       <use xlink:href="#DejaVuSans-19" transform="translate(95.40625 0)"/>
       <use xlink:href="#DejaVuSans-18" transform="translate(159.03125 0)"/>
      </g>
     </g>
    </g>
    <g id="ytick_11">
     <g id="line2d_53">
      <path d="M 393.828281 67.412101 
L 674.418281 67.412101 
" clip-path="url(#p57e8ac68e2)" style="fill: none; stroke: #e1e0d9; stroke-width: 0.8; stroke-linecap: square"/>
     </g>
     <g id="line2d_54">
      <g>
       <use xlink:href="#m9ca25852ac" x="393.828281" y="67.412101" style="fill: #898781; stroke: #898781; stroke-width: 0.8"/>
      </g>
     </g>
     <g id="text_33">
      <!-- 0.70 -->
      <g style="fill: #898781" transform="translate(363.949375 71.400871) scale(0.105 -0.105)">
       <use xlink:href="#DejaVuSans-13"/>
       <use xlink:href="#DejaVuSans-11" transform="translate(63.625 0)"/>
       <use xlink:href="#DejaVuSans-1a" transform="translate(95.40625 0)"/>
       <use xlink:href="#DejaVuSans-13" transform="translate(159.03125 0)"/>
      </g>
     </g>
    </g>
    <g id="ytick_12">
     <g id="line2d_55">
      <path d="M 393.828281 31.072802 
L 674.418281 31.072802 
" clip-path="url(#p57e8ac68e2)" style="fill: none; stroke: #e1e0d9; stroke-width: 0.8; stroke-linecap: square"/>
     </g>
     <g id="line2d_56">
      <g>
       <use xlink:href="#m9ca25852ac" x="393.828281" y="31.072802" style="fill: #898781; stroke: #898781; stroke-width: 0.8"/>
      </g>
     </g>
     <g id="text_34">
      <!-- 0.75 -->
      <g style="fill: #898781" transform="translate(363.949375 35.061571) scale(0.105 -0.105)">
       <use xlink:href="#DejaVuSans-13"/>
       <use xlink:href="#DejaVuSans-11" transform="translate(63.625 0)"/>
       <use xlink:href="#DejaVuSans-1a" transform="translate(95.40625 0)"/>
       <use xlink:href="#DejaVuSans-18" transform="translate(159.03125 0)"/>
      </g>
     </g>
    </g>
    <g id="text_35">
     <!-- DFA-α1 -->
     <g style="fill: #52514e" transform="translate(357.426914 133.571875) rotate(-90) scale(0.105 -0.105)">
      <use xlink:href="#DejaVuSans-27"/>
      <use xlink:href="#DejaVuSans-29" transform="translate(77 0)"/>
      <use xlink:href="#DejaVuSans-24" transform="translate(125.34375 0)"/>
      <use xlink:href="#DejaVuSans-10" transform="translate(191.546875 0)"/>
      <use xlink:href="#DejaVuSans-345" transform="translate(227.625 0)"/>
      <use xlink:href="#DejaVuSans-14" transform="translate(293.546875 0)"/>
     </g>
    </g>
   </g>
   <g id="line2d_57">
    <path d="M 393.828281 31.072802 
L 674.418281 31.072802 
" clip-path="url(#p57e8ac68e2)" style="fill: none; stroke-dasharray: 1,1.65; stroke-dashoffset: 0; stroke: #898781"/>
   </g>
   <g id="line2d_58">
    <path d="M 406.582372 31.072802 
L 661.66419 198.567902 
L 661.66419 198.567902 
" clip-path="url(#p57e8ac68e2)" style="fill: none; stroke: #2a78d6; stroke-width: 2.3; stroke-linecap: square"/>
   </g>
   <g id="patch_6">
    <path d="M 393.828281 206.942657 
L 393.828281 22.698047 
" style="fill: none; stroke: #c3c2b7; stroke-width: 0.9; stroke-linejoin: miter; stroke-linecap: square"/>
   </g>
   <g id="patch_7">
    <path d="M 393.828281 206.942657 
L 674.418281 206.942657 
" style="fill: none; stroke: #c3c2b7; stroke-width: 0.9; stroke-linejoin: miter; stroke-linecap: square"/>
   </g>
   <g id="text_36">
    <!-- baseline-for-power (fresh) -->
    <g style="fill: #898781" transform="translate(410.27921 26.712086) scale(0.08 -0.08)">
     <defs>
      <path id="DejaVuSans-4f" d="M 603 4863 
L 1178 4863 
L 1178 0 
L 603 0 
L 603 4863 
z
" transform="scale(0.015625)"/>
     </defs>
     <use xlink:href="#DejaVuSans-45"/>
     <use xlink:href="#DejaVuSans-44" transform="translate(63.484375 0)"/>
     <use xlink:href="#DejaVuSans-56" transform="translate(124.765625 0)"/>
     <use xlink:href="#DejaVuSans-48" transform="translate(176.859375 0)"/>
     <use xlink:href="#DejaVuSans-4f" transform="translate(238.390625 0)"/>
     <use xlink:href="#DejaVuSans-4c" transform="translate(266.171875 0)"/>
     <use xlink:href="#DejaVuSans-51" transform="translate(293.953125 0)"/>
     <use xlink:href="#DejaVuSans-48" transform="translate(357.328125 0)"/>
     <use xlink:href="#DejaVuSans-10" transform="translate(418.859375 0)"/>
     <use xlink:href="#DejaVuSans-49" transform="translate(454.9375 0)"/>
     <use xlink:href="#DejaVuSans-52" transform="translate(490.140625 0)"/>
     <use xlink:href="#DejaVuSans-55" transform="translate(551.328125 0)"/>
     <use xlink:href="#DejaVuSans-10" transform="translate(586.046875 0)"/>
     <use xlink:href="#DejaVuSans-53" transform="translate(622.125 0)"/>
     <use xlink:href="#DejaVuSans-52" transform="translate(685.609375 0)"/>
     <use xlink:href="#DejaVuSans-5a" transform="translate(746.796875 0)"/>
     <use xlink:href="#DejaVuSans-48" transform="translate(828.578125 0)"/>
     <use xlink:href="#DejaVuSans-55" transform="translate(890.109375 0)"/>
     <use xlink:href="#DejaVuSans-3" transform="translate(931.21875 0)"/>
     <use xlink:href="#DejaVuSans-b" transform="translate(963 0)"/>
     <use xlink:href="#DejaVuSans-49" transform="translate(1002.015625 0)"/>
     <use xlink:href="#DejaVuSans-55" transform="translate(1037.21875 0)"/>
     <use xlink:href="#DejaVuSans-48" transform="translate(1076.125 0)"/>
     <use xlink:href="#DejaVuSans-56" transform="translate(1137.65625 0)"/>
     <use xlink:href="#DejaVuSans-4b" transform="translate(1189.75 0)"/>
     <use xlink:href="#DejaVuSans-c" transform="translate(1253.125 0)"/>
    </g>
   </g>
   <g id="patch_8">
    <path d="M 552.607637 192.741113 
Q 580.722625 179.499209 607.62386 166.828972 
" style="fill: none; stroke: #898781; stroke-width: 1.2; stroke-linecap: round"/>
    <path d="M 603.823592 166.739743 
L 607.62386 166.828972 
L 605.272316 169.815649 
z
" style="fill: #898781; stroke: #898781; stroke-width: 1.2; stroke-linecap: round"/>
   </g>
   <g id="text_37">
    <!-- drift below baseline -->
    <g style="fill: #52514e" transform="translate(483.106918 202.901297) scale(0.085 -0.085)">
     <defs>
      <path id="DejaVuSans-47" d="M 2906 2969 
L 2906 4863 
L 3481 4863 
L 3481 0 
L 2906 0 
L 2906 525 
Q 2725 213 2448 61 
Q 2172 -91 1784 -91 
Q 1150 -91 751 415 
Q 353 922 353 1747 
Q 353 2572 751 3078 
Q 1150 3584 1784 3584 
Q 2172 3584 2448 3432 
Q 2725 3281 2906 2969 
z
M 947 1747 
Q 947 1113 1208 752 
Q 1469 391 1925 391 
Q 2381 391 2643 752 
Q 2906 1113 2906 1747 
Q 2906 2381 2643 2742 
Q 2381 3103 1925 3103 
Q 1469 3103 1208 2742 
Q 947 2381 947 1747 
z
" transform="scale(0.015625)"/>
     </defs>
     <use xlink:href="#DejaVuSans-47"/>
     <use xlink:href="#DejaVuSans-55" transform="translate(63.484375 0)"/>
     <use xlink:href="#DejaVuSans-4c" transform="translate(104.59375 0)"/>
     <use xlink:href="#DejaVuSans-49" transform="translate(132.375 0)"/>
     <use xlink:href="#DejaVuSans-57" transform="translate(165.828125 0)"/>
     <use xlink:href="#DejaVuSans-3" transform="translate(205.03125 0)"/>
     <use xlink:href="#DejaVuSans-45" transform="translate(236.8125 0)"/>
     <use xlink:href="#DejaVuSans-48" transform="translate(300.296875 0)"/>
     <use xlink:href="#DejaVuSans-4f" transform="translate(361.828125 0)"/>
     <use xlink:href="#DejaVuSans-52" transform="translate(389.609375 0)"/>
     <use xlink:href="#DejaVuSans-5a" transform="translate(450.796875 0)"/>
     <use xlink:href="#DejaVuSans-3" transform="translate(532.578125 0)"/>
     <use xlink:href="#DejaVuSans-45" transform="translate(564.359375 0)"/>
     <use xlink:href="#DejaVuSans-44" transform="translate(627.84375 0)"/>
     <use xlink:href="#DejaVuSans-56" transform="translate(689.125 0)"/>
     <use xlink:href="#DejaVuSans-48" transform="translate(741.21875 0)"/>
     <use xlink:href="#DejaVuSans-4f" transform="translate(802.75 0)"/>
     <use xlink:href="#DejaVuSans-4c" transform="translate(830.53125 0)"/>
     <use xlink:href="#DejaVuSans-51" transform="translate(858.3125 0)"/>
     <use xlink:href="#DejaVuSans-48" transform="translate(921.6875 0)"/>
    </g>
    <!-- = fatigue signal -->
    <g style="fill: #52514e" transform="translate(483.106918 213.103621) scale(0.085 -0.085)">
     <defs>
      <path id="DejaVuSans-20" d="M 678 2906 
L 4684 2906 
L 4684 2381 
L 678 2381 
L 678 2906 
z
M 678 1631 
L 4684 1631 
L 4684 1100 
L 678 1100 
L 678 1631 
z
" transform="scale(0.015625)"/>
     </defs>
     <use xlink:href="#DejaVuSans-20"/>
     <use xlink:href="#DejaVuSans-3" transform="translate(83.796875 0)"/>
     <use xlink:href="#DejaVuSans-49" transform="translate(115.578125 0)"/>
     <use xlink:href="#DejaVuSans-44" transform="translate(150.78125 0)"/>
     <use xlink:href="#DejaVuSans-57" transform="translate(212.0625 0)"/>
     <use xlink:href="#DejaVuSans-4c" transform="translate(251.265625 0)"/>
     <use xlink:href="#DejaVuSans-4a" transform="translate(279.046875 0)"/>
     <use xlink:href="#DejaVuSans-58" transform="translate(342.53125 0)"/>
     <use xlink:href="#DejaVuSans-48" transform="translate(405.90625 0)"/>
     <use xlink:href="#DejaVuSans-3" transform="translate(467.4375 0)"/>
     <use xlink:href="#DejaVuSans-56" transform="translate(499.21875 0)"/>
     <use xlink:href="#DejaVuSans-4c" transform="translate(551.3125 0)"/>
     <use xlink:href="#DejaVuSans-4a" transform="translate(579.09375 0)"/>
     <use xlink:href="#DejaVuSans-51" transform="translate(642.578125 0)"/>
     <use xlink:href="#DejaVuSans-44" transform="translate(705.953125 0)"/>
     <use xlink:href="#DejaVuSans-4f" transform="translate(767.234375 0)"/>
    </g>
   </g>
   <g id="text_38">
    <!-- α1 = A1_target(P) − c_F · F -->
    <g style="fill: #898781" transform="translate(402.245981 193.845988) scale(0.085 -0.085)">
     <defs>
      <path id="DejaVuSans-Oblique-345" d="M 2619 1628 
L 2622 2350 
Q 2625 3088 2069 3091 
Q 1653 3094 1394 2747 
Q 1069 2319 959 1747 
Q 825 1059 994 731 
Q 1169 397 1547 397 
Q 1966 397 2319 1063 
L 2619 1628 
z
M 2166 3578 
Q 3141 3594 3128 2584 
Q 3128 2584 3616 3500 
L 4128 3500 
L 3119 1603 
L 3109 919 
Q 3109 766 3194 638 
Q 3291 488 3391 488 
L 3669 488 
L 3575 0 
L 3228 0 
Q 2934 0 2722 263 
Q 2622 394 2619 669 
Q 2416 334 2066 50 
Q 1900 -81 1453 -78 
Q 722 -72 456 397 
Q 184 884 353 1747 
Q 534 2675 1009 3097 
Q 1544 3569 2166 3578 
z
" transform="scale(0.015625)"/>
      <path id="DejaVuSans-Oblique-46" d="M 3431 3366 
L 3316 2797 
Q 3109 2947 2876 3022 
Q 2644 3097 2394 3097 
Q 2119 3097 1870 3000 
Q 1622 2903 1453 2725 
Q 1184 2453 1037 2087 
Q 891 1722 891 1331 
Q 891 859 1127 628 
Q 1363 397 1844 397 
Q 2081 397 2348 469 
Q 2616 541 2906 684 
L 2797 116 
Q 2547 13 2283 -39 
Q 2019 -91 1741 -91 
Q 1044 -91 669 257 
Q 294 606 294 1253 
Q 294 1797 489 2255 
Q 684 2713 1069 3078 
Q 1331 3328 1684 3456 
Q 2038 3584 2456 3584 
Q 2700 3584 2940 3529 
Q 3181 3475 3431 3366 
z
" transform="scale(0.015625)"/>
      <path id="DejaVuSans-Oblique-29" d="M 1081 4666 
L 3756 4666 
L 3653 4134 
L 1606 4134 
L 1338 2759 
L 3188 2759 
L 3084 2228 
L 1234 2228 
L 800 0 
L 172 0 
L 1081 4666 
z
" transform="scale(0.015625)"/>
      <path id="DejaVuSans-Oblique-79" d="M 884 2619 
L 1544 2619 
L 1388 1825 
L 728 1825 
L 884 2619 
z
" transform="scale(0.015625)"/>
     </defs>
     <use xlink:href="#DejaVuSans-Oblique-345"/>
     <use xlink:href="#DejaVuSans-Oblique-14" transform="translate(65.921875 0)"/>
     <use xlink:href="#DejaVuSans-Oblique-3" transform="translate(129.546875 0)"/>
     <use xlink:href="#DejaVuSans-Oblique-20" transform="translate(161.328125 0)"/>
     <use xlink:href="#DejaVuSans-Oblique-3" transform="translate(245.125 0)"/>
     <use xlink:href="#DejaVuSans-Oblique-24" transform="translate(276.90625 0)"/>
     <use xlink:href="#DejaVuSans-Oblique-14" transform="translate(345.3125 0)"/>
     <use xlink:href="#DejaVuSans-Oblique-42" transform="translate(408.9375 0)"/>
     <use xlink:href="#DejaVuSans-Oblique-57" transform="translate(458.9375 0)"/>
     <use xlink:href="#DejaVuSans-Oblique-44" transform="translate(498.140625 0)"/>
     <use xlink:href="#DejaVuSans-Oblique-55" transform="translate(559.421875 0)"/>
     <use xlink:href="#DejaVuSans-Oblique-4a" transform="translate(600.53125 0)"/>
     <use xlink:href="#DejaVuSans-Oblique-48" transform="translate(664.015625 0)"/>
     <use xlink:href="#DejaVuSans-Oblique-57" transform="translate(725.546875 0)"/>
     <use xlink:href="#DejaVuSans-Oblique-b" transform="translate(764.75 0)"/>
     <use xlink:href="#DejaVuSans-Oblique-33" transform="translate(803.765625 0)"/>
     <use xlink:href="#DejaVuSans-Oblique-c" transform="translate(864.0625 0)"/>
     <use xlink:href="#DejaVuSans-Oblique-3" transform="translate(903.078125 0)"/>
     <use xlink:href="#DejaVuSans-Oblique-ba4" transform="translate(934.859375 0)"/>
     <use xlink:href="#DejaVuSans-Oblique-3" transform="translate(1018.65625 0)"/>
     <use xlink:href="#DejaVuSans-Oblique-46" transform="translate(1050.4375 0)"/>
     <use xlink:href="#DejaVuSans-Oblique-42" transform="translate(1105.421875 0)"/>
     <use xlink:href="#DejaVuSans-Oblique-29" transform="translate(1155.421875 0)"/>
     <use xlink:href="#DejaVuSans-Oblique-3" transform="translate(1212.9375 0)"/>
     <use xlink:href="#DejaVuSans-Oblique-79" transform="translate(1244.71875 0)"/>
     <use xlink:href="#DejaVuSans-Oblique-3" transform="translate(1276.5 0)"/>
     <use xlink:href="#DejaVuSans-Oblique-29" transform="translate(1308.28125 0)"/>
    </g>
   </g>
   <g id="patch_9">
    <path d="M 491.226441 262.216039 
Q 579.015243 262.216039 665.238798 262.216039 
" style="fill: none; stroke: #898781; stroke-width: 1.4; stroke-linecap: round"/>
    <path d="M 661.038798 260.116039 
L 665.238798 262.216039 
L 661.038798 264.316039 
z
" style="fill: #898781; stroke: #898781; stroke-width: 1.4; stroke-linecap: round"/>
   </g>
   <g id="text_39">
    <!-- increasing fatigue -->
    <g style="fill: #898781" transform="translate(540.749088 254.646709) scale(0.085 -0.085)">
     <defs>
      <path id="DejaVuSans-Oblique-4c" d="M 1172 4863 
L 1747 4863 
L 1606 4134 
L 1031 4134 
L 1172 4863 
z
M 909 3500 
L 1484 3500 
L 800 0 
L 225 0 
L 909 3500 
z
" transform="scale(0.015625)"/>
      <path id="DejaVuSans-Oblique-51" d="M 3566 2113 
L 3156 0 
L 2578 0 
L 2988 2091 
Q 3016 2238 3031 2350 
Q 3047 2463 3047 2528 
Q 3047 2791 2881 2937 
Q 2716 3084 2419 3084 
Q 1956 3084 1622 2776 
Q 1288 2469 1184 1941 
L 800 0 
L 225 0 
L 903 3500 
L 1478 3500 
L 1363 2950 
Q 1603 3253 1940 3418 
Q 2278 3584 2650 3584 
Q 3113 3584 3367 3334 
Q 3622 3084 3622 2631 
Q 3622 2519 3608 2391 
Q 3594 2263 3566 2113 
z
" transform="scale(0.015625)"/>
      <path id="DejaVuSans-Oblique-49" d="M 3059 4863 
L 2969 4384 
L 2419 4384 
Q 2106 4384 1964 4261 
Q 1822 4138 1753 3809 
L 1691 3500 
L 2638 3500 
L 2553 3053 
L 1606 3053 
L 1013 0 
L 434 0 
L 1031 3053 
L 481 3053 
L 563 3500 
L 1113 3500 
L 1159 3744 
Q 1278 4363 1576 4613 
Q 1875 4863 2516 4863 
L 3059 4863 
z
" transform="scale(0.015625)"/>
      <path id="DejaVuSans-Oblique-58" d="M 428 1388 
L 838 3500 
L 1416 3500 
L 1006 1409 
Q 975 1256 961 1147 
Q 947 1038 947 966 
Q 947 700 1109 554 
Q 1272 409 1569 409 
Q 2031 409 2368 721 
Q 2706 1034 2809 1563 
L 3194 3500 
L 3769 3500 
L 3091 0 
L 2516 0 
L 2631 550 
Q 2388 244 2052 76 
Q 1716 -91 1338 -91 
Q 878 -91 622 161 
Q 366 413 366 863 
Q 366 956 381 1097 
Q 397 1238 428 1388 
z
" transform="scale(0.015625)"/>
     </defs>
     <use xlink:href="#DejaVuSans-Oblique-4c"/>
     <use xlink:href="#DejaVuSans-Oblique-51" transform="translate(27.78125 0)"/>
     <use xlink:href="#DejaVuSans-Oblique-46" transform="translate(91.15625 0)"/>
     <use xlink:href="#DejaVuSans-Oblique-55" transform="translate(146.140625 0)"/>
     <use xlink:href="#DejaVuSans-Oblique-48" transform="translate(187.25 0)"/>
     <use xlink:href="#DejaVuSans-Oblique-44" transform="translate(248.78125 0)"/>
     <use xlink:href="#DejaVuSans-Oblique-56" transform="translate(310.0625 0)"/>
     <use xlink:href="#DejaVuSans-Oblique-4c" transform="translate(362.15625 0)"/>
     <use xlink:href="#DejaVuSans-Oblique-51" transform="translate(389.9375 0)"/>
     <use xlink:href="#DejaVuSans-Oblique-4a" transform="translate(453.3125 0)"/>
     <use xlink:href="#DejaVuSans-Oblique-3" transform="translate(516.796875 0)"/>
     <use xlink:href="#DejaVuSans-Oblique-49" transform="translate(548.578125 0)"/>
     <use xlink:href="#DejaVuSans-Oblique-44" transform="translate(583.78125 0)"/>
     <use xlink:href="#DejaVuSans-Oblique-57" transform="translate(645.0625 0)"/>
     <use xlink:href="#DejaVuSans-Oblique-4c" transform="translate(684.265625 0)"/>
     <use xlink:href="#DejaVuSans-Oblique-4a" transform="translate(712.046875 0)"/>
     <use xlink:href="#DejaVuSans-Oblique-58" transform="translate(775.53125 0)"/>
     <use xlink:href="#DejaVuSans-Oblique-48" transform="translate(838.90625 0)"/>
    </g>
   </g>
   <g id="text_40">
    <!-- (b)  α1 drift with fatigue (fixed power) -->
    <g style="fill: #0b0b0b" transform="translate(399.124258 16.698047) scale(0.125 -0.125)">
     <defs>
      <path id="DejaVuSans-Bold-45" d="M 2400 722 
Q 2759 722 2948 984 
Q 3138 1247 3138 1747 
Q 3138 2247 2948 2509 
Q 2759 2772 2400 2772 
Q 2041 2772 1848 2508 
Q 1656 2244 1656 1747 
Q 1656 1250 1848 986 
Q 2041 722 2400 722 
z
M 1656 2988 
Q 1888 3294 2169 3439 
Q 2450 3584 2816 3584 
Q 3463 3584 3878 3070 
Q 4294 2556 4294 1747 
Q 4294 938 3878 423 
Q 3463 -91 2816 -91 
Q 2450 -91 2169 54 
Q 1888 200 1656 506 
L 1656 0 
L 538 0 
L 538 4863 
L 1656 4863 
L 1656 2988 
z
" transform="scale(0.015625)"/>
      <path id="DejaVuSans-Bold-47" d="M 2919 2988 
L 2919 4863 
L 4044 4863 
L 4044 0 
L 2919 0 
L 2919 506 
Q 2688 197 2409 53 
Q 2131 -91 1766 -91 
Q 1119 -91 703 423 
Q 288 938 288 1747 
Q 288 2556 703 3070 
Q 1119 3584 1766 3584 
Q 2128 3584 2408 3439 
Q 2688 3294 2919 2988 
z
M 2181 722 
Q 2541 722 2730 984 
Q 2919 1247 2919 1747 
Q 2919 2247 2730 2509 
Q 2541 2772 2181 2772 
Q 1825 2772 1636 2509 
Q 1447 2247 1447 1747 
Q 1447 1247 1636 984 
Q 1825 722 2181 722 
z
" transform="scale(0.015625)"/>
      <path id="DejaVuSans-Bold-4c" d="M 538 3500 
L 1656 3500 
L 1656 0 
L 538 0 
L 538 3500 
z
M 538 4863 
L 1656 4863 
L 1656 3950 
L 538 3950 
L 538 4863 
z
" transform="scale(0.015625)"/>
      <path id="DejaVuSans-Bold-49" d="M 2841 4863 
L 2841 4128 
L 2222 4128 
Q 1984 4128 1890 4042 
Q 1797 3956 1797 3744 
L 1797 3500 
L 2753 3500 
L 2753 2700 
L 1797 2700 
L 1797 0 
L 678 0 
L 678 2700 
L 122 2700 
L 122 3500 
L 678 3500 
L 678 3744 
Q 678 4316 997 4589 
Q 1316 4863 1984 4863 
L 2841 4863 
z
" transform="scale(0.015625)"/>
      <path id="DejaVuSans-Bold-57" d="M 1759 4494 
L 1759 3500 
L 2913 3500 
L 2913 2700 
L 1759 2700 
L 1759 1216 
Q 1759 972 1856 886 
Q 1953 800 2241 800 
L 2816 800 
L 2816 0 
L 1856 0 
Q 1194 0 917 276 
Q 641 553 641 1216 
L 641 2700 
L 84 2700 
L 84 3500 
L 641 3500 
L 641 4494 
L 1759 4494 
z
" transform="scale(0.015625)"/>
      <path id="DejaVuSans-Bold-4b" d="M 4056 2131 
L 4056 0 
L 2931 0 
L 2931 347 
L 2931 1625 
Q 2931 2084 2911 2256 
Q 2891 2428 2841 2509 
Q 2775 2619 2662 2680 
Q 2550 2741 2406 2741 
Q 2056 2741 1856 2470 
Q 1656 2200 1656 1722 
L 1656 0 
L 538 0 
L 538 4863 
L 1656 4863 
L 1656 2988 
Q 1909 3294 2193 3439 
Q 2478 3584 2822 3584 
Q 3428 3584 3742 3212 
Q 4056 2841 4056 2131 
z
" transform="scale(0.015625)"/>
      <path id="DejaVuSans-Bold-4a" d="M 2919 594 
Q 2688 288 2409 144 
Q 2131 0 1766 0 
Q 1125 0 706 504 
Q 288 1009 288 1791 
Q 288 2575 706 3076 
Q 1125 3578 1766 3578 
Q 2131 3578 2409 3434 
Q 2688 3291 2919 2981 
L 2919 3500 
L 4044 3500 
L 4044 353 
Q 4044 -491 3511 -936 
Q 2978 -1381 1966 -1381 
Q 1638 -1381 1331 -1331 
Q 1025 -1281 716 -1178 
L 716 -306 
Q 1009 -475 1290 -558 
Q 1572 -641 1856 -641 
Q 2406 -641 2662 -400 
Q 2919 -159 2919 353 
L 2919 594 
z
M 2181 2772 
Q 1834 2772 1640 2515 
Q 1447 2259 1447 1791 
Q 1447 1309 1634 1061 
Q 1822 813 2181 813 
Q 2531 813 2725 1069 
Q 2919 1325 2919 1791 
Q 2919 2259 2725 2515 
Q 2531 2772 2181 2772 
z
" transform="scale(0.015625)"/>
      <path id="DejaVuSans-Bold-58" d="M 500 1363 
L 500 3500 
L 1625 3500 
L 1625 3150 
Q 1625 2866 1622 2436 
Q 1619 2006 1619 1863 
Q 1619 1441 1641 1255 
Q 1663 1069 1716 984 
Q 1784 875 1895 815 
Q 2006 756 2150 756 
Q 2500 756 2700 1025 
Q 2900 1294 2900 1772 
L 2900 3500 
L 4019 3500 
L 4019 0 
L 2900 0 
L 2900 506 
Q 2647 200 2364 54 
Q 2081 -91 1741 -91 
Q 1134 -91 817 281 
Q 500 653 500 1363 
z
" transform="scale(0.015625)"/>
      <path id="DejaVuSans-Bold-13ab" d="M 3078 4863 
L 4206 4863 
L 4206 3950 
L 3078 3950 
L 3078 4863 
z
M 2847 4863 
L 2847 4128 
L 2228 4128 
Q 1994 4128 1903 4042 
Q 1813 3956 1813 3744 
L 1813 3500 
L 4206 3500 
L 4206 0 
L 3078 0 
L 3078 2700 
L 1813 2700 
L 1813 0 
L 684 0 
L 684 2700 
L 134 2700 
L 134 3500 
L 684 3500 
L 684 3744 
Q 684 4316 1003 4589 
Q 1322 4863 1991 4863 
L 2847 4863 
z
" transform="scale(0.015625)"/>
      <path id="DejaVuSans-Bold-5b" d="M 1422 1791 
L 159 3500 
L 1344 3500 
L 2059 2463 
L 2784 3500 
L 3969 3500 
L 2706 1797 
L 4031 0 
L 2847 0 
L 2059 1106 
L 1281 0 
L 97 0 
L 1422 1791 
z
" transform="scale(0.015625)"/>
     </defs>
     <use xlink:href="#DejaVuSans-Bold-b"/>
     <use xlink:href="#DejaVuSans-Bold-45" transform="translate(45.703125 0)"/>
     <use xlink:href="#DejaVuSans-Bold-c" transform="translate(117.28125 0)"/>
     <use xlink:href="#DejaVuSans-Bold-3" transform="translate(162.984375 0)"/>
     <use xlink:href="#DejaVuSans-Bold-3" transform="translate(197.796875 0)"/>
     <use xlink:href="#DejaVuSans-Bold-345" transform="translate(232.609375 0)"/>
     <use xlink:href="#DejaVuSans-Bold-14" transform="translate(301.3125 0)"/>
     <use xlink:href="#DejaVuSans-Bold-3" transform="translate(370.890625 0)"/>
     <use xlink:href="#DejaVuSans-Bold-47" transform="translate(405.703125 0)"/>
     <use xlink:href="#DejaVuSans-Bold-55" transform="translate(477.28125 0)"/>
     <use xlink:href="#DejaVuSans-Bold-4c" transform="translate(526.59375 0)"/>
     <use xlink:href="#DejaVuSans-Bold-49" transform="translate(560.875 0)"/>
     <use xlink:href="#DejaVuSans-Bold-57" transform="translate(604.375 0)"/>
     <use xlink:href="#DejaVuSans-Bold-3" transform="translate(652.171875 0)"/>
     <use xlink:href="#DejaVuSans-Bold-5a" transform="translate(686.984375 0)"/>
     <use xlink:href="#DejaVuSans-Bold-4c" transform="translate(779.375 0)"/>
     <use xlink:href="#DejaVuSans-Bold-57" transform="translate(813.65625 0)"/>
     <use xlink:href="#DejaVuSans-Bold-4b" transform="translate(861.453125 0)"/>
     <use xlink:href="#DejaVuSans-Bold-3" transform="translate(932.640625 0)"/>
     <use xlink:href="#DejaVuSans-Bold-49" transform="translate(967.453125 0)"/>
     <use xlink:href="#DejaVuSans-Bold-44" transform="translate(1010.953125 0)"/>
     <use xlink:href="#DejaVuSans-Bold-57" transform="translate(1078.4375 0)"/>
     <use xlink:href="#DejaVuSans-Bold-4c" transform="translate(1126.234375 0)"/>
     <use xlink:href="#DejaVuSans-Bold-4a" transform="translate(1160.515625 0)"/>
     <use xlink:href="#DejaVuSans-Bold-58" transform="translate(1232.09375 0)"/>
     <use xlink:href="#DejaVuSans-Bold-48" transform="translate(1303.28125 0)"/>
     <use xlink:href="#DejaVuSans-Bold-3" transform="translate(1371.109375 0)"/>
     <use xlink:href="#DejaVuSans-Bold-b" transform="translate(1405.921875 0)"/>
     <use xlink:href="#DejaVuSans-Bold-13ab" transform="translate(1451.625 0)"/>
     <use xlink:href="#DejaVuSans-Bold-5b" transform="translate(1525.75 0)"/>
     <use xlink:href="#DejaVuSans-Bold-48" transform="translate(1590.25 0)"/>
     <use xlink:href="#DejaVuSans-Bold-47" transform="translate(1658.078125 0)"/>
     <use xlink:href="#DejaVuSans-Bold-3" transform="translate(1729.65625 0)"/>
     <use xlink:href="#DejaVuSans-Bold-53" transform="translate(1764.46875 0)"/>
     <use xlink:href="#DejaVuSans-Bold-52" transform="translate(1836.046875 0)"/>
     <use xlink:href="#DejaVuSans-Bold-5a" transform="translate(1904.75 0)"/>
     <use xlink:href="#DejaVuSans-Bold-48" transform="translate(1997.140625 0)"/>
     <use xlink:href="#DejaVuSans-Bold-55" transform="translate(2064.96875 0)"/>
     <use xlink:href="#DejaVuSans-Bold-c" transform="translate(2114.28125 0)"/>
    </g>
   </g>
  </g>
 </g>
 <defs>
  <clipPath id="p3b66dfddc1">
   <rect x="44.898281" y="22.698047" width="280.59" height="184.24461"/>
  </clipPath>
  <clipPath id="p57e8ac68e2">
   <rect x="393.828281" y="22.698047" width="280.59" height="184.24461"/>
  </clipPath>
 </defs>
</svg>
