<?xml version="1.0" encoding="utf-8" standalone="no"?>
<!DOCTYPE svg PUBLIC "-//W3C//DTD SVG 1.1//EN"
  "http://www.w3.org/Graphics/SVG/1.1/DTD/svg11.dtd">
<svg xmlns:xlink="http://www.w3.org/1999/xlink" width="435.780352pt" height="249.402776pt" viewBox="0 0 435.780352 249.402776" xmlns="http://www.w3.org/2000/svg" version="1.1">
 <metadata>
  <rdf:RDF xmlns:dc="http://purl.org/dc/elements/1.1/" xmlns:cc="http://creativecommons.org/ns#" xmlns:rdf="http://www.w3.org/1999/02/22-rdf-syntax-ns#">
   <cc:Work>
    <dc:type rdf:resource="http://purl.org/dc/dcmitype/StillImage"/>
    <dc:date>2026-07-13T13:43:49.465813</dc:date>
    <dc:format>image/svg+xml</dc:format>
    <dc:creator>
     <cc:Agent>
      <dc:title>Matplotlib v3.11.0, https://matplotlib.org/</dc:title>
     </cc:Agent>
    </dc:creator>
   </cc:Work>
  </rdf:RDF>
 </metadata>
 <defs>
  <style type="text/css">*{stroke-linejoin: round; stroke-linecap: butt}</style>
 </defs>
 <g id="figure_1">
  <g id="patch_1">
   <path d="M 0 249.402776 
L 435.780352 249.402776 
L 435.780352 0 
L 0 0 
z
" style="fill: #ffffff"/>
  </g>
  <g id="axes_1">
   <g id="patch_2">
    <path d="M 58.260352 195.536417 
L 428.580352 195.536417 
L 428.580352 22.698047 
L 58.260352 22.698047 
z
" style="fill: #ffffff"/>
   </g>
   <g id="matplotlib.axis_1">
    <g id="xtick_1">
     <g id="line2d_1">
      <path d="M 75.093079 195.536417 
L 75.093079 22.698047 
" clip-path="url(#p65e421a88d)" style="fill: none; stroke: #e1e0d9; stroke-width: 0.8; stroke-linecap: square"/>
     </g>
     <g id="line2d_2">
      <defs>
       <path id="m0586ca9a00" d="M 0 0 
L 0 3 
" style="stroke: #898781; stroke-width: 0.8"/>
      </defs>
      <g>
       <use xlink:href="#m0586ca9a00" x="75.093079" y="195.536417" style="fill: #898781; stroke: #898781; stroke-width: 0.8"/>
      </g>
     </g>
     <g id="text_1">
      <!-- 0 -->
      <g style="fill: #898781" transform="translate(71.752766 210.013956) scale(0.105 -0.105)">
       <defs>
        <path id="DejaVuSans-13" d="M 2034 4250 
Q 1547 4250 1301 3770 
Q 1056 3291 1056 2328 
Q 1056 1369 1301 889 
Q 1547 409 2034 409 
Q 2525 409 2770 889 
Q 3016 1369 3016 2328 
Q 3016 3291 2770 3770 
Q 2525 4250 2034 4250 
z
M 2034 4750 
Q 2819 4750 3233 4129 
Q 3647 3509 3647 2328 
Q 3647 1150 3233 529 
Q 2819 -91 2034 -91 
Q 1250 -91 836 529 
Q 422 1150 422 2328 
Q 422 3509 836 4129 
Q 1250 4750 2034 4750 
z
" transform="scale(0.015625)"/>
       </defs>
       <use xlink:href="#DejaVuSans-13"/>
      </g>
     </g>
    </g>
    <g id="xtick_2">
     <g id="line2d_3">
      <path d="M 123.883593 195.536417 
L 123.883593 22.698047 
" clip-path="url(#p65e421a88d)" style="fill: none; stroke: #e1e0d9; stroke-width: 0.8; stroke-linecap: square"/>
     </g>
     <g id="line2d_4">
      <g>
       <use xlink:href="#m0586ca9a00" x="123.883593" y="195.536417" style="fill: #898781; stroke: #898781; stroke-width: 0.8"/>
      </g>
     </g>
     <g id="text_2">
      <!-- 2 -->
      <g style="fill: #898781" transform="translate(120.54328 210.013956) scale(0.105 -0.105)">
       <defs>
        <path id="DejaVuSans-15" d="M 1228 531 
L 3431 531 
L 3431 0 
L 469 0 
L 469 531 
Q 828 903 1448 1529 
Q 2069 2156 2228 2338 
Q 2531 2678 2651 2914 
Q 2772 3150 2772 3378 
Q 2772 3750 2511 3984 
Q 2250 4219 1831 4219 
Q 1534 4219 1204 4116 
Q 875 4013 500 3803 
L 500 4441 
Q 881 4594 1212 4672 
Q 1544 4750 1819 4750 
Q 2544 4750 2975 4387 
Q 3406 4025 3406 3419 
Q 3406 3131 3298 2873 
Q 3191 2616 2906 2266 
Q 2828 2175 2409 1742 
Q 1991 1309 1228 531 
z
" transform="scale(0.015625)"/>
       </defs>
       <use xlink:href="#DejaVuSans-15"/>
      </g>
     </g>
    </g>
    <g id="xtick_3">
     <g id="line2d_5">
      <path d="M 172.674107 195.536417 
L 172.674107 22.698047 
" clip-path="url(#p65e421a88d)" style="fill: none; stroke: #e1e0d9; stroke-width: 0.8; stroke-linecap: square"/>
     </g>
     <g id="line2d_6">
      <g>
       <use xlink:href="#m0586ca9a00" x="172.674107" y="195.536417" style="fill: #898781; stroke: #898781; stroke-width: 0.8"/>
      </g>
     </g>
     <g id="text_3">
      <!-- 4 -->
      <g style="fill: #898781" transform="translate(169.333794 210.013956) scale(0.105 -0.105)">
       <defs>
        <path id="DejaVuSans-17" d="M 2419 4116 
L 825 1625 
L 2419 1625 
L 2419 4116 
z
M 2253 4666 
L 3047 4666 
L 3047 1625 
L 3713 1625 
L 3713 1100 
L 3047 1100 
L 3047 0 
L 2419 0 
L 2419 1100 
L 313 1100 
L 313 1709 
L 2253 4666 
z
" transform="scale(0.015625)"/>
       </defs>
       <use xlink:href="#DejaVuSans-17"/>
      </g>
     </g>
    </g>
    <g id="xtick_4">
     <g id="line2d_7">
      <path d="M 221.46462 195.536417 
L 221.46462 22.698047 
" clip-path="url(#p65e421a88d)" style="fill: none; stroke: #e1e0d9; stroke-width: 0.8; stroke-linecap: square"/>
     </g>
     <g id="line2d_8">
      <g>
       <use xlink:href="#m0586ca9a00" x="221.46462" y="195.536417" style="fill: #898781; stroke: #898781; stroke-width: 0.8"/>
      </g>
     </g>
     <g id="text_4">
      <!-- 6 -->
      <g style="fill: #898781" transform="translate(218.124308 210.013956) scale(0.105 -0.105)">
       <defs>
        <path id="DejaVuSans-19" d="M 2113 2584 
Q 1688 2584 1439 2293 
Q 1191 2003 1191 1497 
Q 1191 994 1439 701 
Q 1688 409 2113 409 
Q 2538 409 2786 701 
Q 3034 994 3034 1497 
Q 3034 2003 2786 2293 
Q 2538 2584 2113 2584 
z
M 3366 4563 
L 3366 3988 
Q 3128 4100 2886 4159 
Q 2644 4219 2406 4219 
Q 1781 4219 1451 3797 
Q 1122 3375 1075 2522 
Q 1259 2794 1537 2939 
Q 1816 3084 2150 3084 
Q 2853 3084 3261 2657 
Q 3669 2231 3669 1497 
Q 3669 778 3244 343 
Q 2819 -91 2113 -91 
Q 1303 -91 875 529 
Q 447 1150 447 2328 
Q 447 3434 972 4092 
Q 1497 4750 2381 4750 
Q 2619 4750 2861 4703 
Q 3103 4656 3366 4563 
z
" transform="scale(0.015625)"/>
       </defs>
       <use xlink:href="#DejaVuSans-19"/>
      </g>
     </g>
    </g>
    <g id="xtick_5">
     <g id="line2d_9">
      <path d="M 270.255134 195.536417 
L 270.255134 22.698047 
" clip-path="url(#p65e421a88d)" style="fill: none; stroke: #e1e0d9; stroke-width: 0.8; stroke-linecap: square"/>
     </g>
     <g id="line2d_10">
      <g>
       <use xlink:href="#m0586ca9a00" x="270.255134" y="195.536417" style="fill: #898781; stroke: #898781; stroke-width: 0.8"/>
      </g>
     </g>
     <g id="text_5">
      <!-- 8 -->
      <g style="fill: #898781" transform="translate(266.914822 210.013956) scale(0.105 -0.105)">
       <defs>
        <path id="DejaVuSans-1b" d="M 2034 2216 
Q 1584 2216 1326 1975 
Q 1069 1734 1069 1313 
Q 1069 891 1326 650 
Q 1584 409 2034 409 
Q 2484 409 2743 651 
Q 3003 894 3003 1313 
Q 3003 1734 2745 1975 
Q 2488 2216 2034 2216 
z
M 1403 2484 
Q 997 2584 770 2862 
Q 544 3141 544 3541 
Q 544 4100 942 4425 
Q 1341 4750 2034 4750 
Q 2731 4750 3128 4425 
Q 3525 4100 3525 3541 
Q 3525 3141 3298 2862 
Q 3072 2584 2669 2484 
Q 3125 2378 3379 2068 
Q 3634 1759 3634 1313 
Q 3634 634 3220 271 
Q 2806 -91 2034 -91 
Q 1263 -91 848 271 
Q 434 634 434 1313 
Q 434 1759 690 2068 
Q 947 2378 1403 2484 
z
M 1172 3481 
Q 1172 3119 1398 2916 
Q 1625 2713 2034 2713 
Q 2441 2713 2670 2916 
Q 2900 3119 2900 3481 
Q 2900 3844 2670 4047 
Q 2441 4250 2034 4250 
Q 1625 4250 1398 4047 
Q 1172 3844 1172 3481 
z
" transform="scale(0.015625)"/>
       </defs>
       <use xlink:href="#DejaVuSans-1b"/>
      </g>
     </g>
    </g>
    <g id="xtick_6">
     <g id="line2d_11">
      <path d="M 319.045648 195.536417 
L 319.045648 22.698047 
" clip-path="url(#p65e421a88d)" style="fill: none; stroke: #e1e0d9; stroke-width: 0.8; stroke-linecap: square"/>
     </g>
     <g id="line2d_12">
      <g>
       <use xlink:href="#m0586ca9a00" x="319.045648" y="195.536417" style="fill: #898781; stroke: #898781; stroke-width: 0.8"/>
      </g>
     </g>
     <g id="text_6">
      <!-- 10 -->
      <g style="fill: #898781" transform="translate(312.365023 210.013956) scale(0.105 -0.105)">
       <defs>
        <path id="DejaVuSans-14" d="M 794 531 
L 1825 531 
L 1825 4091 
L 703 3866 
L 703 4441 
L 1819 4666 
L 2450 4666 
L 2450 531 
L 3481 531 
L 3481 0 
L 794 0 
L 794 531 
z
" transform="scale(0.015625)"/>
       </defs>
       <use xlink:href="#DejaVuSans-14"/>
       <use xlink:href="#DejaVuSans-13" transform="translate(63.625 0)"/>
      </g>
     </g>
    </g>
    <g id="xtick_7">
     <g id="line2d_13">
      <path d="M 367.836162 195.536417 
L 367.836162 22.698047 
" clip-path="url(#p65e421a88d)" style="fill: none; stroke: #e1e0d9; stroke-width: 0.8; stroke-linecap: square"/>
     </g>
     <g id="line2d_14">
      <g>
       <use xlink:href="#m0586ca9a00" x="367.836162" y="195.536417" style="fill: #898781; stroke: #898781; stroke-width: 0.8"/>
      </g>
     </g>
     <g id="text_7">
      <!-- 12 -->
      <g style="fill: #898781" transform="translate(361.155537 210.013956) scale(0.105 -0.105)">
       <use xlink:href="#DejaVuSans-14"/>
       <use xlink:href="#DejaVuSans-15" transform="translate(63.625 0)"/>
      </g>
     </g>
    </g>
    <g id="xtick_8">
     <g id="line2d_15">
      <path d="M 416.626676 195.536417 
L 416.626676 22.698047 
" clip-path="url(#p65e421a88d)" style="fill: none; stroke: #e1e0d9; stroke-width: 0.8; stroke-linecap: square"/>
     </g>
     <g id="line2d_16">
      <g>
       <use xlink:href="#m0586ca9a00" x="416.626676" y="195.536417" style="fill: #898781; stroke: #898781; stroke-width: 0.8"/>
      </g>
     </g>
     <g id="text_8">
      <!-- 14 -->
      <g style="fill: #898781" transform="translate(409.946051 210.013956) scale(0.105 -0.105)">
       <use xlink:href="#DejaVuSans-14"/>
       <use xlink:href="#DejaVuSans-17" transform="translate(63.625 0)"/>
      </g>
     </g>
    </g>
    <g id="text_9">
     <!-- fatigue state  F  (bpm) -->
     <g style="fill: #52514e" transform="translate(184.410352 222.514776) scale(0.105 -0.105)">
      <defs>
       <path id="DejaVuSans-49" d="M 2375 4863 
L 2375 4384 
L 1825 4384 
Q 1516 4384 1395 4259 
Q 1275 4134 1275 3809 
L 1275 3500 
L 2222 3500 
L 2222 3053 
L 1275 3053 
L 1275 0 
L 697 0 
L 697 3053 
L 147 3053 
L 147 3500 
L 697 3500 
L 697 3744 
Q 697 4328 969 4595 
Q 1241 4863 1831 4863 
L 2375 4863 
z
" transform="scale(0.015625)"/>
       <path id="DejaVuSans-44" d="M 2194 1759 
Q 1497 1759 1228 1600 
Q 959 1441 959 1056 
Q 959 750 1161 570 
Q 1363 391 1709 391 
Q 2188 391 2477 730 
Q 2766 1069 2766 1631 
L 2766 1759 
L 2194 1759 
z
M 3341 1997 
L 3341 0 
L 2766 0 
L 2766 531 
Q 2569 213 2275 61 
Q 1981 -91 1556 -91 
Q 1019 -91 701 211 
Q 384 513 384 1019 
Q 384 1609 779 1909 
Q 1175 2209 1959 2209 
L 2766 2209 
L 2766 2266 
Q 2766 2663 2505 2880 
Q 2244 3097 1772 3097 
Q 1472 3097 1187 3025 
Q 903 2953 641 2809 
L 641 3341 
Q 956 3463 1253 3523 
Q 1550 3584 1831 3584 
Q 2591 3584 2966 3190 
Q 3341 2797 3341 1997 
z
" transform="scale(0.015625)"/>
       <path id="DejaVuSans-57" d="M 1172 4494 
L 1172 3500 
L 2356 3500 
L 2356 3053 
L 1172 3053 
L 1172 1153 
Q 1172 725 1289 603 
Q 1406 481 1766 481 
L 2356 481 
L 2356 0 
L 1766 0 
Q 1100 0 847 248 
Q 594 497 594 1153 
L 594 3053 
L 172 3053 
L 172 3500 
L 594 3500 
L 594 4494 
L 1172 4494 
z
" transform="scale(0.015625)"/>
       <path id="DejaVuSans-4c" d="M 603 3500 
L 1178 3500 
L 1178 0 
L 603 0 
L 603 3500 
z
M 603 4863 
L 1178 4863 
L 1178 4134 
L 603 4134 
L 603 4863 
z
" transform="scale(0.015625)"/>
       <path id="DejaVuSans-4a" d="M 2906 1791 
Q 2906 2416 2648 2759 
Q 2391 3103 1925 3103 
Q 1463 3103 1205 2759 
Q 947 2416 947 1791 
Q 947 1169 1205 825 
Q 1463 481 1925 481 
Q 2391 481 2648 825 
Q 2906 1169 2906 1791 
z
M 3481 434 
Q 3481 -459 3084 -895 
Q 2688 -1331 1869 -1331 
Q 1566 -1331 1297 -1286 
Q 1028 -1241 775 -1147 
L 775 -588 
Q 1028 -725 1275 -790 
Q 1522 -856 1778 -856 
Q 2344 -856 2625 -561 
Q 2906 -266 2906 331 
L 2906 616 
Q 2728 306 2450 153 
Q 2172 0 1784 0 
Q 1141 0 747 490 
Q 353 981 353 1791 
Q 353 2603 747 3093 
Q 1141 3584 1784 3584 
Q 2172 3584 2450 3431 
Q 2728 3278 2906 2969 
L 2906 3500 
L 3481 3500 
L 3481 434 
z
" transform="scale(0.015625)"/>
       <path id="DejaVuSans-58" d="M 544 1381 
L 544 3500 
L 1119 3500 
L 1119 1403 
Q 1119 906 1312 657 
Q 1506 409 1894 409 
Q 2359 409 2629 706 
Q 2900 1003 2900 1516 
L 2900 3500 
L 3475 3500 
L 3475 0 
L 2900 0 
L 2900 538 
Q 2691 219 2414 64 
Q 2138 -91 1772 -91 
Q 1169 -91 856 284 
Q 544 659 544 1381 
z
M 1991 3584 
L 1991 3584 
z
" transform="scale(0.015625)"/>
       <path id="DejaVuSans-48" d="M 3597 1894 
L 3597 1613 
L 953 1613 
Q 991 1019 1311 708 
Q 1631 397 2203 397 
Q 2534 397 2845 478 
Q 3156 559 3463 722 
L 3463 178 
Q 3153 47 2828 -22 
Q 2503 -91 2169 -91 
Q 1331 -91 842 396 
Q 353 884 353 1716 
Q 353 2575 817 3079 
Q 1281 3584 2069 3584 
Q 2775 3584 3186 3129 
Q 3597 2675 3597 1894 
z
M 3022 2063 
Q 3016 2534 2758 2815 
Q 2500 3097 2075 3097 
Q 1594 3097 1305 2825 
Q 1016 2553 972 2059 
L 3022 2063 
z
" transform="scale(0.015625)"/>
       <path id="DejaVuSans-3" transform="scale(0.015625)"/>
       <path id="DejaVuSans-56" d="M 2834 3397 
L 2834 2853 
Q 2591 2978 2328 3040 
Q 2066 3103 1784 3103 
Q 1356 3103 1142 2972 
Q 928 2841 928 2578 
Q 928 2378 1081 2264 
Q 1234 2150 1697 2047 
L 1894 2003 
Q 2506 1872 2764 1633 
Q 3022 1394 3022 966 
Q 3022 478 2636 193 
Q 2250 -91 1575 -91 
Q 1294 -91 989 -36 
Q 684 19 347 128 
L 347 722 
Q 666 556 975 473 
Q 1284 391 1588 391 
Q 1994 391 2212 530 
Q 2431 669 2431 922 
Q 2431 1156 2273 1281 
Q 2116 1406 1581 1522 
L 1381 1569 
Q 847 1681 609 1914 
Q 372 2147 372 2553 
Q 372 3047 722 3315 
Q 1072 3584 1716 3584 
Q 2034 3584 2315 3537 
Q 2597 3491 2834 3397 
z
" transform="scale(0.015625)"/>
       <path id="DejaVuSans-29" d="M 628 4666 
L 3309 4666 
L 3309 4134 
L 1259 4134 
L 1259 2759 
L 3109 2759 
L 3109 2228 
L 1259 2228 
L 1259 0 
L 628 0 
L 628 4666 
z
" transform="scale(0.015625)"/>
       <path id="DejaVuSans-b" d="M 1984 4856 
Q 1566 4138 1362 3434 
Q 1159 2731 1159 2009 
Q 1159 1288 1364 580 
Q 1569 -128 1984 -844 
L 1484 -844 
Q 1016 -109 783 600 
Q 550 1309 550 2009 
Q 550 2706 781 3412 
Q 1013 4119 1484 4856 
L 1984 4856 
z
" transform="scale(0.015625)"/>
       <path id="DejaVuSans-45" d="M 3116 1747 
Q 3116 2381 2855 2742 
Q 2594 3103 2138 3103 
Q 1681 3103 1420 2742 
Q 1159 2381 1159 1747 
Q 1159 1113 1420 752 
Q 1681 391 2138 391 
Q 2594 391 2855 752 
Q 3116 1113 3116 1747 
z
M 1159 2969 
Q 1341 3281 1617 3432 
Q 1894 3584 2278 3584 
Q 2916 3584 3314 3078 
Q 3713 2572 3713 1747 
Q 3713 922 3314 415 
Q 2916 -91 2278 -91 
Q 1894 -91 1617 61 
Q 1341 213 1159 525 
L 1159 0 
L 581 0 
L 581 4863 
L 1159 4863 
L 1159 2969 
z
" transform="scale(0.015625)"/>
       <path id="DejaVuSans-53" d="M 1159 525 
L 1159 -1331 
L 581 -1331 
L 581 3500 
L 1159 3500 
L 1159 2969 
Q 1341 3281 1617 3432 
Q 1894 3584 2278 3584 
Q 2916 3584 3314 3078 
Q 3713 2572 3713 1747 
Q 3713 922 3314 415 
Q 2916 -91 2278 -91 
Q 1894 -91 1617 61 
Q 1341 213 1159 525 
z
M 3116 1747 
Q 3116 2381 2855 2742 
Q 2594 3103 2138 3103 
Q 1681 3103 1420 2742 
Q 1159 2381 1159 1747 
Q 1159 1113 1420 752 
Q 1681 391 2138 391 
Q 2594 391 2855 752 
Q 3116 1113 3116 1747 
z
" transform="scale(0.015625)"/>
       <path id="DejaVuSans-50" d="M 3328 2828 
Q 3544 3216 3844 3400 
Q 4144 3584 4550 3584 
Q 5097 3584 5394 3201 
Q 5691 2819 5691 2113 
L 5691 0 
L 5113 0 
L 5113 2094 
Q 5113 2597 4934 2840 
Q 4756 3084 4391 3084 
Q 3944 3084 3684 2787 
Q 3425 2491 3425 1978 
L 3425 0 
L 2847 0 
L 2847 2094 
Q 2847 2600 2669 2842 
Q 2491 3084 2119 3084 
Q 1678 3084 1418 2786 
Q 1159 2488 1159 1978 
L 1159 0 
L 581 0 
L 581 3500 
L 1159 3500 
L 1159 2956 
Q 1356 3278 1631 3431 
Q 1906 3584 2284 3584 
Q 2666 3584 2933 3390 
Q 3200 3197 3328 2828 
z
" transform="scale(0.015625)"/>
       <path id="DejaVuSans-c" d="M 513 4856 
L 1013 4856 
Q 1481 4119 1714 3412 
Q 1947 2706 1947 2009 
Q 1947 1309 1714 600 
Q 1481 -109 1013 -844 
L 513 -844 
Q 928 -128 1133 580 
Q 1338 1288 1338 2009 
Q 1338 2731 1133 3434 
Q 928 4138 513 4856 
z
" transform="scale(0.015625)"/>
      </defs>
      <use xlink:href="#DejaVuSans-49"/>
      <use xlink:href="#DejaVuSans-44" transform="translate(35.203125 0)"/>
      <use xlink:href="#DejaVuSans-57" transform="translate(96.484375 0)"/>
      <use xlink:href="#DejaVuSans-4c" transform="translate(135.6875 0)"/>
      <use xlink:href="#DejaVuSans-4a" transform="translate(163.46875 0)"/>
      <use xlink:href="#DejaVuSans-58" transform="translate(226.953125 0)"/>
      <use xlink:href="#DejaVuSans-48" transform="translate(290.328125 0)"/>
      <use xlink:href="#DejaVuSans-3" transform="translate(351.859375 0)"/>
      <use xlink:href="#DejaVuSans-56" transform="translate(383.640625 0)"/>
      <use xlink:href="#DejaVuSans-57" transform="translate(435.734375 0)"/>
      <use xlink:href="#DejaVuSans-44" transform="translate(474.9375 0)"/>
      <use xlink:href="#DejaVuSans-57" transform="translate(536.21875 0)"/>
      <use xlink:href="#DejaVuSans-48" transform="translate(575.421875 0)"/>
      <use xlink:href="#DejaVuSans-3" transform="translate(636.953125 0)"/>
      <use xlink:href="#DejaVuSans-3" transform="translate(668.734375 0)"/>
      <use xlink:href="#DejaVuSans-29" transform="translate(700.515625 0)"/>
      <use xlink:href="#DejaVuSans-3" transform="translate(758.03125 0)"/>
      <use xlink:href="#DejaVuSans-3" transform="translate(789.8125 0)"/>
      <use xlink:href="#DejaVuSans-b" transform="translate(821.59375 0)"/>
      <use xlink:href="#DejaVuSans-45" transform="translate(860.609375 0)"/>
      <use xlink:href="#DejaVuSans-53" transform="translate(924.09375 0)"/>
      <use xlink:href="#DejaVuSans-50" transform="translate(987.578125 0)"/>
      <use xlink:href="#DejaVuSans-c" transform="translate(1084.984375 0)"/>
     </g>
    </g>
   </g>
   <g id="matplotlib.axis_2">
    <g id="ytick_1">
     <g id="line2d_17">
      <path d="M 58.260352 184.911107 
L 428.580352 184.911107 
" clip-path="url(#p65e421a88d)" style="fill: none; stroke: #e1e0d9; stroke-width: 0.8; stroke-linecap: square"/>
     </g>
     <g id="line2d_18">
      <defs>
       <path id="mcaaf9f0c5b" d="M 0 0 
L -3 0 
" style="stroke: #898781; stroke-width: 0.8"/>
      </defs>
      <g>
       <use xlink:href="#mcaaf9f0c5b" x="58.260352" y="184.911107" style="fill: #898781; stroke: #898781; stroke-width: 0.8"/>
      </g>
     </g>
     <g id="text_10">
      <!-- 132.5 -->
      <g style="fill: #898781" transform="translate(21.70082 188.899876) scale(0.105 -0.105)">
       <defs>
        <path id="DejaVuSans-16" d="M 2597 2516 
Q 3050 2419 3304 2112 
Q 3559 1806 3559 1356 
Q 3559 666 3084 287 
Q 2609 -91 1734 -91 
Q 1441 -91 1130 -33 
Q 819 25 488 141 
L 488 750 
Q 750 597 1062 519 
Q 1375 441 1716 441 
Q 2309 441 2620 675 
Q 2931 909 2931 1356 
Q 2931 1769 2642 2001 
Q 2353 2234 1838 2234 
L 1294 2234 
L 1294 2753 
L 1863 2753 
Q 2328 2753 2575 2939 
Q 2822 3125 2822 3475 
Q 2822 3834 2567 4026 
Q 2313 4219 1838 4219 
Q 1578 4219 1281 4162 
Q 984 4106 628 3988 
L 628 4550 
Q 988 4650 1302 4700 
Q 1616 4750 1894 4750 
Q 2613 4750 3031 4423 
Q 3450 4097 3450 3541 
Q 3450 3153 3228 2886 
Q 3006 2619 2597 2516 
z
" transform="scale(0.015625)"/>
        <path id="DejaVuSans-11" d="M 684 794 
L 1344 794 
L 1344 0 
L 684 0 
L 684 794 
z
" transform="scale(0.015625)"/>
        <path id="DejaVuSans-18" d="M 691 4666 
L 3169 4666 
L 3169 4134 
L 1269 4134 
L 1269 2991 
Q 1406 3038 1543 3061 
Q 1681 3084 1819 3084 
Q 2600 3084 3056 2656 
Q 3513 2228 3513 1497 
Q 3513 744 3044 326 
Q 2575 -91 1722 -91 
Q 1428 -91 1123 -41 
Q 819 9 494 109 
L 494 744 
Q 775 591 1075 516 
Q 1375 441 1709 441 
Q 2250 441 2565 725 
Q 2881 1009 2881 1497 
Q 2881 1984 2565 2268 
Q 2250 2553 1709 2553 
Q 1456 2553 1204 2497 
Q 953 2441 691 2322 
L 691 4666 
z
" transform="scale(0.015625)"/>
       </defs>
       <use xlink:href="#DejaVuSans-14"/>
       <use xlink:href="#DejaVuSans-16" transform="translate(63.625 0)"/>
       <use xlink:href="#DejaVuSans-15" transform="translate(127.25 0)"/>
       <use xlink:href="#DejaVuSans-11" transform="translate(190.875 0)"/>
       <use xlink:href="#DejaVuSans-18" transform="translate(222.65625 0)"/>
      </g>
     </g>
    </g>
    <g id="ytick_2">
     <g id="line2d_19">
      <path d="M 58.260352 161.299308 
L 428.580352 161.299308 
" clip-path="url(#p65e421a88d)" style="fill: none; stroke: #e1e0d9; stroke-width: 0.8; stroke-linecap: square"/>
     </g>
     <g id="line2d_20">
      <g>
       <use xlink:href="#mcaaf9f0c5b" x="58.260352" y="161.299308" style="fill: #898781; stroke: #898781; stroke-width: 0.8"/>
      </g>
     </g>
     <g id="text_11">
      <!-- 135.0 -->
      <g style="fill: #898781" transform="translate(21.70082 165.288077) scale(0.105 -0.105)">
       <use xlink:href="#DejaVuSans-14"/>
       <use xlink:href="#DejaVuSans-16" transform="translate(63.625 0)"/>
       <use xlink:href="#DejaVuSans-18" transform="translate(127.25 0)"/>
       <use xlink:href="#DejaVuSans-11" transform="translate(190.875 0)"/>
       <use xlink:href="#DejaVuSans-13" transform="translate(222.65625 0)"/>
      </g>
     </g>
    </g>
    <g id="ytick_3">
     <g id="line2d_21">
      <path d="M 58.260352 137.687509 
L 428.580352 137.687509 
" clip-path="url(#p65e421a88d)" style="fill: none; stroke: #e1e0d9; stroke-width: 0.8; stroke-linecap: square"/>
     </g>
     <g id="line2d_22">
      <g>
       <use xlink:href="#mcaaf9f0c5b" x="58.260352" y="137.687509" style="fill: #898781; stroke: #898781; stroke-width: 0.8"/>
      </g>
     </g>
     <g id="text_12">
      <!-- 137.5 -->
      <g style="fill: #898781" transform="translate(21.70082 141.676278) scale(0.105 -0.105)">
       <defs>
        <path id="DejaVuSans-1a" d="M 525 4666 
L 3525 4666 
L 3525 4397 
L 1831 0 
L 1172 0 
L 2766 4134 
L 525 4134 
L 525 4666 
z
" transform="scale(0.015625)"/>
       </defs>
       <use xlink:href="#DejaVuSans-14"/>
       <use xlink:href="#DejaVuSans-16" transform="translate(63.625 0)"/>
       <use xlink:href="#DejaVuSans-1a" transform="translate(127.25 0)"/>
       <use xlink:href="#DejaVuSans-11" transform="translate(190.875 0)"/>
       <use xlink:href="#DejaVuSans-18" transform="translate(222.65625 0)"/>
      </g>
     </g>
    </g>
    <g id="ytick_4">
     <g id="line2d_23">
      <path d="M 58.260352 114.07571 
L 428.580352 114.07571 
" clip-path="url(#p65e421a88d)" style="fill: none; stroke: #e1e0d9; stroke-width: 0.8; stroke-linecap: square"/>
     </g>
     <g id="line2d_24">
      <g>
       <use xlink:href="#mcaaf9f0c5b" x="58.260352" y="114.07571" style="fill: #898781; stroke: #898781; stroke-width: 0.8"/>
      </g>
     </g>
     <g id="text_13">
      <!-- 140.0 -->
      <g style="fill: #898781" transform="translate(21.70082 118.064479) scale(0.105 -0.105)">
       <use xlink:href="#DejaVuSans-14"/>
       <use xlink:href="#DejaVuSans-17" transform="translate(63.625 0)"/>
       <use xlink:href="#DejaVuSans-13" transform="translate(127.25 0)"/>
       <use xlink:href="#DejaVuSans-11" transform="translate(190.875 0)"/>
       <use xlink:href="#DejaVuSans-13" transform="translate(222.65625 0)"/>
      </g>
     </g>
    </g>
    <g id="ytick_5">
     <g id="line2d_25">
      <path d="M 58.260352 90.46391 
L 428.580352 90.46391 
" clip-path="url(#p65e421a88d)" style="fill: none; stroke: #e1e0d9; stroke-width: 0.8; stroke-linecap: square"/>
     </g>
     <g id="line2d_26">
      <g>
       <use xlink:href="#mcaaf9f0c5b" x="58.260352" y="90.46391" style="fill: #898781; stroke: #898781; stroke-width: 0.8"/>
      </g>
     </g>
     <g id="text_14">
      <!-- 142.5 -->
      <g style="fill: #898781" transform="translate(21.70082 94.45268) scale(0.105 -0.105)">
       <use xlink:href="#DejaVuSans-14"/>
       <use xlink:href="#DejaVuSans-17" transform="translate(63.625 0)"/>
       <use xlink:href="#DejaVuSans-15" transform="translate(127.25 0)"/>
       <use xlink:href="#DejaVuSans-11" transform="translate(190.875 0)"/>
       <use xlink:href="#DejaVuSans-18" transform="translate(222.65625 0)"/>
      </g>
     </g>
    </g>
    <g id="ytick_6">
     <g id="line2d_27">
      <path d="M 58.260352 66.852111 
L 428.580352 66.852111 
" clip-path="url(#p65e421a88d)" style="fill: none; stroke: #e1e0d9; stroke-width: 0.8; stroke-linecap: square"/>
     </g>
     <g id="line2d_28">
      <g>
       <use xlink:href="#mcaaf9f0c5b" x="58.260352" y="66.852111" style="fill: #898781; stroke: #898781; stroke-width: 0.8"/>
      </g>
     </g>
     <g id="text_15">
      <!-- 145.0 -->
      <g style="fill: #898781" transform="translate(21.70082 70.840881) scale(0.105 -0.105)">
       <use xlink:href="#DejaVuSans-14"/>
       <use xlink:href="#DejaVuSans-17" transform="translate(63.625 0)"/>
       <use xlink:href="#DejaVuSans-18" transform="translate(127.25 0)"/>
       <use xlink:href="#DejaVuSans-11" transform="translate(190.875 0)"/>
       <use xlink:href="#DejaVuSans-13" transform="translate(222.65625 0)"/>
      </g>
     </g>
    </g>
    <g id="ytick_7">
     <g id="line2d_29">
      <path d="M 58.260352 43.240312 
L 428.580352 43.240312 
" clip-path="url(#p65e421a88d)" style="fill: none; stroke: #e1e0d9; stroke-width: 0.8; stroke-linecap: square"/>
     </g>
     <g id="line2d_30">
      <g>
       <use xlink:href="#mcaaf9f0c5b" x="58.260352" y="43.240312" style="fill: #898781; stroke: #898781; stroke-width: 0.8"/>
      </g>
     </g>
     <g id="text_16">
      <!-- 147.5 -->
      <g style="fill: #898781" transform="translate(21.70082 47.229082) scale(0.105 -0.105)">
       <use xlink:href="#DejaVuSans-14"/>
       <use xlink:href="#DejaVuSans-17" transform="translate(63.625 0)"/>
       <use xlink:href="#DejaVuSans-1a" transform="translate(127.25 0)"/>
       <use xlink:href="#DejaVuSans-11" transform="translate(190.875 0)"/>
       <use xlink:href="#DejaVuSans-18" transform="translate(222.65625 0)"/>
      </g>
     </g>
    </g>
    <g id="text_17">
     <!-- HR  (bpm) -->
     <g style="fill: #52514e" transform="translate(15.178359 135.926685) rotate(-90) scale(0.105 -0.105)">
      <defs>
       <path id="DejaVuSans-2b" d="M 628 4666 
L 1259 4666 
L 1259 2753 
L 3553 2753 
L 3553 4666 
L 4184 4666 
L 4184 0 
L 3553 0 
L 3553 2222 
L 1259 2222 
L 1259 0 
L 628 0 
L 628 4666 
z
" transform="scale(0.015625)"/>
       <path id="DejaVuSans-35" d="M 2841 2188 
Q 3044 2119 3236 1894 
Q 3428 1669 3622 1275 
L 4263 0 
L 3584 0 
L 2988 1197 
Q 2756 1666 2539 1819 
Q 2322 1972 1947 1972 
L 1259 1972 
L 1259 0 
L 628 0 
L 628 4666 
L 2053 4666 
Q 2853 4666 3247 4331 
Q 3641 3997 3641 3322 
Q 3641 2881 3436 2590 
Q 3231 2300 2841 2188 
z
M 1259 4147 
L 1259 2491 
L 2053 2491 
Q 2509 2491 2742 2702 
Q 2975 2913 2975 3322 
Q 2975 3731 2742 3939 
Q 2509 4147 2053 4147 
L 1259 4147 
z
" transform="scale(0.015625)"/>
      </defs>
      <use xlink:href="#DejaVuSans-2b"/>
      <use xlink:href="#DejaVuSans-35" transform="translate(75.203125 0)"/>
      <use xlink:href="#DejaVuSans-3" transform="translate(144.6875 0)"/>
      <use xlink:href="#DejaVuSans-3" transform="translate(176.46875 0)"/>
      <use xlink:href="#DejaVuSans-b" transform="translate(208.25 0)"/>
      <use xlink:href="#DejaVuSans-45" transform="translate(247.265625 0)"/>
      <use xlink:href="#DejaVuSans-53" transform="translate(310.75 0)"/>
      <use xlink:href="#DejaVuSans-50" transform="translate(374.234375 0)"/>
      <use xlink:href="#DejaVuSans-c" transform="translate(471.640625 0)"/>
     </g>
    </g>
   </g>
   <g id="line2d_31">
    <path d="M 75.093079 167.202258 
L 411.747624 36.865126 
L 411.747624 36.865126 
" clip-path="url(#p65e421a88d)" style="fill: none; stroke: #2a78d6; stroke-width: 2.4; stroke-linecap: square"/>
   </g>
   <g id="line2d_32">
    <path d="M 58.260352 167.202258 
L 428.580352 167.202258 
" clip-path="url(#p65e421a88d)" style="fill: none; stroke-dasharray: 1,1.65; stroke-dashoffset: 0; stroke: #898781"/>
   </g>
   <g id="patch_3">
    <path d="M 58.260352 195.536417 
L 58.260352 22.698047 
" style="fill: none; stroke: #c3c2b7; stroke-width: 0.9; stroke-linejoin: miter; stroke-linecap: square"/>
   </g>
   <g id="patch_4">
    <path d="M 58.260352 195.536417 
L 428.580352 195.536417 
" style="fill: none; stroke: #c3c2b7; stroke-width: 0.9; stroke-linejoin: miter; stroke-linecap: square"/>
   </g>
   <g id="text_18">
    <!-- HR_ss  (fresh HR for this power) -->
    <g style="fill: #898781" transform="translate(277.619533 159.613551) scale(0.08 -0.08)">
     <defs>
      <path id="DejaVuSans-42" d="M 3263 -1063 
L 3263 -1509 
L -63 -1509 
L -63 -1063 
L 3263 -1063 
z
" transform="scale(0.015625)"/>
      <path id="DejaVuSans-55" d="M 2631 2963 
Q 2534 3019 2420 3045 
Q 2306 3072 2169 3072 
Q 1681 3072 1420 2755 
Q 1159 2438 1159 1844 
L 1159 0 
L 581 0 
L 581 3500 
L 1159 3500 
L 1159 2956 
Q 1341 3275 1631 3429 
Q 1922 3584 2338 3584 
Q 2397 3584 2469 3576 
Q 2541 3569 2628 3553 
L 2631 2963 
z
" transform="scale(0.015625)"/>
      <path id="DejaVuSans-4b" d="M 3513 2113 
L 3513 0 
L 2938 0 
L 2938 2094 
Q 2938 2591 2744 2837 
Q 2550 3084 2163 3084 
Q 1697 3084 1428 2787 
Q 1159 2491 1159 1978 
L 1159 0 
L 581 0 
L 581 4863 
L 1159 4863 
L 1159 2956 
Q 1366 3272 1645 3428 
Q 1925 3584 2291 3584 
Q 2894 3584 3203 3211 
Q 3513 2838 3513 2113 
z
" transform="scale(0.015625)"/>
      <path id="DejaVuSans-52" d="M 1959 3097 
Q 1497 3097 1228 2736 
Q 959 2375 959 1747 
Q 959 1119 1226 758 
Q 1494 397 1959 397 
Q 2419 397 2687 759 
Q 2956 1122 2956 1747 
Q 2956 2369 2687 2733 
Q 2419 3097 1959 3097 
z
M 1959 3584 
Q 2709 3584 3137 3096 
Q 3566 2609 3566 1747 
Q 3566 888 3137 398 
Q 2709 -91 1959 -91 
Q 1206 -91 779 398 
Q 353 888 353 1747 
Q 353 2609 779 3096 
Q 1206 3584 1959 3584 
z
" transform="scale(0.015625)"/>
      <path id="DejaVuSans-5a" d="M 269 3500 
L 844 3500 
L 1563 769 
L 2278 3500 
L 2956 3500 
L 3675 769 
L 4391 3500 
L 4966 3500 
L 4050 0 
L 3372 0 
L 2619 2869 
L 1863 0 
L 1184 0 
L 269 3500 
z
" transform="scale(0.015625)"/>
     </defs>
     <use xlink:href="#DejaVuSans-2b"/>
     <use xlink:href="#DejaVuSans-35" transform="translate(75.203125 0)"/>
     <use xlink:href="#DejaVuSans-42" transform="translate(144.6875 0)"/>
     <use xlink:href="#DejaVuSans-56" transform="translate(194.6875 0)"/>
     <use xlink:href="#DejaVuSans-56" transform="translate(246.78125 0)"/>
     <use xlink:href="#DejaVuSans-3" transform="translate(298.875 0)"/>
     <use xlink:href="#DejaVuSans-3" transform="translate(330.65625 0)"/>
     <use xlink:href="#DejaVuSans-b" transform="translate(362.4375 0)"/>
     <use xlink:href="#DejaVuSans-49" transform="translate(401.453125 0)"/>
     <use xlink:href="#DejaVuSans-55" transform="translate(436.65625 0)"/>
     <use xlink:href="#DejaVuSans-48" transform="translate(475.5625 0)"/>
     <use xlink:href="#DejaVuSans-56" transform="translate(537.09375 0)"/>
     <use xlink:href="#DejaVuSans-4b" transform="translate(589.1875 0)"/>
     <use xlink:href="#DejaVuSans-3" transform="translate(652.5625 0)"/>
     <use xlink:href="#DejaVuSans-2b" transform="translate(684.34375 0)"/>
     <use xlink:href="#DejaVuSans-35" transform="translate(759.546875 0)"/>
     <use xlink:href="#DejaVuSans-3" transform="translate(829.03125 0)"/>
     <use xlink:href="#DejaVuSans-49" transform="translate(860.8125 0)"/>
     <use xlink:href="#DejaVuSans-52" transform="translate(896.015625 0)"/>
     <use xlink:href="#DejaVuSans-55" transform="translate(957.203125 0)"/>
     <use xlink:href="#DejaVuSans-3" transform="translate(998.3125 0)"/>
     <use xlink:href="#DejaVuSans-57" transform="translate(1030.09375 0)"/>
     <use xlink:href="#DejaVuSans-4b" transform="translate(1069.296875 0)"/>
     <use xlink:href="#DejaVuSans-4c" transform="translate(1132.671875 0)"/>
     <use xlink:href="#DejaVuSans-56" transform="translate(1160.453125 0)"/>
     <use xlink:href="#DejaVuSans-3" transform="translate(1212.546875 0)"/>
     <use xlink:href="#DejaVuSans-53" transform="translate(1244.328125 0)"/>
     <use xlink:href="#DejaVuSans-52" transform="translate(1307.8125 0)"/>
     <use xlink:href="#DejaVuSans-5a" transform="translate(1369 0)"/>
     <use xlink:href="#DejaVuSans-48" transform="translate(1450.78125 0)"/>
     <use xlink:href="#DejaVuSans-55" transform="translate(1512.3125 0)"/>
     <use xlink:href="#DejaVuSans-c" transform="translate(1553.421875 0)"/>
    </g>
   </g>
   <g id="text_19">
    <!-- HR = HR_ss + F,   HR_ss = HR_rest + g_P·P -->
    <g style="fill: #898781" transform="translate(69.369952 183.124122) scale(0.085 -0.085)">
     <defs>
      <path id="DejaVuSans-Oblique-2b" d="M 1081 4666 
L 1716 4666 
L 1344 2753 
L 3634 2753 
L 4006 4666 
L 4641 4666 
L 3731 0 
L 3097 0 
L 3531 2222 
L 1241 2222 
L 806 0 
L 172 0 
L 1081 4666 
z
" transform="scale(0.015625)"/>
      <path id="DejaVuSans-Oblique-35" d="M 1613 4147 
L 1294 2491 
L 2106 2491 
Q 2584 2491 2879 2755 
Q 3175 3019 3175 3444 
Q 3175 3784 2976 3965 
Q 2778 4147 2406 4147 
L 1613 4147 
z
M 2772 2241 
Q 2972 2194 3105 2009 
Q 3238 1825 3413 1275 
L 3809 0 
L 3144 0 
L 2778 1197 
Q 2638 1659 2453 1815 
Q 2269 1972 1888 1972 
L 1191 1972 
L 806 0 
L 172 0 
L 1081 4666 
L 2503 4666 
Q 3150 4666 3495 4373 
Q 3841 4081 3841 3531 
Q 3841 3044 3547 2687 
Q 3253 2331 2772 2241 
z
" transform="scale(0.015625)"/>
      <path id="DejaVuSans-Oblique-3" transform="scale(0.015625)"/>
      <path id="DejaVuSans-Oblique-20" d="M 678 2906 
L 4684 2906 
L 4684 2381 
L 678 2381 
L 678 2906 
z
M 678 1631 
L 4684 1631 
L 4684 1100 
L 678 1100 
L 678 1631 
z
" transform="scale(0.015625)"/>
      <path id="DejaVuSans-Oblique-42" d="M 3263 -1063 
L 3263 -1509 
L -63 -1509 
L -63 -1063 
L 3263 -1063 
z
" transform="scale(0.015625)"/>
      <path id="DejaVuSans-Oblique-56" d="M 3200 3397 
L 3091 2853 
Q 2863 2978 2609 3040 
Q 2356 3103 2088 3103 
Q 1634 3103 1373 2948 
Q 1113 2794 1113 2528 
Q 1113 2219 1719 2053 
Q 1766 2041 1788 2034 
L 1972 1978 
Q 2547 1819 2739 1644 
Q 2931 1469 2931 1166 
Q 2931 609 2489 259 
Q 2047 -91 1331 -91 
Q 1053 -91 747 -37 
Q 441 16 72 128 
L 184 722 
Q 500 559 806 475 
Q 1113 391 1394 391 
Q 1816 391 2080 572 
Q 2344 753 2344 1031 
Q 2344 1331 1650 1516 
L 1591 1531 
L 1394 1581 
Q 956 1697 753 1886 
Q 550 2075 550 2369 
Q 550 2928 970 3256 
Q 1391 3584 2113 3584 
Q 2397 3584 2667 3537 
Q 2938 3491 3200 3397 
z
" transform="scale(0.015625)"/>
      <path id="DejaVuSans-Oblique-e" d="M 2944 4013 
L 2944 2272 
L 4684 2272 
L 4684 1741 
L 2944 1741 
L 2944 0 
L 2419 0 
L 2419 1741 
L 678 1741 
L 678 2272 
L 2419 2272 
L 2419 4013 
L 2944 4013 
z
" transform="scale(0.015625)"/>
      <path id="DejaVuSans-Oblique-29" d="M 1081 4666 
L 3756 4666 
L 3653 4134 
L 1606 4134 
L 1338 2759 
L 3188 2759 
L 3084 2228 
L 1234 2228 
L 800 0 
L 172 0 
L 1081 4666 
z
" transform="scale(0.015625)"/>
      <path id="DejaVuSans-Oblique-f" d="M 575 794 
L 1234 794 
L 1131 256 
L 422 -744 
L 19 -744 
L 469 256 
L 575 794 
z
" transform="scale(0.015625)"/>
      <path id="DejaVuSans-Oblique-55" d="M 2853 2969 
Q 2766 3016 2653 3041 
Q 2541 3066 2413 3066 
Q 1953 3066 1609 2717 
Q 1266 2369 1153 1784 
L 800 0 
L 225 0 
L 909 3500 
L 1484 3500 
L 1375 2956 
Q 1603 3259 1920 3421 
Q 2238 3584 2597 3584 
Q 2691 3584 2781 3573 
Q 2872 3563 2963 3538 
L 2853 2969 
z
" transform="scale(0.015625)"/>
      <path id="DejaVuSans-Oblique-48" d="M 3078 2063 
Q 3088 2113 3092 2166 
Q 3097 2219 3097 2272 
Q 3097 2653 2873 2875 
Q 2650 3097 2266 3097 
Q 1838 3097 1509 2826 
Q 1181 2556 1013 2059 
L 3078 2063 
z
M 3578 1613 
L 903 1613 
Q 884 1494 878 1425 
Q 872 1356 872 1306 
Q 872 872 1139 634 
Q 1406 397 1894 397 
Q 2269 397 2603 481 
Q 2938 566 3225 728 
L 3116 159 
Q 2806 34 2476 -28 
Q 2147 -91 1806 -91 
Q 1078 -91 686 257 
Q 294 606 294 1247 
Q 294 1794 489 2264 
Q 684 2734 1063 3103 
Q 1306 3334 1642 3459 
Q 1978 3584 2356 3584 
Q 2950 3584 3301 3228 
Q 3653 2872 3653 2272 
Q 3653 2128 3634 1964 
Q 3616 1800 3578 1613 
z
" transform="scale(0.015625)"/>
      <path id="DejaVuSans-Oblique-57" d="M 2706 3500 
L 2619 3053 
L 1472 3053 
L 1100 1153 
Q 1081 1047 1072 975 
Q 1063 903 1063 863 
Q 1063 663 1183 572 
Q 1303 481 1569 481 
L 2150 481 
L 2053 0 
L 1503 0 
Q 991 0 739 200 
Q 488 400 488 806 
Q 488 878 497 964 
Q 506 1050 525 1153 
L 897 3053 
L 409 3053 
L 500 3500 
L 978 3500 
L 1172 4494 
L 1747 4494 
L 1556 3500 
L 2706 3500 
z
" transform="scale(0.015625)"/>
      <path id="DejaVuSans-Oblique-4a" d="M 3816 3500 
L 3219 434 
Q 3047 -456 2561 -893 
Q 2075 -1331 1253 -1331 
Q 950 -1331 690 -1286 
Q 431 -1241 206 -1147 
L 313 -588 
Q 525 -725 762 -790 
Q 1000 -856 1269 -856 
Q 1816 -856 2167 -557 
Q 2519 -259 2631 300 
L 2681 563 
Q 2441 288 2122 144 
Q 1803 0 1434 0 
Q 903 0 598 351 
Q 294 703 294 1319 
Q 294 1803 478 2267 
Q 663 2731 997 3091 
Q 1219 3328 1514 3456 
Q 1809 3584 2131 3584 
Q 2484 3584 2746 3420 
Q 3009 3256 3138 2956 
L 3238 3500 
L 3816 3500 
z
M 2950 2216 
Q 2950 2641 2750 2872 
Q 2550 3103 2181 3103 
Q 1953 3103 1747 3012 
Q 1541 2922 1394 2759 
Q 1156 2491 1023 2127 
Q 891 1763 891 1375 
Q 891 944 1092 712 
Q 1294 481 1672 481 
Q 2219 481 2584 976 
Q 2950 1472 2950 2216 
z
" transform="scale(0.015625)"/>
      <path id="DejaVuSans-Oblique-33" d="M 1081 4666 
L 2541 4666 
Q 3178 4666 3512 4369 
Q 3847 4072 3847 3500 
Q 3847 2731 3353 2303 
Q 2859 1875 1966 1875 
L 1172 1875 
L 806 0 
L 172 0 
L 1081 4666 
z
M 1613 4147 
L 1275 2394 
L 2069 2394 
Q 2606 2394 2893 2669 
Q 3181 2944 3181 3456 
Q 3181 3784 2986 3965 
Q 2791 4147 2438 4147 
L 1613 4147 
z
" transform="scale(0.015625)"/>
      <path id="DejaVuSans-Oblique-79" d="M 884 2619 
L 1544 2619 
L 1388 1825 
L 728 1825 
L 884 2619 
z
" transform="scale(0.015625)"/>
     </defs>
     <use xlink:href="#DejaVuSans-Oblique-2b"/>
     <use xlink:href="#DejaVuSans-Oblique-35" transform="translate(75.203125 0)"/>
     <use xlink:href="#DejaVuSans-Oblique-3" transform="translate(144.6875 0)"/>
     <use xlink:href="#DejaVuSans-Oblique-20" transform="translate(176.46875 0)"/>
     <use xlink:href="#DejaVuSans-Oblique-3" transform="translate(260.265625 0)"/>
     <use xlink:href="#DejaVuSans-Oblique-2b" transform="translate(292.046875 0)"/>
     <use xlink:href="#DejaVuSans-Oblique-35" transform="translate(367.25 0)"/>
     <use xlink:href="#DejaVuSans-Oblique-42" transform="translate(436.734375 0)"/>
     <use xlink:href="#DejaVuSans-Oblique-56" transform="translate(486.734375 0)"/>
     <use xlink:href="#DejaVuSans-Oblique-56" transform="translate(538.828125 0)"/>
     <use xlink:href="#DejaVuSans-Oblique-3" transform="translate(590.921875 0)"/>
     <use xlink:href="#DejaVuSans-Oblique-e" transform="translate(622.703125 0)"/>
     <use xlink:href="#DejaVuSans-Oblique-3" transform="translate(706.5 0)"/>
     <use xlink:href="#DejaVuSans-Oblique-29" transform="translate(738.28125 0)"/>
     <use xlink:href="#DejaVuSans-Oblique-f" transform="translate(782.90625 0)"/>
     <use xlink:href="#DejaVuSans-Oblique-3" transform="translate(814.6875 0)"/>
     <use xlink:href="#DejaVuSans-Oblique-3" transform="translate(846.46875 0)"/>
     <use xlink:href="#DejaVuSans-Oblique-3" transform="translate(878.25 0)"/>
     <use xlink:href="#DejaVuSans-Oblique-2b" transform="translate(910.03125 0)"/>
     <use xlink:href="#DejaVuSans-Oblique-35" transform="translate(985.234375 0)"/>
     <use xlink:href="#DejaVuSans-Oblique-42" transform="translate(1054.71875 0)"/>
     <use xlink:href="#DejaVuSans-Oblique-56" transform="translate(1104.71875 0)"/>
     <use xlink:href="#DejaVuSans-Oblique-56" transform="translate(1156.8125 0)"/>
     <use xlink:href="#DejaVuSans-Oblique-3" transform="translate(1208.90625 0)"/>
     <use xlink:href="#DejaVuSans-Oblique-20" transform="translate(1240.6875 0)"/>
     <use xlink:href="#DejaVuSans-Oblique-3" transform="translate(1324.484375 0)"/>
     <use xlink:href="#DejaVuSans-Oblique-2b" transform="translate(1356.265625 0)"/>
     <use xlink:href="#DejaVuSans-Oblique-35" transform="translate(1431.46875 0)"/>
     <use xlink:href="#DejaVuSans-Oblique-42" transform="translate(1500.953125 0)"/>
     <use xlink:href="#DejaVuSans-Oblique-55" transform="translate(1550.953125 0)"/>
     <use xlink:href="#DejaVuSans-Oblique-48" transform="translate(1592.0625 0)"/>
     <use xlink:href="#DejaVuSans-Oblique-56" transform="translate(1653.59375 0)"/>
     <use xlink:href="#DejaVuSans-Oblique-57" transform="translate(1705.6875 0)"/>
     <use xlink:href="#DejaVuSans-Oblique-3" transform="translate(1744.890625 0)"/>
     <use xlink:href="#DejaVuSans-Oblique-e" transform="translate(1776.671875 0)"/>
     <use xlink:href="#DejaVuSans-Oblique-3" transform="translate(1860.46875 0)"/>
     <use xlink:href="#DejaVuSans-Oblique-4a" transform="translate(1892.25 0)"/>
     <use xlink:href="#DejaVuSans-Oblique-42" transform="translate(1955.734375 0)"/>
     <use xlink:href="#DejaVuSans-Oblique-33" transform="translate(2005.734375 0)"/>
     <use xlink:href="#DejaVuSans-Oblique-79" transform="translate(2066.03125 0)"/>
     <use xlink:href="#DejaVuSans-Oblique-33" transform="translate(2097.8125 0)"/>
    </g>
   </g>
   <g id="patch_5">
    <path d="M 186.169024 247.387927 
Q 302.672817 247.387927 417.611363 247.387927 
" style="fill: none; stroke: #898781; stroke-width: 1.4; stroke-linecap: round"/>
    <path d="M 413.411363 245.287927 
L 417.611363 247.387927 
L 413.411363 249.487927 
z
" style="fill: #898781; stroke: #898781; stroke-width: 1.4; stroke-linecap: round"/>
   </g>
   <g id="text_20">
    <!-- increasing fatigue -->
    <g style="fill: #898781" transform="translate(264.402958 240.160784) scale(0.085 -0.085)">
     <defs>
      <path id="DejaVuSans-Oblique-4c" d="M 1172 4863 
L 1747 4863 
L 1606 4134 
L 1031 4134 
L 1172 4863 
z
M 909 3500 
L 1484 3500 
L 800 0 
L 225 0 
L 909 3500 
z
" transform="scale(0.015625)"/>
      <path id="DejaVuSans-Oblique-51" d="M 3566 2113 
L 3156 0 
L 2578 0 
L 2988 2091 
Q 3016 2238 3031 2350 
Q 3047 2463 3047 2528 
Q 3047 2791 2881 2937 
Q 2716 3084 2419 3084 
Q 1956 3084 1622 2776 
Q 1288 2469 1184 1941 
L 800 0 
L 225 0 
L 903 3500 
L 1478 3500 
L 1363 2950 
Q 1603 3253 1940 3418 
Q 2278 3584 2650 3584 
Q 3113 3584 3367 3334 
Q 3622 3084 3622 2631 
Q 3622 2519 3608 2391 
Q 3594 2263 3566 2113 
z
" transform="scale(0.015625)"/>
      <path id="DejaVuSans-Oblique-46" d="M 3431 3366 
L 3316 2797 
Q 3109 2947 2876 3022 
Q 2644 3097 2394 3097 
Q 2119 3097 1870 3000 
Q 1622 2903 1453 2725 
Q 1184 2453 1037 2087 
Q 891 1722 891 1331 
Q 891 859 1127 628 
Q 1363 397 1844 397 
Q 2081 397 2348 469 
Q 2616 541 2906 684 
L 2797 116 
Q 2547 13 2283 -39 
Q 2019 -91 1741 -91 
Q 1044 -91 669 257 
Q 294 606 294 1253 
Q 294 1797 489 2255 
Q 684 2713 1069 3078 
Q 1331 3328 1684 3456 
Q 2038 3584 2456 3584 
Q 2700 3584 2940 3529 
Q 3181 3475 3431 3366 
z
" transform="scale(0.015625)"/>
      <path id="DejaVuSans-Oblique-44" d="M 3438 1997 
L 3047 0 
L 2472 0 
L 2578 531 
Q 2325 219 2001 64 
Q 1678 -91 1281 -91 
Q 834 -91 548 182 
Q 263 456 263 884 
Q 263 1497 752 1853 
Q 1241 2209 2100 2209 
L 2900 2209 
L 2931 2363 
Q 2938 2388 2941 2417 
Q 2944 2447 2944 2509 
Q 2944 2788 2717 2942 
Q 2491 3097 2081 3097 
Q 1800 3097 1504 3025 
Q 1209 2953 897 2809 
L 997 3341 
Q 1322 3463 1633 3523 
Q 1944 3584 2234 3584 
Q 2853 3584 3176 3315 
Q 3500 3047 3500 2534 
Q 3500 2431 3484 2292 
Q 3469 2153 3438 1997 
z
M 2816 1759 
L 2241 1759 
Q 1534 1759 1195 1570 
Q 856 1381 856 984 
Q 856 709 1029 553 
Q 1203 397 1509 397 
Q 1978 397 2328 733 
Q 2678 1069 2791 1631 
L 2816 1759 
z
" transform="scale(0.015625)"/>
      <path id="DejaVuSans-Oblique-49" d="M 3059 4863 
L 2969 4384 
L 2419 4384 
Q 2106 4384 1964 4261 
Q 1822 4138 1753 3809 
L 1691 3500 
L 2638 3500 
L 2553 3053 
L 1606 3053 
L 1013 0 
L 434 0 
L 1031 3053 
L 481 3053 
L 563 3500 
L 1113 3500 
L 1159 3744 
Q 1278 4363 1576 4613 
Q 1875 4863 2516 4863 
L 3059 4863 
z
" transform="scale(0.015625)"/>
      <path id="DejaVuSans-Oblique-58" d="M 428 1388 
L 838 3500 
L 1416 3500 
L 1006 1409 
Q 975 1256 961 1147 
Q 947 1038 947 966 
Q 947 700 1109 554 
Q 1272 409 1569 409 
Q 2031 409 2368 721 
Q 2706 1034 2809 1563 
L 3194 3500 
L 3769 3500 
L 3091 0 
L 2516 0 
L 2631 550 
Q 2388 244 2052 76 
Q 1716 -91 1338 -91 
Q 878 -91 622 161 
Q 366 413 366 863 
Q 366 956 381 1097 
Q 397 1238 428 1388 
z
" transform="scale(0.015625)"/>
     </defs>
     <use xlink:href="#DejaVuSans-Oblique-4c"/>
     <use xlink:href="#DejaVuSans-Oblique-51" transform="translate(27.78125 0)"/>
     <use xlink:href="#DejaVuSans-Oblique-46" transform="translate(91.15625 0)"/>
     <use xlink:href="#DejaVuSans-Oblique-55" transform="translate(146.140625 0)"/>
     <use xlink:href="#DejaVuSans-Oblique-48" transform="translate(187.25 0)"/>
     <use xlink:href="#DejaVuSans-Oblique-44" transform="translate(248.78125 0)"/>
     <use xlink:href="#DejaVuSans-Oblique-56" transform="translate(310.0625 0)"/>
     <use xlink:href="#DejaVuSans-Oblique-4c" transform="translate(362.15625 0)"/>
     <use xlink:href="#DejaVuSans-Oblique-51" transform="translate(389.9375 0)"/>
     <use xlink:href="#DejaVuSans-Oblique-4a" transform="translate(453.3125 0)"/>
     <use xlink:href="#DejaVuSans-Oblique-3" transform="translate(516.796875 0)"/>
     <use xlink:href="#DejaVuSans-Oblique-49" transform="translate(548.578125 0)"/>
     <use xlink:href="#DejaVuSans-Oblique-44" transform="translate(583.78125 0)"/>
     <use xlink:href="#DejaVuSans-Oblique-57" transform="translate(645.0625 0)"/>
     <use xlink:href="#DejaVuSans-Oblique-4c" transform="translate(684.265625 0)"/>
     <use xlink:href="#DejaVuSans-Oblique-4a" transform="translate(712.046875 0)"/>
     <use xlink:href="#DejaVuSans-Oblique-58" transform="translate(775.53125 0)"/>
     <use xlink:href="#DejaVuSans-Oblique-48" transform="translate(838.90625 0)"/>
    </g>
   </g>
   <g id="text_21">
    <!-- Heart rate at fixed power -->
    <g style="fill: #0b0b0b" transform="translate(153.988711 16.698047) scale(0.125 -0.125)">
     <defs>
      <path id="DejaVuSans-Bold-2b" d="M 588 4666 
L 1791 4666 
L 1791 2888 
L 3566 2888 
L 3566 4666 
L 4769 4666 
L 4769 0 
L 3566 0 
L 3566 1978 
L 1791 1978 
L 1791 0 
L 588 0 
L 588 4666 
z
" transform="scale(0.015625)"/>
      <path id="DejaVuSans-Bold-48" d="M 4031 1759 
L 4031 1441 
L 1416 1441 
Q 1456 1047 1700 850 
Q 1944 653 2381 653 
Q 2734 653 3104 758 
Q 3475 863 3866 1075 
L 3866 213 
Q 3469 63 3072 -14 
Q 2675 -91 2278 -91 
Q 1328 -91 801 392 
Q 275 875 275 1747 
Q 275 2603 792 3093 
Q 1309 3584 2216 3584 
Q 3041 3584 3536 3087 
Q 4031 2591 4031 1759 
z
M 2881 2131 
Q 2881 2450 2695 2645 
Q 2509 2841 2209 2841 
Q 1884 2841 1681 2658 
Q 1478 2475 1428 2131 
L 2881 2131 
z
" transform="scale(0.015625)"/>
      <path id="DejaVuSans-Bold-44" d="M 2106 1575 
Q 1756 1575 1579 1456 
Q 1403 1338 1403 1106 
Q 1403 894 1545 773 
Q 1688 653 1941 653 
Q 2256 653 2472 879 
Q 2688 1106 2688 1447 
L 2688 1575 
L 2106 1575 
z
M 3816 1997 
L 3816 0 
L 2688 0 
L 2688 519 
Q 2463 200 2181 54 
Q 1900 -91 1497 -91 
Q 953 -91 614 226 
Q 275 544 275 1050 
Q 275 1666 698 1953 
Q 1122 2241 2028 2241 
L 2688 2241 
L 2688 2328 
Q 2688 2594 2478 2717 
Q 2269 2841 1825 2841 
Q 1466 2841 1156 2769 
Q 847 2697 581 2553 
L 581 3406 
Q 941 3494 1303 3539 
Q 1666 3584 2028 3584 
Q 2975 3584 3395 3211 
Q 3816 2838 3816 1997 
z
" transform="scale(0.015625)"/>
      <path id="DejaVuSans-Bold-55" d="M 3138 2547 
Q 2991 2616 2845 2648 
Q 2700 2681 2553 2681 
Q 2122 2681 1889 2404 
Q 1656 2128 1656 1613 
L 1656 0 
L 538 0 
L 538 3500 
L 1656 3500 
L 1656 2925 
Q 1872 3269 2151 3426 
Q 2431 3584 2822 3584 
Q 2878 3584 2943 3579 
Q 3009 3575 3134 3559 
L 3138 2547 
z
" transform="scale(0.015625)"/>
      <path id="DejaVuSans-Bold-57" d="M 1759 4494 
L 1759 3500 
L 2913 3500 
L 2913 2700 
L 1759 2700 
L 1759 1216 
Q 1759 972 1856 886 
Q 1953 800 2241 800 
L 2816 800 
L 2816 0 
L 1856 0 
Q 1194 0 917 276 
Q 641 553 641 1216 
L 641 2700 
L 84 2700 
L 84 3500 
L 641 3500 
L 641 4494 
L 1759 4494 
z
" transform="scale(0.015625)"/>
      <path id="DejaVuSans-Bold-3" transform="scale(0.015625)"/>
      <path id="DejaVuSans-Bold-13ab" d="M 3078 4863 
L 4206 4863 
L 4206 3950 
L 3078 3950 
L 3078 4863 
z
M 2847 4863 
L 2847 4128 
L 2228 4128 
Q 1994 4128 1903 4042 
Q 1813 3956 1813 3744 
L 1813 3500 
L 4206 3500 
L 4206 0 
L 3078 0 
L 3078 2700 
L 1813 2700 
L 1813 0 
L 684 0 
L 684 2700 
L 134 2700 
L 134 3500 
L 684 3500 
L 684 3744 
Q 684 4316 1003 4589 
Q 1322 4863 1991 4863 
L 2847 4863 
z
" transform="scale(0.015625)"/>
      <path id="DejaVuSans-Bold-5b" d="M 1422 1791 
L 159 3500 
L 1344 3500 
L 2059 2463 
L 2784 3500 
L 3969 3500 
L 2706 1797 
L 4031 0 
L 2847 0 
L 2059 1106 
L 1281 0 
L 97 0 
L 1422 1791 
z
" transform="scale(0.015625)"/>
      <path id="DejaVuSans-Bold-47" d="M 2919 2988 
L 2919 4863 
L 4044 4863 
L 4044 0 
L 2919 0 
L 2919 506 
Q 2688 197 2409 53 
Q 2131 -91 1766 -91 
Q 1119 -91 703 423 
Q 288 938 288 1747 
Q 288 2556 703 3070 
Q 1119 3584 1766 3584 
Q 2128 3584 2408 3439 
Q 2688 3294 2919 2988 
z
M 2181 722 
Q 2541 722 2730 984 
Q 2919 1247 2919 1747 
Q 2919 2247 2730 2509 
Q 2541 2772 2181 2772 
Q 1825 2772 1636 2509 
Q 1447 2247 1447 1747 
Q 1447 1247 1636 984 
Q 1825 722 2181 722 
z
" transform="scale(0.015625)"/>
      <path id="DejaVuSans-Bold-53" d="M 1656 506 
L 1656 -1331 
L 538 -1331 
L 538 3500 
L 1656 3500 
L 1656 2988 
Q 1888 3294 2169 3439 
Q 2450 3584 2816 3584 
Q 3463 3584 3878 3070 
Q 4294 2556 4294 1747 
Q 4294 938 3878 423 
Q 3463 -91 2816 -91 
Q 2450 -91 2169 54 
Q 1888 200 1656 506 
z
M 2400 2772 
Q 2041 2772 1848 2508 
Q 1656 2244 1656 1747 
Q 1656 1250 1848 986 
Q 2041 722 2400 722 
Q 2759 722 2948 984 
Q 3138 1247 3138 1747 
Q 3138 2247 2948 2509 
Q 2759 2772 2400 2772 
z
" transform="scale(0.015625)"/>
      <path id="DejaVuSans-Bold-52" d="M 2203 2784 
Q 1831 2784 1636 2517 
Q 1441 2250 1441 1747 
Q 1441 1244 1636 976 
Q 1831 709 2203 709 
Q 2569 709 2762 976 
Q 2956 1244 2956 1747 
Q 2956 2250 2762 2517 
Q 2569 2784 2203 2784 
z
M 2203 3584 
Q 3106 3584 3614 3096 
Q 4122 2609 4122 1747 
Q 4122 884 3614 396 
Q 3106 -91 2203 -91 
Q 1297 -91 786 396 
Q 275 884 275 1747 
Q 275 2609 786 3096 
Q 1297 3584 2203 3584 
z
" transform="scale(0.015625)"/>
      <path id="DejaVuSans-Bold-5a" d="M 225 3500 
L 1313 3500 
L 1900 1088 
L 2491 3500 
L 3425 3500 
L 4013 1113 
L 4603 3500 
L 5691 3500 
L 4769 0 
L 3547 0 
L 2956 2406 
L 2369 0 
L 1147 0 
L 225 3500 
z
" transform="scale(0.015625)"/>
     </defs>
     <use xlink:href="#DejaVuSans-Bold-2b"/>
     <use xlink:href="#DejaVuSans-Bold-48" transform="translate(83.6875 0)"/>
     <use xlink:href="#DejaVuSans-Bold-44" transform="translate(151.515625 0)"/>
     <use xlink:href="#DejaVuSans-Bold-55" transform="translate(219 0)"/>
     <use xlink:href="#DejaVuSans-Bold-57" transform="translate(268.3125 0)"/>
     <use xlink:href="#DejaVuSans-Bold-3" transform="translate(316.109375 0)"/>
     <use xlink:href="#DejaVuSans-Bold-55" transform="translate(350.921875 0)"/>
     <use xlink:href="#DejaVuSans-Bold-44" transform="translate(400.234375 0)"/>
     <use xlink:href="#DejaVuSans-Bold-57" transform="translate(467.71875 0)"/>
     <use xlink:href="#DejaVuSans-Bold-48" transform="translate(515.515625 0)"/>
     <use xlink:href="#DejaVuSans-Bold-3" transform="translate(583.34375 0)"/>
     <use xlink:href="#DejaVuSans-Bold-44" transform="translate(618.15625 0)"/>
     <use xlink:href="#DejaVuSans-Bold-57" transform="translate(685.640625 0)"/>
     <use xlink:href="#DejaVuSans-Bold-3" transform="translate(733.4375 0)"/>
     <use xlink:href="#DejaVuSans-Bold-13ab" transform="translate(768.25 0)"/>
     <use xlink:href="#DejaVuSans-Bold-5b" transform="translate(842.375 0)"/>
     <use xlink:href="#DejaVuSans-Bold-48" transform="translate(906.875 0)"/>
     <use xlink:href="#DejaVuSans-Bold-47" transform="translate(974.703125 0)"/>
     <use xlink:href="#DejaVuSans-Bold-3" transform="translate(1046.28125 0)"/>
     <use xlink:href="#DejaVuSans-Bold-53" transform="translate(1081.09375 0)"/>
     <use xlink:href="#DejaVuSans-Bold-52" transform="translate(1152.671875 0)"/>
     <use xlink:href="#DejaVuSans-Bold-5a" transform="translate(1221.375 0)"/>
     <use xlink:href="#DejaVuSans-Bold-48" transform="translate(1313.765625 0)"/>
     <use xlink:href="#DejaVuSans-Bold-55" transform="translate(1381.59375 0)"/>
    </g>
   </g>
  </g>
 </g>
 <defs>
  <clipPath id="p65e421a88d">
   <rect x="58.260352" y="22.698047" width="370.32" height="172.83837"/>
  </clipPath>
 </defs>
</svg>
