<?xml version="1.0" encoding="utf-8" standalone="no"?>
<!DOCTYPE svg PUBLIC "-//W3C//DTD SVG 1.1//EN"
  "http://www.w3.org/Graphics/SVG/1.1/DTD/svg11.dtd">
<svg xmlns:xlink="http://www.w3.org/1999/xlink" width="464.84332pt" height="272.521797pt" viewBox="0 0 464.84332 272.521797" xmlns="http://www.w3.org/2000/svg" version="1.1">
 <metadata>
  <rdf:RDF xmlns:dc="http://purl.org/dc/elements/1.1/" xmlns:cc="http://creativecommons.org/ns#" xmlns:rdf="http://www.w3.org/1999/02/22-rdf-syntax-ns#">
   <cc:Work>
    <dc:type rdf:resource="http://purl.org/dc/dcmitype/StillImage"/>
    <dc:date>2026-07-13T15:00:30.794413</dc:date>
    <dc:format>image/svg+xml</dc:format>
    <dc:creator>
     <cc:Agent>
      <dc:title>Matplotlib v3.11.0, https://matplotlib.org/</dc:title>
     </cc:Agent>
    </dc:creator>
   </cc:Work>
  </rdf:RDF>
 </metadata>
 <defs>
  <style type="text/css">*{stroke-linejoin: round; stroke-linecap: butt}</style>
 </defs>
 <g id="figure_1">
  <g id="patch_1">
   <path d="M 0 272.521797 
L 464.84332 272.521797 
L 464.84332 0 
L 0 0 
z
" style="fill: #ffffff"/>
  </g>
  <g id="axes_1">
   <g id="patch_2">
    <path d="M 54.92332 233.820977 
L 457.64332 233.820977 
L 457.64332 22.698047 
L 54.92332 22.698047 
z
" style="fill: #ffffff"/>
   </g>
   <g id="matplotlib.axis_1">
    <g id="xtick_1">
     <g id="line2d_1">
      <path d="M 73.228775 233.820977 
L 73.228775 22.698047 
" clip-path="url(#pd8750645cf)" style="fill: none; stroke: #e1e0d9; stroke-width: 0.8; stroke-linecap: square"/>
     </g>
     <g id="line2d_2">
      <defs>
       <path id="m0d6c836569" d="M 0 0 
L 0 3 
" style="stroke: #898781; stroke-width: 0.8"/>
      </defs>
      <g>
       <use xlink:href="#m0d6c836569" x="73.228775" y="233.820977" style="fill: #898781; stroke: #898781; stroke-width: 0.8"/>
      </g>
     </g>
     <g id="text_1">
      <!-- 0.0 -->
      <g style="fill: #898781" transform="translate(64.879634 248.298516) scale(0.105 -0.105)">
       <defs>
        <path id="DejaVuSans-13" d="M 2034 4250 
Q 1547 4250 1301 3770 
Q 1056 3291 1056 2328 
Q 1056 1369 1301 889 
Q 1547 409 2034 409 
Q 2525 409 2770 889 
Q 3016 1369 3016 2328 
Q 3016 3291 2770 3770 
Q 2525 4250 2034 4250 
z
M 2034 4750 
Q 2819 4750 3233 4129 
Q 3647 3509 3647 2328 
Q 3647 1150 3233 529 
Q 2819 -91 2034 -91 
Q 1250 -91 836 529 
Q 422 1150 422 2328 
Q 422 3509 836 4129 
Q 1250 4750 2034 4750 
z
" transform="scale(0.015625)"/>
        <path id="DejaVuSans-11" d="M 684 794 
L 1344 794 
L 1344 0 
L 684 0 
L 684 794 
z
" transform="scale(0.015625)"/>
       </defs>
       <use xlink:href="#DejaVuSans-13"/>
       <use xlink:href="#DejaVuSans-11" transform="translate(63.625 0)"/>
       <use xlink:href="#DejaVuSans-13" transform="translate(95.40625 0)"/>
      </g>
     </g>
    </g>
    <g id="xtick_2">
     <g id="line2d_3">
      <path d="M 119.183891 233.820977 
L 119.183891 22.698047 
" clip-path="url(#pd8750645cf)" style="fill: none; stroke: #e1e0d9; stroke-width: 0.8; stroke-linecap: square"/>
     </g>
     <g id="line2d_4">
      <g>
       <use xlink:href="#m0d6c836569" x="119.183891" y="233.820977" style="fill: #898781; stroke: #898781; stroke-width: 0.8"/>
      </g>
     </g>
     <g id="text_2">
      <!-- 0.5 -->
      <g style="fill: #898781" transform="translate(110.83475 248.298516) scale(0.105 -0.105)">
       <defs>
        <path id="DejaVuSans-18" d="M 691 4666 
L 3169 4666 
L 3169 4134 
L 1269 4134 
L 1269 2991 
Q 1406 3038 1543 3061 
Q 1681 3084 1819 3084 
Q 2600 3084 3056 2656 
Q 3513 2228 3513 1497 
Q 3513 744 3044 326 
Q 2575 -91 1722 -91 
Q 1428 -91 1123 -41 
Q 819 9 494 109 
L 494 744 
Q 775 591 1075 516 
Q 1375 441 1709 441 
Q 2250 441 2565 725 
Q 2881 1009 2881 1497 
Q 2881 1984 2565 2268 
Q 2250 2553 1709 2553 
Q 1456 2553 1204 2497 
Q 953 2441 691 2322 
L 691 4666 
z
" transform="scale(0.015625)"/>
       </defs>
       <use xlink:href="#DejaVuSans-13"/>
       <use xlink:href="#DejaVuSans-11" transform="translate(63.625 0)"/>
       <use xlink:href="#DejaVuSans-18" transform="translate(95.40625 0)"/>
      </g>
     </g>
    </g>
    <g id="xtick_3">
     <g id="line2d_5">
      <path d="M 165.139007 233.820977 
L 165.139007 22.698047 
" clip-path="url(#pd8750645cf)" style="fill: none; stroke: #e1e0d9; stroke-width: 0.8; stroke-linecap: square"/>
     </g>
     <g id="line2d_6">
      <g>
       <use xlink:href="#m0d6c836569" x="165.139007" y="233.820977" style="fill: #898781; stroke: #898781; stroke-width: 0.8"/>
      </g>
     </g>
     <g id="text_3">
      <!-- 1.0 -->
      <g style="fill: #898781" transform="translate(156.789866 248.298516) scale(0.105 -0.105)">
       <defs>
        <path id="DejaVuSans-14" d="M 794 531 
L 1825 531 
L 1825 4091 
L 703 3866 
L 703 4441 
L 1819 4666 
L 2450 4666 
L 2450 531 
L 3481 531 
L 3481 0 
L 794 0 
L 794 531 
z
" transform="scale(0.015625)"/>
       </defs>
       <use xlink:href="#DejaVuSans-14"/>
       <use xlink:href="#DejaVuSans-11" transform="translate(63.625 0)"/>
       <use xlink:href="#DejaVuSans-13" transform="translate(95.40625 0)"/>
      </g>
     </g>
    </g>
    <g id="xtick_4">
     <g id="line2d_7">
      <path d="M 211.094123 233.820977 
L 211.094123 22.698047 
" clip-path="url(#pd8750645cf)" style="fill: none; stroke: #e1e0d9; stroke-width: 0.8; stroke-linecap: square"/>
     </g>
     <g id="line2d_8">
      <g>
       <use xlink:href="#m0d6c836569" x="211.094123" y="233.820977" style="fill: #898781; stroke: #898781; stroke-width: 0.8"/>
      </g>
     </g>
     <g id="text_4">
      <!-- 1.5 -->
      <g style="fill: #898781" transform="translate(202.744982 248.298516) scale(0.105 -0.105)">
       <use xlink:href="#DejaVuSans-14"/>
       <use xlink:href="#DejaVuSans-11" transform="translate(63.625 0)"/>
       <use xlink:href="#DejaVuSans-18" transform="translate(95.40625 0)"/>
      </g>
     </g>
    </g>
    <g id="xtick_5">
     <g id="line2d_9">
      <path d="M 257.049239 233.820977 
L 257.049239 22.698047 
" clip-path="url(#pd8750645cf)" style="fill: none; stroke: #e1e0d9; stroke-width: 0.8; stroke-linecap: square"/>
     </g>
     <g id="line2d_10">
      <g>
       <use xlink:href="#m0d6c836569" x="257.049239" y="233.820977" style="fill: #898781; stroke: #898781; stroke-width: 0.8"/>
      </g>
     </g>
     <g id="text_5">
      <!-- 2.0 -->
      <g style="fill: #898781" transform="translate(248.700098 248.298516) scale(0.105 -0.105)">
       <defs>
        <path id="DejaVuSans-15" d="M 1228 531 
L 3431 531 
L 3431 0 
L 469 0 
L 469 531 
Q 828 903 1448 1529 
Q 2069 2156 2228 2338 
Q 2531 2678 2651 2914 
Q 2772 3150 2772 3378 
Q 2772 3750 2511 3984 
Q 2250 4219 1831 4219 
Q 1534 4219 1204 4116 
Q 875 4013 500 3803 
L 500 4441 
Q 881 4594 1212 4672 
Q 1544 4750 1819 4750 
Q 2544 4750 2975 4387 
Q 3406 4025 3406 3419 
Q 3406 3131 3298 2873 
Q 3191 2616 2906 2266 
Q 2828 2175 2409 1742 
Q 1991 1309 1228 531 
z
" transform="scale(0.015625)"/>
       </defs>
       <use xlink:href="#DejaVuSans-15"/>
       <use xlink:href="#DejaVuSans-11" transform="translate(63.625 0)"/>
       <use xlink:href="#DejaVuSans-13" transform="translate(95.40625 0)"/>
      </g>
     </g>
    </g>
    <g id="xtick_6">
     <g id="line2d_11">
      <path d="M 303.004355 233.820977 
L 303.004355 22.698047 
" clip-path="url(#pd8750645cf)" style="fill: none; stroke: #e1e0d9; stroke-width: 0.8; stroke-linecap: square"/>
     </g>
     <g id="line2d_12">
      <g>
       <use xlink:href="#m0d6c836569" x="303.004355" y="233.820977" style="fill: #898781; stroke: #898781; stroke-width: 0.8"/>
      </g>
     </g>
     <g id="text_6">
      <!-- 2.5 -->
      <g style="fill: #898781" transform="translate(294.655214 248.298516) scale(0.105 -0.105)">
       <use xlink:href="#DejaVuSans-15"/>
       <use xlink:href="#DejaVuSans-11" transform="translate(63.625 0)"/>
       <use xlink:href="#DejaVuSans-18" transform="translate(95.40625 0)"/>
      </g>
     </g>
    </g>
    <g id="xtick_7">
     <g id="line2d_13">
      <path d="M 348.959471 233.820977 
L 348.959471 22.698047 
" clip-path="url(#pd8750645cf)" style="fill: none; stroke: #e1e0d9; stroke-width: 0.8; stroke-linecap: square"/>
     </g>
     <g id="line2d_14">
      <g>
       <use xlink:href="#m0d6c836569" x="348.959471" y="233.820977" style="fill: #898781; stroke: #898781; stroke-width: 0.8"/>
      </g>
     </g>
     <g id="text_7">
      <!-- 3.0 -->
      <g style="fill: #898781" transform="translate(340.61033 248.298516) scale(0.105 -0.105)">
       <defs>
        <path id="DejaVuSans-16" d="M 2597 2516 
Q 3050 2419 3304 2112 
Q 3559 1806 3559 1356 
Q 3559 666 3084 287 
Q 2609 -91 1734 -91 
Q 1441 -91 1130 -33 
Q 819 25 488 141 
L 488 750 
Q 750 597 1062 519 
Q 1375 441 1716 441 
Q 2309 441 2620 675 
Q 2931 909 2931 1356 
Q 2931 1769 2642 2001 
Q 2353 2234 1838 2234 
L 1294 2234 
L 1294 2753 
L 1863 2753 
Q 2328 2753 2575 2939 
Q 2822 3125 2822 3475 
Q 2822 3834 2567 4026 
Q 2313 4219 1838 4219 
Q 1578 4219 1281 4162 
Q 984 4106 628 3988 
L 628 4550 
Q 988 4650 1302 4700 
Q 1616 4750 1894 4750 
Q 2613 4750 3031 4423 
Q 3450 4097 3450 3541 
Q 3450 3153 3228 2886 
Q 3006 2619 2597 2516 
z
" transform="scale(0.015625)"/>
       </defs>
       <use xlink:href="#DejaVuSans-16"/>
       <use xlink:href="#DejaVuSans-11" transform="translate(63.625 0)"/>
       <use xlink:href="#DejaVuSans-13" transform="translate(95.40625 0)"/>
      </g>
     </g>
    </g>
    <g id="xtick_8">
     <g id="line2d_15">
      <path d="M 394.914587 233.820977 
L 394.914587 22.698047 
" clip-path="url(#pd8750645cf)" style="fill: none; stroke: #e1e0d9; stroke-width: 0.8; stroke-linecap: square"/>
     </g>
     <g id="line2d_16">
      <g>
       <use xlink:href="#m0d6c836569" x="394.914587" y="233.820977" style="fill: #898781; stroke: #898781; stroke-width: 0.8"/>
      </g>
     </g>
     <g id="text_8">
      <!-- 3.5 -->
      <g style="fill: #898781" transform="translate(386.565446 248.298516) scale(0.105 -0.105)">
       <use xlink:href="#DejaVuSans-16"/>
       <use xlink:href="#DejaVuSans-11" transform="translate(63.625 0)"/>
       <use xlink:href="#DejaVuSans-18" transform="translate(95.40625 0)"/>
      </g>
     </g>
    </g>
    <g id="xtick_9">
     <g id="line2d_17">
      <path d="M 440.869703 233.820977 
L 440.869703 22.698047 
" clip-path="url(#pd8750645cf)" style="fill: none; stroke: #e1e0d9; stroke-width: 0.8; stroke-linecap: square"/>
     </g>
     <g id="line2d_18">
      <g>
       <use xlink:href="#m0d6c836569" x="440.869703" y="233.820977" style="fill: #898781; stroke: #898781; stroke-width: 0.8"/>
      </g>
     </g>
     <g id="text_9">
      <!-- 4.0 -->
      <g style="fill: #898781" transform="translate(432.520562 248.298516) scale(0.105 -0.105)">
       <defs>
        <path id="DejaVuSans-17" d="M 2419 4116 
L 825 1625 
L 2419 1625 
L 2419 4116 
z
M 2253 4666 
L 3047 4666 
L 3047 1625 
L 3713 1625 
L 3713 1100 
L 3047 1100 
L 3047 0 
L 2419 0 
L 2419 1100 
L 313 1100 
L 313 1709 
L 2253 4666 
z
" transform="scale(0.015625)"/>
       </defs>
       <use xlink:href="#DejaVuSans-17"/>
       <use xlink:href="#DejaVuSans-11" transform="translate(63.625 0)"/>
       <use xlink:href="#DejaVuSans-13" transform="translate(95.40625 0)"/>
      </g>
     </g>
    </g>
    <g id="text_10">
     <!-- time on task (h)  →  accumulating work -->
     <g style="fill: #52514e" transform="translate(153.345586 262.799336) scale(0.105 -0.105)">
      <defs>
       <path id="DejaVuSans-57" d="M 1172 4494 
L 1172 3500 
L 2356 3500 
L 2356 3053 
L 1172 3053 
L 1172 1153 
Q 1172 725 1289 603 
Q 1406 481 1766 481 
L 2356 481 
L 2356 0 
L 1766 0 
Q 1100 0 847 248 
Q 594 497 594 1153 
L 594 3053 
L 172 3053 
L 172 3500 
L 594 3500 
L 594 4494 
L 1172 4494 
z
" transform="scale(0.015625)"/>
       <path id="DejaVuSans-4c" d="M 603 3500 
L 1178 3500 
L 1178 0 
L 603 0 
L 603 3500 
z
M 603 4863 
L 1178 4863 
L 1178 4134 
L 603 4134 
L 603 4863 
z
" transform="scale(0.015625)"/>
       <path id="DejaVuSans-50" d="M 3328 2828 
Q 3544 3216 3844 3400 
Q 4144 3584 4550 3584 
Q 5097 3584 5394 3201 
Q 5691 2819 5691 2113 
L 5691 0 
L 5113 0 
L 5113 2094 
Q 5113 2597 4934 2840 
Q 4756 3084 4391 3084 
Q 3944 3084 3684 2787 
Q 3425 2491 3425 1978 
L 3425 0 
L 2847 0 
L 2847 2094 
Q 2847 2600 2669 2842 
Q 2491 3084 2119 3084 
Q 1678 3084 1418 2786 
Q 1159 2488 1159 1978 
L 1159 0 
L 581 0 
L 581 3500 
L 1159 3500 
L 1159 2956 
Q 1356 3278 1631 3431 
Q 1906 3584 2284 3584 
Q 2666 3584 2933 3390 
Q 3200 3197 3328 2828 
z
" transform="scale(0.015625)"/>
       <path id="DejaVuSans-48" d="M 3597 1894 
L 3597 1613 
L 953 1613 
Q 991 1019 1311 708 
Q 1631 397 2203 397 
Q 2534 397 2845 478 
Q 3156 559 3463 722 
L 3463 178 
Q 3153 47 2828 -22 
Q 2503 -91 2169 -91 
Q 1331 -91 842 396 
Q 353 884 353 1716 
Q 353 2575 817 3079 
Q 1281 3584 2069 3584 
Q 2775 3584 3186 3129 
Q 3597 2675 3597 1894 
z
M 3022 2063 
Q 3016 2534 2758 2815 
Q 2500 3097 2075 3097 
Q 1594 3097 1305 2825 
Q 1016 2553 972 2059 
L 3022 2063 
z
" transform="scale(0.015625)"/>
       <path id="DejaVuSans-3" transform="scale(0.015625)"/>
       <path id="DejaVuSans-52" d="M 1959 3097 
Q 1497 3097 1228 2736 
Q 959 2375 959 1747 
Q 959 1119 1226 758 
Q 1494 397 1959 397 
Q 2419 397 2687 759 
Q 2956 1122 2956 1747 
Q 2956 2369 2687 2733 
Q 2419 3097 1959 3097 
z
M 1959 3584 
Q 2709 3584 3137 3096 
Q 3566 2609 3566 1747 
Q 3566 888 3137 398 
Q 2709 -91 1959 -91 
Q 1206 -91 779 398 
Q 353 888 353 1747 
Q 353 2609 779 3096 
Q 1206 3584 1959 3584 
z
" transform="scale(0.015625)"/>
       <path id="DejaVuSans-51" d="M 3513 2113 
L 3513 0 
L 2938 0 
L 2938 2094 
Q 2938 2591 2744 2837 
Q 2550 3084 2163 3084 
Q 1697 3084 1428 2787 
Q 1159 2491 1159 1978 
L 1159 0 
L 581 0 
L 581 3500 
L 1159 3500 
L 1159 2956 
Q 1366 3272 1645 3428 
Q 1925 3584 2291 3584 
Q 2894 3584 3203 3211 
Q 3513 2838 3513 2113 
z
" transform="scale(0.015625)"/>
       <path id="DejaVuSans-44" d="M 2194 1759 
Q 1497 1759 1228 1600 
Q 959 1441 959 1056 
Q 959 750 1161 570 
Q 1363 391 1709 391 
Q 2188 391 2477 730 
Q 2766 1069 2766 1631 
L 2766 1759 
L 2194 1759 
z
M 3341 1997 
L 3341 0 
L 2766 0 
L 2766 531 
Q 2569 213 2275 61 
Q 1981 -91 1556 -91 
Q 1019 -91 701 211 
Q 384 513 384 1019 
Q 384 1609 779 1909 
Q 1175 2209 1959 2209 
L 2766 2209 
L 2766 2266 
Q 2766 2663 2505 2880 
Q 2244 3097 1772 3097 
Q 1472 3097 1187 3025 
Q 903 2953 641 2809 
L 641 3341 
Q 956 3463 1253 3523 
Q 1550 3584 1831 3584 
Q 2591 3584 2966 3190 
Q 3341 2797 3341 1997 
z
" transform="scale(0.015625)"/>
       <path id="DejaVuSans-56" d="M 2834 3397 
L 2834 2853 
Q 2591 2978 2328 3040 
Q 2066 3103 1784 3103 
Q 1356 3103 1142 2972 
Q 928 2841 928 2578 
Q 928 2378 1081 2264 
Q 1234 2150 1697 2047 
L 1894 2003 
Q 2506 1872 2764 1633 
Q 3022 1394 3022 966 
Q 3022 478 2636 193 
Q 2250 -91 1575 -91 
Q 1294 -91 989 -36 
Q 684 19 347 128 
L 347 722 
Q 666 556 975 473 
Q 1284 391 1588 391 
Q 1994 391 2212 530 
Q 2431 669 2431 922 
Q 2431 1156 2273 1281 
Q 2116 1406 1581 1522 
L 1381 1569 
Q 847 1681 609 1914 
Q 372 2147 372 2553 
Q 372 3047 722 3315 
Q 1072 3584 1716 3584 
Q 2034 3584 2315 3537 
Q 2597 3491 2834 3397 
z
" transform="scale(0.015625)"/>
       <path id="DejaVuSans-4e" d="M 581 4863 
L 1159 4863 
L 1159 1991 
L 2875 3500 
L 3609 3500 
L 1753 1863 
L 3688 0 
L 2938 0 
L 1159 1709 
L 1159 0 
L 581 0 
L 581 4863 
z
" transform="scale(0.015625)"/>
       <path id="DejaVuSans-b" d="M 1984 4856 
Q 1566 4138 1362 3434 
Q 1159 2731 1159 2009 
Q 1159 1288 1364 580 
Q 1569 -128 1984 -844 
L 1484 -844 
Q 1016 -109 783 600 
Q 550 1309 550 2009 
Q 550 2706 781 3412 
Q 1013 4119 1484 4856 
L 1984 4856 
z
" transform="scale(0.015625)"/>
       <path id="DejaVuSans-4b" d="M 3513 2113 
L 3513 0 
L 2938 0 
L 2938 2094 
Q 2938 2591 2744 2837 
Q 2550 3084 2163 3084 
Q 1697 3084 1428 2787 
Q 1159 2491 1159 1978 
L 1159 0 
L 581 0 
L 581 4863 
L 1159 4863 
L 1159 2956 
Q 1366 3272 1645 3428 
Q 1925 3584 2291 3584 
Q 2894 3584 3203 3211 
Q 3513 2838 3513 2113 
z
" transform="scale(0.015625)"/>
       <path id="DejaVuSans-c" d="M 513 4856 
L 1013 4856 
Q 1481 4119 1714 3412 
Q 1947 2706 1947 2009 
Q 1947 1309 1714 600 
Q 1481 -109 1013 -844 
L 513 -844 
Q 928 -128 1133 580 
Q 1338 1288 1338 2009 
Q 1338 2731 1133 3434 
Q 928 4138 513 4856 
z
" transform="scale(0.015625)"/>
       <path id="DejaVuSans-c1c" d="M 5050 2147 
L 5050 1866 
L 3822 638 
L 3447 1013 
L 4175 1741 
L 366 1741 
L 366 2272 
L 4175 2272 
L 3447 3000 
L 3822 3375 
L 5050 2147 
z
" transform="scale(0.015625)"/>
       <path id="DejaVuSans-46" d="M 3122 3366 
L 3122 2828 
Q 2878 2963 2633 3030 
Q 2388 3097 2138 3097 
Q 1578 3097 1268 2742 
Q 959 2388 959 1747 
Q 959 1106 1268 751 
Q 1578 397 2138 397 
Q 2388 397 2633 464 
Q 2878 531 3122 666 
L 3122 134 
Q 2881 22 2623 -34 
Q 2366 -91 2075 -91 
Q 1284 -91 818 406 
Q 353 903 353 1747 
Q 353 2603 823 3093 
Q 1294 3584 2113 3584 
Q 2378 3584 2631 3529 
Q 2884 3475 3122 3366 
z
" transform="scale(0.015625)"/>
       <path id="DejaVuSans-58" d="M 544 1381 
L 544 3500 
L 1119 3500 
L 1119 1403 
Q 1119 906 1312 657 
Q 1506 409 1894 409 
Q 2359 409 2629 706 
Q 2900 1003 2900 1516 
L 2900 3500 
L 3475 3500 
L 3475 0 
L 2900 0 
L 2900 538 
Q 2691 219 2414 64 
Q 2138 -91 1772 -91 
Q 1169 -91 856 284 
Q 544 659 544 1381 
z
M 1991 3584 
L 1991 3584 
z
" transform="scale(0.015625)"/>
       <path id="DejaVuSans-4f" d="M 603 4863 
L 1178 4863 
L 1178 0 
L 603 0 
L 603 4863 
z
" transform="scale(0.015625)"/>
       <path id="DejaVuSans-4a" d="M 2906 1791 
Q 2906 2416 2648 2759 
Q 2391 3103 1925 3103 
Q 1463 3103 1205 2759 
Q 947 2416 947 1791 
Q 947 1169 1205 825 
Q 1463 481 1925 481 
Q 2391 481 2648 825 
Q 2906 1169 2906 1791 
z
M 3481 434 
Q 3481 -459 3084 -895 
Q 2688 -1331 1869 -1331 
Q 1566 -1331 1297 -1286 
Q 1028 -1241 775 -1147 
L 775 -588 
Q 1028 -725 1275 -790 
Q 1522 -856 1778 -856 
Q 2344 -856 2625 -561 
Q 2906 -266 2906 331 
L 2906 616 
Q 2728 306 2450 153 
Q 2172 0 1784 0 
Q 1141 0 747 490 
Q 353 981 353 1791 
Q 353 2603 747 3093 
Q 1141 3584 1784 3584 
Q 2172 3584 2450 3431 
Q 2728 3278 2906 2969 
L 2906 3500 
L 3481 3500 
L 3481 434 
z
" transform="scale(0.015625)"/>
       <path id="DejaVuSans-5a" d="M 269 3500 
L 844 3500 
L 1563 769 
L 2278 3500 
L 2956 3500 
L 3675 769 
L 4391 3500 
L 4966 3500 
L 4050 0 
L 3372 0 
L 2619 2869 
L 1863 0 
L 1184 0 
L 269 3500 
z
" transform="scale(0.015625)"/>
       <path id="DejaVuSans-55" d="M 2631 2963 
Q 2534 3019 2420 3045 
Q 2306 3072 2169 3072 
Q 1681 3072 1420 2755 
Q 1159 2438 1159 1844 
L 1159 0 
L 581 0 
L 581 3500 
L 1159 3500 
L 1159 2956 
Q 1341 3275 1631 3429 
Q 1922 3584 2338 3584 
Q 2397 3584 2469 3576 
Q 2541 3569 2628 3553 
L 2631 2963 
z
" transform="scale(0.015625)"/>
      </defs>
      <use xlink:href="#DejaVuSans-57"/>
      <use xlink:href="#DejaVuSans-4c" transform="translate(39.203125 0)"/>
      <use xlink:href="#DejaVuSans-50" transform="translate(66.984375 0)"/>
      <use xlink:href="#DejaVuSans-48" transform="translate(164.390625 0)"/>
      <use xlink:href="#DejaVuSans-3" transform="translate(225.921875 0)"/>
      <use xlink:href="#DejaVuSans-52" transform="translate(257.703125 0)"/>
      <use xlink:href="#DejaVuSans-51" transform="translate(318.890625 0)"/>
      <use xlink:href="#DejaVuSans-3" transform="translate(382.265625 0)"/>
      <use xlink:href="#DejaVuSans-57" transform="translate(414.046875 0)"/>
      <use xlink:href="#DejaVuSans-44" transform="translate(453.25 0)"/>
      <use xlink:href="#DejaVuSans-56" transform="translate(514.53125 0)"/>
      <use xlink:href="#DejaVuSans-4e" transform="translate(566.625 0)"/>
      <use xlink:href="#DejaVuSans-3" transform="translate(624.53125 0)"/>
      <use xlink:href="#DejaVuSans-b" transform="translate(656.3125 0)"/>
      <use xlink:href="#DejaVuSans-4b" transform="translate(695.328125 0)"/>
      <use xlink:href="#DejaVuSans-c" transform="translate(758.703125 0)"/>
      <use xlink:href="#DejaVuSans-3" transform="translate(797.71875 0)"/>
      <use xlink:href="#DejaVuSans-3" transform="translate(829.5 0)"/>
      <use xlink:href="#DejaVuSans-c1c" transform="translate(861.28125 0)"/>
      <use xlink:href="#DejaVuSans-3" transform="translate(945.078125 0)"/>
      <use xlink:href="#DejaVuSans-3" transform="translate(976.859375 0)"/>
      <use xlink:href="#DejaVuSans-44" transform="translate(1008.640625 0)"/>
      <use xlink:href="#DejaVuSans-46" transform="translate(1069.921875 0)"/>
      <use xlink:href="#DejaVuSans-46" transform="translate(1124.90625 0)"/>
      <use xlink:href="#DejaVuSans-58" transform="translate(1179.890625 0)"/>
      <use xlink:href="#DejaVuSans-50" transform="translate(1243.265625 0)"/>
      <use xlink:href="#DejaVuSans-58" transform="translate(1340.671875 0)"/>
      <use xlink:href="#DejaVuSans-4f" transform="translate(1404.046875 0)"/>
      <use xlink:href="#DejaVuSans-44" transform="translate(1431.828125 0)"/>
      <use xlink:href="#DejaVuSans-57" transform="translate(1493.109375 0)"/>
      <use xlink:href="#DejaVuSans-4c" transform="translate(1532.3125 0)"/>
      <use xlink:href="#DejaVuSans-51" transform="translate(1560.09375 0)"/>
      <use xlink:href="#DejaVuSans-4a" transform="translate(1623.46875 0)"/>
      <use xlink:href="#DejaVuSans-3" transform="translate(1686.953125 0)"/>
      <use xlink:href="#DejaVuSans-5a" transform="translate(1718.734375 0)"/>
      <use xlink:href="#DejaVuSans-52" transform="translate(1800.515625 0)"/>
      <use xlink:href="#DejaVuSans-55" transform="translate(1861.703125 0)"/>
      <use xlink:href="#DejaVuSans-4e" transform="translate(1902.8125 0)"/>
     </g>
    </g>
   </g>
   <g id="matplotlib.axis_2">
    <g id="ytick_1">
     <g id="line2d_19">
      <path d="M 54.92332 224.240274 
L 457.64332 224.240274 
" clip-path="url(#pd8750645cf)" style="fill: none; stroke: #e1e0d9; stroke-width: 0.8; stroke-linecap: square"/>
     </g>
     <g id="line2d_20">
      <defs>
       <path id="m1a9036eb63" d="M 0 0 
L -3 0 
" style="stroke: #898781; stroke-width: 0.8"/>
      </defs>
      <g>
       <use xlink:href="#m1a9036eb63" x="54.92332" y="224.240274" style="fill: #898781; stroke: #898781; stroke-width: 0.8"/>
      </g>
     </g>
     <g id="text_11">
      <!-- 0 -->
      <g style="fill: #898781" transform="translate(41.742695 228.229043) scale(0.105 -0.105)">
       <use xlink:href="#DejaVuSans-13"/>
      </g>
     </g>
    </g>
    <g id="ytick_2">
     <g id="line2d_21">
      <path d="M 54.92332 198.783252 
L 457.64332 198.783252 
" clip-path="url(#pd8750645cf)" style="fill: none; stroke: #e1e0d9; stroke-width: 0.8; stroke-linecap: square"/>
     </g>
     <g id="line2d_22">
      <g>
       <use xlink:href="#m1a9036eb63" x="54.92332" y="198.783252" style="fill: #898781; stroke: #898781; stroke-width: 0.8"/>
      </g>
     </g>
     <g id="text_12">
      <!-- 500 -->
      <g style="fill: #898781" transform="translate(28.381445 202.772022) scale(0.105 -0.105)">
       <use xlink:href="#DejaVuSans-18"/>
       <use xlink:href="#DejaVuSans-13" transform="translate(63.625 0)"/>
       <use xlink:href="#DejaVuSans-13" transform="translate(127.25 0)"/>
      </g>
     </g>
    </g>
    <g id="ytick_3">
     <g id="line2d_23">
      <path d="M 54.92332 173.326231 
L 457.64332 173.326231 
" clip-path="url(#pd8750645cf)" style="fill: none; stroke: #e1e0d9; stroke-width: 0.8; stroke-linecap: square"/>
     </g>
     <g id="line2d_24">
      <g>
       <use xlink:href="#m1a9036eb63" x="54.92332" y="173.326231" style="fill: #898781; stroke: #898781; stroke-width: 0.8"/>
      </g>
     </g>
     <g id="text_13">
      <!-- 1000 -->
      <g style="fill: #898781" transform="translate(21.70082 177.315001) scale(0.105 -0.105)">
       <use xlink:href="#DejaVuSans-14"/>
       <use xlink:href="#DejaVuSans-13" transform="translate(63.625 0)"/>
       <use xlink:href="#DejaVuSans-13" transform="translate(127.25 0)"/>
       <use xlink:href="#DejaVuSans-13" transform="translate(190.875 0)"/>
      </g>
     </g>
    </g>
    <g id="ytick_4">
     <g id="line2d_25">
      <path d="M 54.92332 147.86921 
L 457.64332 147.86921 
" clip-path="url(#pd8750645cf)" style="fill: none; stroke: #e1e0d9; stroke-width: 0.8; stroke-linecap: square"/>
     </g>
     <g id="line2d_26">
      <g>
       <use xlink:href="#m1a9036eb63" x="54.92332" y="147.86921" style="fill: #898781; stroke: #898781; stroke-width: 0.8"/>
      </g>
     </g>
     <g id="text_14">
      <!-- 1500 -->
      <g style="fill: #898781" transform="translate(21.70082 151.85798) scale(0.105 -0.105)">
       <use xlink:href="#DejaVuSans-14"/>
       <use xlink:href="#DejaVuSans-18" transform="translate(63.625 0)"/>
       <use xlink:href="#DejaVuSans-13" transform="translate(127.25 0)"/>
       <use xlink:href="#DejaVuSans-13" transform="translate(190.875 0)"/>
      </g>
     </g>
    </g>
    <g id="ytick_5">
     <g id="line2d_27">
      <path d="M 54.92332 122.412189 
L 457.64332 122.412189 
" clip-path="url(#pd8750645cf)" style="fill: none; stroke: #e1e0d9; stroke-width: 0.8; stroke-linecap: square"/>
     </g>
     <g id="line2d_28">
      <g>
       <use xlink:href="#m1a9036eb63" x="54.92332" y="122.412189" style="fill: #898781; stroke: #898781; stroke-width: 0.8"/>
      </g>
     </g>
     <g id="text_15">
      <!-- 2000 -->
      <g style="fill: #898781" transform="translate(21.70082 126.400959) scale(0.105 -0.105)">
       <use xlink:href="#DejaVuSans-15"/>
       <use xlink:href="#DejaVuSans-13" transform="translate(63.625 0)"/>
       <use xlink:href="#DejaVuSans-13" transform="translate(127.25 0)"/>
       <use xlink:href="#DejaVuSans-13" transform="translate(190.875 0)"/>
      </g>
     </g>
    </g>
    <g id="ytick_6">
     <g id="line2d_29">
      <path d="M 54.92332 96.955168 
L 457.64332 96.955168 
" clip-path="url(#pd8750645cf)" style="fill: none; stroke: #e1e0d9; stroke-width: 0.8; stroke-linecap: square"/>
     </g>
     <g id="line2d_30">
      <g>
       <use xlink:href="#m1a9036eb63" x="54.92332" y="96.955168" style="fill: #898781; stroke: #898781; stroke-width: 0.8"/>
      </g>
     </g>
     <g id="text_16">
      <!-- 2500 -->
      <g style="fill: #898781" transform="translate(21.70082 100.943938) scale(0.105 -0.105)">
       <use xlink:href="#DejaVuSans-15"/>
       <use xlink:href="#DejaVuSans-18" transform="translate(63.625 0)"/>
       <use xlink:href="#DejaVuSans-13" transform="translate(127.25 0)"/>
       <use xlink:href="#DejaVuSans-13" transform="translate(190.875 0)"/>
      </g>
     </g>
    </g>
    <g id="ytick_7">
     <g id="line2d_31">
      <path d="M 54.92332 71.498147 
L 457.64332 71.498147 
" clip-path="url(#pd8750645cf)" style="fill: none; stroke: #e1e0d9; stroke-width: 0.8; stroke-linecap: square"/>
     </g>
     <g id="line2d_32">
      <g>
       <use xlink:href="#m1a9036eb63" x="54.92332" y="71.498147" style="fill: #898781; stroke: #898781; stroke-width: 0.8"/>
      </g>
     </g>
     <g id="text_17">
      <!-- 3000 -->
      <g style="fill: #898781" transform="translate(21.70082 75.486917) scale(0.105 -0.105)">
       <use xlink:href="#DejaVuSans-16"/>
       <use xlink:href="#DejaVuSans-13" transform="translate(63.625 0)"/>
       <use xlink:href="#DejaVuSans-13" transform="translate(127.25 0)"/>
       <use xlink:href="#DejaVuSans-13" transform="translate(190.875 0)"/>
      </g>
     </g>
    </g>
    <g id="ytick_8">
     <g id="line2d_33">
      <path d="M 54.92332 46.041126 
L 457.64332 46.041126 
" clip-path="url(#pd8750645cf)" style="fill: none; stroke: #e1e0d9; stroke-width: 0.8; stroke-linecap: square"/>
     </g>
     <g id="line2d_34">
      <g>
       <use xlink:href="#m1a9036eb63" x="54.92332" y="46.041126" style="fill: #898781; stroke: #898781; stroke-width: 0.8"/>
      </g>
     </g>
     <g id="text_18">
      <!-- 3500 -->
      <g style="fill: #898781" transform="translate(21.70082 50.029896) scale(0.105 -0.105)">
       <use xlink:href="#DejaVuSans-16"/>
       <use xlink:href="#DejaVuSans-18" transform="translate(63.625 0)"/>
       <use xlink:href="#DejaVuSans-13" transform="translate(127.25 0)"/>
       <use xlink:href="#DejaVuSans-13" transform="translate(190.875 0)"/>
      </g>
     </g>
    </g>
    <g id="text_19">
     <!-- kJ -->
     <g style="fill: #52514e" transform="translate(15.178359 132.84834) rotate(-90) scale(0.105 -0.105)">
      <defs>
       <path id="DejaVuSans-2d" d="M 628 4666 
L 1259 4666 
L 1259 325 
Q 1259 -519 939 -900 
Q 619 -1281 -91 -1281 
L -331 -1281 
L -331 -750 
L -134 -750 
Q 284 -750 456 -515 
Q 628 -281 628 325 
L 628 4666 
z
" transform="scale(0.015625)"/>
      </defs>
      <use xlink:href="#DejaVuSans-4e"/>
      <use xlink:href="#DejaVuSans-2d" transform="translate(57.90625 0)"/>
     </g>
    </g>
   </g>
   <g id="line2d_35">
    <path d="M 73.228775 224.21524 
L 80.887961 217.338242 
L 103.865519 208.153621 
L 111.524705 201.278394 
L 134.502263 192.093401 
L 142.161449 185.252679 
L 165.139007 176.07848 
L 172.798193 169.231824 
L 195.775751 160.057519 
L 203.434937 153.179838 
L 226.412495 144.003236 
L 234.071681 137.126486 
L 257.049239 127.955811 
L 264.708425 121.119753 
L 287.685983 111.93765 
L 295.345169 105.032825 
L 318.322727 95.860848 
L 325.981913 89.018947 
L 348.959471 79.839701 
L 356.618657 72.962116 
L 379.596215 63.778526 
L 387.255401 56.894932 
L 410.232959 47.718576 
L 417.892145 40.849248 
L 439.337866 32.294544 
L 439.337866 32.294544 
" clip-path="url(#pd8750645cf)" style="fill: none; stroke: #2a78d6; stroke-width: 2.4; stroke-linecap: square"/>
   </g>
   <g id="line2d_36">
    <path d="M 73.228775 224.22448 
L 80.887961 219.643995 
L 103.865519 210.468034 
L 111.524705 205.887976 
L 134.502263 196.711573 
L 142.161449 192.140557 
L 165.139007 182.972958 
L 172.798193 178.400042 
L 195.775751 169.23259 
L 203.434937 164.652225 
L 226.412495 155.483893 
L 234.071681 150.903574 
L 257.049239 141.739129 
L 264.708425 137.169147 
L 287.685983 127.995212 
L 295.345169 123.408283 
L 318.322727 114.244371 
L 325.981913 109.672887 
L 348.959471 100.501636 
L 356.618657 95.920338 
L 379.596215 86.743906 
L 387.255401 82.161934 
L 410.232959 72.992801 
L 417.892145 68.41427 
L 439.337866 59.859566 
L 439.337866 59.859566 
" clip-path="url(#pd8750645cf)" style="fill: none; stroke-dasharray: 6.66,2.88; stroke-dashoffset: 0; stroke: #898781; stroke-width: 1.8"/>
   </g>
   <g id="line2d_37">
    <path d="M 54.92332 147.86921 
L 457.64332 147.86921 
" clip-path="url(#pd8750645cf)" style="fill: none; stroke-dasharray: 1.1,1.815; stroke-dashoffset: 0; stroke: #a9760a; stroke-width: 1.1"/>
   </g>
   <g id="line2d_38">
    <path d="M 54.92332 96.955168 
L 457.64332 96.955168 
" clip-path="url(#pd8750645cf)" style="fill: none; stroke-dasharray: 1.1,1.815; stroke-dashoffset: 0; stroke: #d03b3b; stroke-width: 1.1"/>
   </g>
   <g id="patch_3">
    <path d="M 54.92332 233.820977 
L 54.92332 22.698047 
" style="fill: none; stroke: #c3c2b7; stroke-width: 0.9; stroke-linejoin: miter; stroke-linecap: square"/>
   </g>
   <g id="patch_4">
    <path d="M 54.92332 233.820977 
L 457.64332 233.820977 
" style="fill: none; stroke: #c3c2b7; stroke-width: 0.9; stroke-linejoin: miter; stroke-linecap: square"/>
   </g>
   <g id="text_20">
    <!-- weighting -->
    <g style="fill: #52514e" transform="translate(280.544536 120.145902) scale(0.08 -0.08)">
     <use xlink:href="#DejaVuSans-5a"/>
     <use xlink:href="#DejaVuSans-48" transform="translate(81.78125 0)"/>
     <use xlink:href="#DejaVuSans-4c" transform="translate(143.3125 0)"/>
     <use xlink:href="#DejaVuSans-4a" transform="translate(171.09375 0)"/>
     <use xlink:href="#DejaVuSans-4b" transform="translate(234.578125 0)"/>
     <use xlink:href="#DejaVuSans-57" transform="translate(297.953125 0)"/>
     <use xlink:href="#DejaVuSans-4c" transform="translate(337.15625 0)"/>
     <use xlink:href="#DejaVuSans-51" transform="translate(364.9375 0)"/>
     <use xlink:href="#DejaVuSans-4a" transform="translate(428.3125 0)"/>
    </g>
    <!-- diverges on -->
    <g style="fill: #52514e" transform="translate(276.824536 129.748089) scale(0.08 -0.08)">
     <defs>
      <path id="DejaVuSans-47" d="M 2906 2969 
L 2906 4863 
L 3481 4863 
L 3481 0 
L 2906 0 
L 2906 525 
Q 2725 213 2448 61 
Q 2172 -91 1784 -91 
Q 1150 -91 751 415 
Q 353 922 353 1747 
Q 353 2572 751 3078 
Q 1150 3584 1784 3584 
Q 2172 3584 2448 3432 
Q 2725 3281 2906 2969 
z
M 947 1747 
Q 947 1113 1208 752 
Q 1469 391 1925 391 
Q 2381 391 2643 752 
Q 2906 1113 2906 1747 
Q 2906 2381 2643 2742 
Q 2381 3103 1925 3103 
Q 1469 3103 1208 2742 
Q 947 2381 947 1747 
z
" transform="scale(0.015625)"/>
      <path id="DejaVuSans-59" d="M 191 3500 
L 800 3500 
L 1894 563 
L 2988 3500 
L 3597 3500 
L 2284 0 
L 1503 0 
L 191 3500 
z
" transform="scale(0.015625)"/>
     </defs>
     <use xlink:href="#DejaVuSans-47"/>
     <use xlink:href="#DejaVuSans-4c" transform="translate(63.484375 0)"/>
     <use xlink:href="#DejaVuSans-59" transform="translate(91.265625 0)"/>
     <use xlink:href="#DejaVuSans-48" transform="translate(150.453125 0)"/>
     <use xlink:href="#DejaVuSans-55" transform="translate(211.984375 0)"/>
     <use xlink:href="#DejaVuSans-4a" transform="translate(251.34375 0)"/>
     <use xlink:href="#DejaVuSans-48" transform="translate(314.828125 0)"/>
     <use xlink:href="#DejaVuSans-56" transform="translate(376.359375 0)"/>
     <use xlink:href="#DejaVuSans-3" transform="translate(428.453125 0)"/>
     <use xlink:href="#DejaVuSans-52" transform="translate(460.234375 0)"/>
     <use xlink:href="#DejaVuSans-51" transform="translate(521.421875 0)"/>
    </g>
    <!-- supra-CP surges -->
    <g style="fill: #52514e" transform="translate(267.765786 139.349652) scale(0.08 -0.08)">
     <defs>
      <path id="DejaVuSans-53" d="M 1159 525 
L 1159 -1331 
L 581 -1331 
L 581 3500 
L 1159 3500 
L 1159 2969 
Q 1341 3281 1617 3432 
Q 1894 3584 2278 3584 
Q 2916 3584 3314 3078 
Q 3713 2572 3713 1747 
Q 3713 922 3314 415 
Q 2916 -91 2278 -91 
Q 1894 -91 1617 61 
Q 1341 213 1159 525 
z
M 3116 1747 
Q 3116 2381 2855 2742 
Q 2594 3103 2138 3103 
Q 1681 3103 1420 2742 
Q 1159 2381 1159 1747 
Q 1159 1113 1420 752 
Q 1681 391 2138 391 
Q 2594 391 2855 752 
Q 3116 1113 3116 1747 
z
" transform="scale(0.015625)"/>
      <path id="DejaVuSans-10" d="M 313 2009 
L 1997 2009 
L 1997 1497 
L 313 1497 
L 313 2009 
z
" transform="scale(0.015625)"/>
      <path id="DejaVuSans-26" d="M 4122 4306 
L 4122 3641 
Q 3803 3938 3442 4084 
Q 3081 4231 2675 4231 
Q 1875 4231 1450 3742 
Q 1025 3253 1025 2328 
Q 1025 1406 1450 917 
Q 1875 428 2675 428 
Q 3081 428 3442 575 
Q 3803 722 4122 1019 
L 4122 359 
Q 3791 134 3420 21 
Q 3050 -91 2638 -91 
Q 1578 -91 968 557 
Q 359 1206 359 2328 
Q 359 3453 968 4101 
Q 1578 4750 2638 4750 
Q 3056 4750 3426 4639 
Q 3797 4528 4122 4306 
z
" transform="scale(0.015625)"/>
      <path id="DejaVuSans-33" d="M 1259 4147 
L 1259 2394 
L 2053 2394 
Q 2494 2394 2734 2622 
Q 2975 2850 2975 3272 
Q 2975 3691 2734 3919 
Q 2494 4147 2053 4147 
L 1259 4147 
z
M 628 4666 
L 2053 4666 
Q 2838 4666 3239 4311 
Q 3641 3956 3641 3272 
Q 3641 2581 3239 2228 
Q 2838 1875 2053 1875 
L 1259 1875 
L 1259 0 
L 628 0 
L 628 4666 
z
" transform="scale(0.015625)"/>
     </defs>
     <use xlink:href="#DejaVuSans-56"/>
     <use xlink:href="#DejaVuSans-58" transform="translate(52.09375 0)"/>
     <use xlink:href="#DejaVuSans-53" transform="translate(115.46875 0)"/>
     <use xlink:href="#DejaVuSans-55" transform="translate(178.953125 0)"/>
     <use xlink:href="#DejaVuSans-44" transform="translate(220.0625 0)"/>
     <use xlink:href="#DejaVuSans-10" transform="translate(281.34375 0)"/>
     <use xlink:href="#DejaVuSans-26" transform="translate(317.421875 0)"/>
     <use xlink:href="#DejaVuSans-33" transform="translate(387.25 0)"/>
     <use xlink:href="#DejaVuSans-3" transform="translate(447.546875 0)"/>
     <use xlink:href="#DejaVuSans-56" transform="translate(479.328125 0)"/>
     <use xlink:href="#DejaVuSans-58" transform="translate(531.421875 0)"/>
     <use xlink:href="#DejaVuSans-55" transform="translate(594.796875 0)"/>
     <use xlink:href="#DejaVuSans-4a" transform="translate(634.15625 0)"/>
     <use xlink:href="#DejaVuSans-48" transform="translate(697.640625 0)"/>
     <use xlink:href="#DejaVuSans-56" transform="translate(759.171875 0)"/>
    </g>
   </g>
   <g id="text_21">
    <!-- developing anchor ~1500 kJ -->
    <g style="fill: #a9760a" transform="translate(77.824286 145.832649) scale(0.083 -0.083)">
     <defs>
      <path id="DejaVuSans-Bold-47" d="M 2919 2988 
L 2919 4863 
L 4044 4863 
L 4044 0 
L 2919 0 
L 2919 506 
Q 2688 197 2409 53 
Q 2131 -91 1766 -91 
Q 1119 -91 703 423 
Q 288 938 288 1747 
Q 288 2556 703 3070 
Q 1119 3584 1766 3584 
Q 2128 3584 2408 3439 
Q 2688 3294 2919 2988 
z
M 2181 722 
Q 2541 722 2730 984 
Q 2919 1247 2919 1747 
Q 2919 2247 2730 2509 
Q 2541 2772 2181 2772 
Q 1825 2772 1636 2509 
Q 1447 2247 1447 1747 
Q 1447 1247 1636 984 
Q 1825 722 2181 722 
z
" transform="scale(0.015625)"/>
      <path id="DejaVuSans-Bold-48" d="M 4031 1759 
L 4031 1441 
L 1416 1441 
Q 1456 1047 1700 850 
Q 1944 653 2381 653 
Q 2734 653 3104 758 
Q 3475 863 3866 1075 
L 3866 213 
Q 3469 63 3072 -14 
Q 2675 -91 2278 -91 
Q 1328 -91 801 392 
Q 275 875 275 1747 
Q 275 2603 792 3093 
Q 1309 3584 2216 3584 
Q 3041 3584 3536 3087 
Q 4031 2591 4031 1759 
z
M 2881 2131 
Q 2881 2450 2695 2645 
Q 2509 2841 2209 2841 
Q 1884 2841 1681 2658 
Q 1478 2475 1428 2131 
L 2881 2131 
z
" transform="scale(0.015625)"/>
      <path id="DejaVuSans-Bold-59" d="M 97 3500 
L 1216 3500 
L 2088 1081 
L 2956 3500 
L 4078 3500 
L 2700 0 
L 1472 0 
L 97 3500 
z
" transform="scale(0.015625)"/>
      <path id="DejaVuSans-Bold-4f" d="M 538 4863 
L 1656 4863 
L 1656 0 
L 538 0 
L 538 4863 
z
" transform="scale(0.015625)"/>
      <path id="DejaVuSans-Bold-52" d="M 2203 2784 
Q 1831 2784 1636 2517 
Q 1441 2250 1441 1747 
Q 1441 1244 1636 976 
Q 1831 709 2203 709 
Q 2569 709 2762 976 
Q 2956 1244 2956 1747 
Q 2956 2250 2762 2517 
Q 2569 2784 2203 2784 
z
M 2203 3584 
Q 3106 3584 3614 3096 
Q 4122 2609 4122 1747 
Q 4122 884 3614 396 
Q 3106 -91 2203 -91 
Q 1297 -91 786 396 
Q 275 884 275 1747 
Q 275 2609 786 3096 
Q 1297 3584 2203 3584 
z
" transform="scale(0.015625)"/>
      <path id="DejaVuSans-Bold-53" d="M 1656 506 
L 1656 -1331 
L 538 -1331 
L 538 3500 
L 1656 3500 
L 1656 2988 
Q 1888 3294 2169 3439 
Q 2450 3584 2816 3584 
Q 3463 3584 3878 3070 
Q 4294 2556 4294 1747 
Q 4294 938 3878 423 
Q 3463 -91 2816 -91 
Q 2450 -91 2169 54 
Q 1888 200 1656 506 
z
M 2400 2772 
Q 2041 2772 1848 2508 
Q 1656 2244 1656 1747 
Q 1656 1250 1848 986 
Q 2041 722 2400 722 
Q 2759 722 2948 984 
Q 3138 1247 3138 1747 
Q 3138 2247 2948 2509 
Q 2759 2772 2400 2772 
z
" transform="scale(0.015625)"/>
      <path id="DejaVuSans-Bold-4c" d="M 538 3500 
L 1656 3500 
L 1656 0 
L 538 0 
L 538 3500 
z
M 538 4863 
L 1656 4863 
L 1656 3950 
L 538 3950 
L 538 4863 
z
" transform="scale(0.015625)"/>
      <path id="DejaVuSans-Bold-51" d="M 4056 2131 
L 4056 0 
L 2931 0 
L 2931 347 
L 2931 1631 
Q 2931 2084 2911 2256 
Q 2891 2428 2841 2509 
Q 2775 2619 2662 2680 
Q 2550 2741 2406 2741 
Q 2056 2741 1856 2470 
Q 1656 2200 1656 1722 
L 1656 0 
L 538 0 
L 538 3500 
L 1656 3500 
L 1656 2988 
Q 1909 3294 2193 3439 
Q 2478 3584 2822 3584 
Q 3428 3584 3742 3212 
Q 4056 2841 4056 2131 
z
" transform="scale(0.015625)"/>
      <path id="DejaVuSans-Bold-4a" d="M 2919 594 
Q 2688 288 2409 144 
Q 2131 0 1766 0 
Q 1125 0 706 504 
Q 288 1009 288 1791 
Q 288 2575 706 3076 
Q 1125 3578 1766 3578 
Q 2131 3578 2409 3434 
Q 2688 3291 2919 2981 
L 2919 3500 
L 4044 3500 
L 4044 353 
Q 4044 -491 3511 -936 
Q 2978 -1381 1966 -1381 
Q 1638 -1381 1331 -1331 
Q 1025 -1281 716 -1178 
L 716 -306 
Q 1009 -475 1290 -558 
Q 1572 -641 1856 -641 
Q 2406 -641 2662 -400 
Q 2919 -159 2919 353 
L 2919 594 
z
M 2181 2772 
Q 1834 2772 1640 2515 
Q 1447 2259 1447 1791 
Q 1447 1309 1634 1061 
Q 1822 813 2181 813 
Q 2531 813 2725 1069 
Q 2919 1325 2919 1791 
Q 2919 2259 2725 2515 
Q 2531 2772 2181 2772 
z
" transform="scale(0.015625)"/>
      <path id="DejaVuSans-Bold-3" transform="scale(0.015625)"/>
      <path id="DejaVuSans-Bold-44" d="M 2106 1575 
Q 1756 1575 1579 1456 
Q 1403 1338 1403 1106 
Q 1403 894 1545 773 
Q 1688 653 1941 653 
Q 2256 653 2472 879 
Q 2688 1106 2688 1447 
L 2688 1575 
L 2106 1575 
z
M 3816 1997 
L 3816 0 
L 2688 0 
L 2688 519 
Q 2463 200 2181 54 
Q 1900 -91 1497 -91 
Q 953 -91 614 226 
Q 275 544 275 1050 
Q 275 1666 698 1953 
Q 1122 2241 2028 2241 
L 2688 2241 
L 2688 2328 
Q 2688 2594 2478 2717 
Q 2269 2841 1825 2841 
Q 1466 2841 1156 2769 
Q 847 2697 581 2553 
L 581 3406 
Q 941 3494 1303 3539 
Q 1666 3584 2028 3584 
Q 2975 3584 3395 3211 
Q 3816 2838 3816 1997 
z
" transform="scale(0.015625)"/>
      <path id="DejaVuSans-Bold-46" d="M 3366 3391 
L 3366 2478 
Q 3138 2634 2908 2709 
Q 2678 2784 2431 2784 
Q 1963 2784 1702 2511 
Q 1441 2238 1441 1747 
Q 1441 1256 1702 982 
Q 1963 709 2431 709 
Q 2694 709 2930 787 
Q 3166 866 3366 1019 
L 3366 103 
Q 3103 6 2833 -42 
Q 2563 -91 2291 -91 
Q 1344 -91 809 395 
Q 275 881 275 1747 
Q 275 2613 809 3098 
Q 1344 3584 2291 3584 
Q 2566 3584 2833 3536 
Q 3100 3488 3366 3391 
z
" transform="scale(0.015625)"/>
      <path id="DejaVuSans-Bold-4b" d="M 4056 2131 
L 4056 0 
L 2931 0 
L 2931 347 
L 2931 1625 
Q 2931 2084 2911 2256 
Q 2891 2428 2841 2509 
Q 2775 2619 2662 2680 
Q 2550 2741 2406 2741 
Q 2056 2741 1856 2470 
Q 1656 2200 1656 1722 
L 1656 0 
L 538 0 
L 538 4863 
L 1656 4863 
L 1656 2988 
Q 1909 3294 2193 3439 
Q 2478 3584 2822 3584 
Q 3428 3584 3742 3212 
Q 4056 2841 4056 2131 
z
" transform="scale(0.015625)"/>
      <path id="DejaVuSans-Bold-55" d="M 3138 2547 
Q 2991 2616 2845 2648 
Q 2700 2681 2553 2681 
Q 2122 2681 1889 2404 
Q 1656 2128 1656 1613 
L 1656 0 
L 538 0 
L 538 3500 
L 1656 3500 
L 1656 2925 
Q 1872 3269 2151 3426 
Q 2431 3584 2822 3584 
Q 2878 3584 2943 3579 
Q 3009 3575 3134 3559 
L 3138 2547 
z
" transform="scale(0.015625)"/>
      <path id="DejaVuSans-Bold-61" d="M 4684 2656 
L 4684 1894 
Q 4353 1644 4073 1536 
Q 3794 1428 3494 1428 
Q 3159 1428 2713 1609 
Q 2669 1628 2644 1638 
Q 2622 1647 2575 1666 
Q 2091 1856 1797 1856 
Q 1522 1856 1253 1736 
Q 984 1616 678 1356 
L 678 2119 
Q 1013 2369 1291 2476 
Q 1569 2584 1869 2584 
Q 2203 2584 2650 2403 
Q 2697 2384 2719 2375 
Q 2741 2366 2788 2347 
Q 3272 2156 3566 2156 
Q 3834 2156 4098 2273 
Q 4363 2391 4684 2656 
z
" transform="scale(0.015625)"/>
      <path id="DejaVuSans-Bold-14" d="M 750 831 
L 1813 831 
L 1813 3847 
L 722 3622 
L 722 4441 
L 1806 4666 
L 2950 4666 
L 2950 831 
L 4013 831 
L 4013 0 
L 750 0 
L 750 831 
z
" transform="scale(0.015625)"/>
      <path id="DejaVuSans-Bold-18" d="M 678 4666 
L 3669 4666 
L 3669 3781 
L 1638 3781 
L 1638 3059 
Q 1775 3097 1914 3117 
Q 2053 3138 2203 3138 
Q 3056 3138 3531 2711 
Q 4006 2284 4006 1522 
Q 4006 766 3489 337 
Q 2972 -91 2053 -91 
Q 1656 -91 1267 -14 
Q 878 63 494 219 
L 494 1166 
Q 875 947 1217 837 
Q 1559 728 1863 728 
Q 2300 728 2551 942 
Q 2803 1156 2803 1522 
Q 2803 1891 2551 2103 
Q 2300 2316 1863 2316 
Q 1603 2316 1309 2248 
Q 1016 2181 678 2041 
L 678 4666 
z
" transform="scale(0.015625)"/>
      <path id="DejaVuSans-Bold-13" d="M 2944 2338 
Q 2944 3213 2780 3570 
Q 2616 3928 2228 3928 
Q 1841 3928 1675 3570 
Q 1509 3213 1509 2338 
Q 1509 1453 1675 1090 
Q 1841 728 2228 728 
Q 2613 728 2778 1090 
Q 2944 1453 2944 2338 
z
M 4147 2328 
Q 4147 1169 3647 539 
Q 3147 -91 2228 -91 
Q 1306 -91 806 539 
Q 306 1169 306 2328 
Q 306 3491 806 4120 
Q 1306 4750 2228 4750 
Q 3147 4750 3647 4120 
Q 4147 3491 4147 2328 
z
" transform="scale(0.015625)"/>
      <path id="DejaVuSans-Bold-4e" d="M 538 4863 
L 1656 4863 
L 1656 2216 
L 2944 3500 
L 4244 3500 
L 2534 1894 
L 4378 0 
L 3022 0 
L 1656 1459 
L 1656 0 
L 538 0 
L 538 4863 
z
" transform="scale(0.015625)"/>
      <path id="DejaVuSans-Bold-2d" d="M 588 4666 
L 1791 4666 
L 1791 453 
Q 1791 -419 1317 -850 
Q 844 -1281 -116 -1281 
L -359 -1281 
L -359 -372 
L -172 -372 
Q 203 -372 395 -162 
Q 588 47 588 453 
L 588 4666 
z
" transform="scale(0.015625)"/>
     </defs>
     <use xlink:href="#DejaVuSans-Bold-47"/>
     <use xlink:href="#DejaVuSans-Bold-48" transform="translate(71.578125 0)"/>
     <use xlink:href="#DejaVuSans-Bold-59" transform="translate(139.40625 0)"/>
     <use xlink:href="#DejaVuSans-Bold-48" transform="translate(204.59375 0)"/>
     <use xlink:href="#DejaVuSans-Bold-4f" transform="translate(272.421875 0)"/>
     <use xlink:href="#DejaVuSans-Bold-52" transform="translate(306.703125 0)"/>
     <use xlink:href="#DejaVuSans-Bold-53" transform="translate(375.40625 0)"/>
     <use xlink:href="#DejaVuSans-Bold-4c" transform="translate(446.984375 0)"/>
     <use xlink:href="#DejaVuSans-Bold-51" transform="translate(481.265625 0)"/>
     <use xlink:href="#DejaVuSans-Bold-4a" transform="translate(552.453125 0)"/>
     <use xlink:href="#DejaVuSans-Bold-3" transform="translate(624.03125 0)"/>
     <use xlink:href="#DejaVuSans-Bold-44" transform="translate(658.84375 0)"/>
     <use xlink:href="#DejaVuSans-Bold-51" transform="translate(726.328125 0)"/>
     <use xlink:href="#DejaVuSans-Bold-46" transform="translate(797.515625 0)"/>
     <use xlink:href="#DejaVuSans-Bold-4b" transform="translate(856.796875 0)"/>
     <use xlink:href="#DejaVuSans-Bold-52" transform="translate(927.984375 0)"/>
     <use xlink:href="#DejaVuSans-Bold-55" transform="translate(996.6875 0)"/>
     <use xlink:href="#DejaVuSans-Bold-3" transform="translate(1046 0)"/>
     <use xlink:href="#DejaVuSans-Bold-61" transform="translate(1080.8125 0)"/>
     <use xlink:href="#DejaVuSans-Bold-14" transform="translate(1164.609375 0)"/>
     <use xlink:href="#DejaVuSans-Bold-18" transform="translate(1234.1875 0)"/>
     <use xlink:href="#DejaVuSans-Bold-13" transform="translate(1303.765625 0)"/>
     <use xlink:href="#DejaVuSans-Bold-13" transform="translate(1373.34375 0)"/>
     <use xlink:href="#DejaVuSans-Bold-3" transform="translate(1442.921875 0)"/>
     <use xlink:href="#DejaVuSans-Bold-4e" transform="translate(1477.734375 0)"/>
     <use xlink:href="#DejaVuSans-Bold-2d" transform="translate(1544.234375 0)"/>
    </g>
   </g>
   <g id="text_22">
    <!-- trained anchor ~2500 kJ -->
    <g style="fill: #d03b3b" transform="translate(77.824286 94.918607) scale(0.083 -0.083)">
     <defs>
      <path id="DejaVuSans-Bold-57" d="M 1759 4494 
L 1759 3500 
L 2913 3500 
L 2913 2700 
L 1759 2700 
L 1759 1216 
Q 1759 972 1856 886 
Q 1953 800 2241 800 
L 2816 800 
L 2816 0 
L 1856 0 
Q 1194 0 917 276 
Q 641 553 641 1216 
L 641 2700 
L 84 2700 
L 84 3500 
L 641 3500 
L 641 4494 
L 1759 4494 
z
" transform="scale(0.015625)"/>
      <path id="DejaVuSans-Bold-15" d="M 1844 884 
L 3897 884 
L 3897 0 
L 506 0 
L 506 884 
L 2209 2388 
Q 2438 2594 2547 2791 
Q 2656 2988 2656 3200 
Q 2656 3528 2436 3728 
Q 2216 3928 1850 3928 
Q 1569 3928 1234 3808 
Q 900 3688 519 3450 
L 519 4475 
Q 925 4609 1322 4679 
Q 1719 4750 2100 4750 
Q 2938 4750 3402 4381 
Q 3866 4013 3866 3353 
Q 3866 2972 3669 2642 
Q 3472 2313 2841 1759 
L 1844 884 
z
" transform="scale(0.015625)"/>
     </defs>
     <use xlink:href="#DejaVuSans-Bold-57"/>
     <use xlink:href="#DejaVuSans-Bold-55" transform="translate(47.796875 0)"/>
     <use xlink:href="#DejaVuSans-Bold-44" transform="translate(97.109375 0)"/>
     <use xlink:href="#DejaVuSans-Bold-4c" transform="translate(164.59375 0)"/>
     <use xlink:href="#DejaVuSans-Bold-51" transform="translate(198.875 0)"/>
     <use xlink:href="#DejaVuSans-Bold-48" transform="translate(270.0625 0)"/>
     <use xlink:href="#DejaVuSans-Bold-47" transform="translate(337.890625 0)"/>
     <use xlink:href="#DejaVuSans-Bold-3" transform="translate(409.46875 0)"/>
     <use xlink:href="#DejaVuSans-Bold-44" transform="translate(444.28125 0)"/>
     <use xlink:href="#DejaVuSans-Bold-51" transform="translate(511.765625 0)"/>
     <use xlink:href="#DejaVuSans-Bold-46" transform="translate(582.953125 0)"/>
     <use xlink:href="#DejaVuSans-Bold-4b" transform="translate(642.234375 0)"/>
     <use xlink:href="#DejaVuSans-Bold-52" transform="translate(713.421875 0)"/>
     <use xlink:href="#DejaVuSans-Bold-55" transform="translate(782.125 0)"/>
     <use xlink:href="#DejaVuSans-Bold-3" transform="translate(831.4375 0)"/>
     <use xlink:href="#DejaVuSans-Bold-61" transform="translate(866.25 0)"/>
     <use xlink:href="#DejaVuSans-Bold-15" transform="translate(950.046875 0)"/>
     <use xlink:href="#DejaVuSans-Bold-18" transform="translate(1019.625 0)"/>
     <use xlink:href="#DejaVuSans-Bold-13" transform="translate(1089.203125 0)"/>
     <use xlink:href="#DejaVuSans-Bold-13" transform="translate(1158.78125 0)"/>
     <use xlink:href="#DejaVuSans-Bold-3" transform="translate(1228.359375 0)"/>
     <use xlink:href="#DejaVuSans-Bold-4e" transform="translate(1263.171875 0)"/>
     <use xlink:href="#DejaVuSans-Bold-2d" transform="translate(1329.671875 0)"/>
    </g>
   </g>
   <g id="text_23">
    <!-- kJ_w = Σ w(P)·P·Δt/1000,  w=1 below CP → ~3× at 2·CP -->
    <g style="fill: #898781" transform="translate(67.00492 219.111609) scale(0.085 -0.085)">
     <defs>
      <path id="DejaVuSans-Oblique-4e" d="M 1172 4863 
L 1747 4863 
L 1197 2028 
L 3169 3500 
L 3916 3500 
L 1716 1825 
L 3322 0 
L 2625 0 
L 1131 1709 
L 800 0 
L 225 0 
L 1172 4863 
z
" transform="scale(0.015625)"/>
      <path id="DejaVuSans-Oblique-2d" d="M 1069 4666 
L 1703 4666 
L 856 325 
Q 691 -522 298 -901 
Q -94 -1281 -800 -1281 
L -1050 -1281 
L -947 -750 
L -750 -750 
Q -328 -750 -109 -509 
Q 109 -269 225 325 
L 1069 4666 
z
" transform="scale(0.015625)"/>
      <path id="DejaVuSans-Oblique-42" d="M 3263 -1063 
L 3263 -1509 
L -63 -1509 
L -63 -1063 
L 3263 -1063 
z
" transform="scale(0.015625)"/>
      <path id="DejaVuSans-Oblique-5a" d="M 544 3500 
L 1113 3500 
L 1259 684 
L 2566 3500 
L 3231 3500 
L 3425 684 
L 4666 3500 
L 5241 3500 
L 3641 0 
L 2969 0 
L 2797 2900 
L 1459 0 
L 781 0 
L 544 3500 
z
" transform="scale(0.015625)"/>
      <path id="DejaVuSans-Oblique-3" transform="scale(0.015625)"/>
      <path id="DejaVuSans-Oblique-20" d="M 678 2906 
L 4684 2906 
L 4684 2381 
L 678 2381 
L 678 2906 
z
M 678 1631 
L 4684 1631 
L 4684 1100 
L 678 1100 
L 678 1631 
z
" transform="scale(0.015625)"/>
      <path id="DejaVuSans-Oblique-337" d="M 1003 531 
L 3284 531 
L 3181 0 
L 175 0 
L 278 531 
L 2153 2481 
L 978 4134 
L 1081 4666 
L 4031 4666 
L 3928 4134 
L 1703 4134 
L 2881 2494 
L 1003 531 
z
" transform="scale(0.015625)"/>
      <path id="DejaVuSans-Oblique-b" d="M 2731 4856 
Q 1903 3822 1495 2892 
Q 1088 1963 1088 1100 
Q 1088 606 1206 120 
Q 1325 -366 1563 -844 
L 1063 -844 
Q 775 -306 634 201 
Q 494 709 494 1197 
Q 494 2125 923 3036 
Q 1353 3947 2222 4856 
L 2731 4856 
z
" transform="scale(0.015625)"/>
      <path id="DejaVuSans-Oblique-33" d="M 1081 4666 
L 2541 4666 
Q 3178 4666 3512 4369 
Q 3847 4072 3847 3500 
Q 3847 2731 3353 2303 
Q 2859 1875 1966 1875 
L 1172 1875 
L 806 0 
L 172 0 
L 1081 4666 
z
M 1613 4147 
L 1275 2394 
L 2069 2394 
Q 2606 2394 2893 2669 
Q 3181 2944 3181 3456 
Q 3181 3784 2986 3965 
Q 2791 4147 2438 4147 
L 1613 4147 
z
" transform="scale(0.015625)"/>
      <path id="DejaVuSans-Oblique-c" d="M -397 -844 
Q 434 191 840 1120 
Q 1247 2050 1247 2913 
Q 1247 3406 1130 3892 
Q 1013 4378 775 4856 
L 1275 4856 
Q 1563 4316 1703 3812 
Q 1844 3309 1844 2822 
Q 1844 1891 1411 973 
Q 978 56 116 -844 
L -397 -844 
z
" transform="scale(0.015625)"/>
      <path id="DejaVuSans-Oblique-79" d="M 884 2619 
L 1544 2619 
L 1388 1825 
L 728 1825 
L 884 2619 
z
" transform="scale(0.015625)"/>
      <path id="DejaVuSans-Oblique-329" d="M 2519 4044 
L 556 525 
L 3122 525 
L 2519 4044 
z
M -403 0 
L 2284 4666 
L 3000 4666 
L 3872 0 
L -403 0 
z
" transform="scale(0.015625)"/>
      <path id="DejaVuSans-Oblique-57" d="M 2706 3500 
L 2619 3053 
L 1472 3053 
L 1100 1153 
Q 1081 1047 1072 975 
Q 1063 903 1063 863 
Q 1063 663 1183 572 
Q 1303 481 1569 481 
L 2150 481 
L 2053 0 
L 1503 0 
Q 991 0 739 200 
Q 488 400 488 806 
Q 488 878 497 964 
Q 506 1050 525 1153 
L 897 3053 
L 409 3053 
L 500 3500 
L 978 3500 
L 1172 4494 
L 1747 4494 
L 1556 3500 
L 2706 3500 
z
" transform="scale(0.015625)"/>
      <path id="DejaVuSans-Oblique-12" d="M 2175 4666 
L 2731 4666 
L 84 -594 
L -469 -594 
L 2175 4666 
z
" transform="scale(0.015625)"/>
      <path id="DejaVuSans-Oblique-14" d="M 416 531 
L 1447 531 
L 2144 4122 
L 978 3897 
L 1088 4441 
L 2247 4666 
L 2881 4666 
L 2075 531 
L 3103 531 
L 3003 0 
L 313 0 
L 416 531 
z
" transform="scale(0.015625)"/>
      <path id="DejaVuSans-Oblique-13" d="M 2444 4750 
Q 3078 4750 3414 4328 
Q 3750 3906 3750 3116 
Q 3750 2516 3592 1923 
Q 3434 1331 3150 863 
Q 2859 394 2467 151 
Q 2075 -91 1600 -91 
Q 988 -91 653 334 
Q 319 759 319 1544 
Q 319 2138 480 2733 
Q 641 3328 928 3794 
Q 1216 4263 1602 4506 
Q 1988 4750 2444 4750 
z
M 2406 4250 
Q 2169 4250 1955 4123 
Q 1741 3997 1569 3750 
Q 1281 3338 1111 2720 
Q 941 2103 941 1453 
Q 941 938 1123 673 
Q 1306 409 1663 409 
Q 1913 409 2125 536 
Q 2338 663 2509 909 
Q 2794 1319 2961 1936 
Q 3128 2553 3128 3206 
Q 3128 3722 2945 3986 
Q 2763 4250 2406 4250 
z
" transform="scale(0.015625)"/>
      <path id="DejaVuSans-Oblique-f" d="M 575 794 
L 1234 794 
L 1131 256 
L 422 -744 
L 19 -744 
L 469 256 
L 575 794 
z
" transform="scale(0.015625)"/>
      <path id="DejaVuSans-Oblique-45" d="M 3169 2138 
Q 3169 2591 2961 2847 
Q 2753 3103 2388 3103 
Q 2122 3103 1889 2973 
Q 1656 2844 1484 2597 
Q 1303 2338 1198 1995 
Q 1094 1653 1094 1313 
Q 1094 881 1298 636 
Q 1503 391 1863 391 
Q 2134 391 2365 517 
Q 2597 644 2772 891 
Q 2950 1147 3059 1487 
Q 3169 1828 3169 2138 
z
M 1381 2969 
Q 1594 3256 1914 3420 
Q 2234 3584 2584 3584 
Q 3122 3584 3439 3221 
Q 3756 2859 3756 2241 
Q 3756 1734 3570 1259 
Q 3384 784 3041 416 
Q 2816 172 2522 40 
Q 2228 -91 1906 -91 
Q 1566 -91 1316 65 
Q 1066 222 909 531 
L 806 0 
L 231 0 
L 1178 4863 
L 1753 4863 
L 1381 2969 
z
" transform="scale(0.015625)"/>
      <path id="DejaVuSans-Oblique-48" d="M 3078 2063 
Q 3088 2113 3092 2166 
Q 3097 2219 3097 2272 
Q 3097 2653 2873 2875 
Q 2650 3097 2266 3097 
Q 1838 3097 1509 2826 
Q 1181 2556 1013 2059 
L 3078 2063 
z
M 3578 1613 
L 903 1613 
Q 884 1494 878 1425 
Q 872 1356 872 1306 
Q 872 872 1139 634 
Q 1406 397 1894 397 
Q 2269 397 2603 481 
Q 2938 566 3225 728 
L 3116 159 
Q 2806 34 2476 -28 
Q 2147 -91 1806 -91 
Q 1078 -91 686 257 
Q 294 606 294 1247 
Q 294 1794 489 2264 
Q 684 2734 1063 3103 
Q 1306 3334 1642 3459 
Q 1978 3584 2356 3584 
Q 2950 3584 3301 3228 
Q 3653 2872 3653 2272 
Q 3653 2128 3634 1964 
Q 3616 1800 3578 1613 
z
" transform="scale(0.015625)"/>
      <path id="DejaVuSans-Oblique-4f" d="M 1172 4863 
L 1747 4863 
L 800 0 
L 225 0 
L 1172 4863 
z
" transform="scale(0.015625)"/>
      <path id="DejaVuSans-Oblique-52" d="M 1625 -91 
Q 1009 -91 651 289 
Q 294 669 294 1325 
Q 294 1706 417 2101 
Q 541 2497 738 2766 
Q 1047 3184 1428 3384 
Q 1809 3584 2291 3584 
Q 2888 3584 3255 3212 
Q 3622 2841 3622 2241 
Q 3622 1825 3500 1412 
Q 3378 1000 3181 728 
Q 2875 309 2494 109 
Q 2113 -91 1625 -91 
z
M 891 1344 
Q 891 869 1089 633 
Q 1288 397 1691 397 
Q 2269 397 2648 901 
Q 3028 1406 3028 2181 
Q 3028 2634 2825 2865 
Q 2622 3097 2228 3097 
Q 1903 3097 1650 2945 
Q 1397 2794 1197 2484 
Q 1050 2253 970 1956 
Q 891 1659 891 1344 
z
" transform="scale(0.015625)"/>
      <path id="DejaVuSans-Oblique-26" d="M 4447 4306 
L 4319 3641 
Q 4019 3944 3683 4091 
Q 3347 4238 2956 4238 
Q 2422 4238 2017 3981 
Q 1613 3725 1319 3200 
Q 1131 2863 1032 2486 
Q 934 2109 934 1728 
Q 934 1091 1264 756 
Q 1594 422 2222 422 
Q 2656 422 3056 561 
Q 3456 700 3834 978 
L 3688 231 
Q 3316 72 2936 -9 
Q 2556 -91 2175 -91 
Q 1278 -91 773 396 
Q 269 884 269 1753 
Q 269 2309 461 2846 
Q 653 3384 1013 3828 
Q 1394 4300 1883 4525 
Q 2372 4750 3022 4750 
Q 3422 4750 3780 4639 
Q 4138 4528 4447 4306 
z
" transform="scale(0.015625)"/>
      <path id="DejaVuSans-Oblique-b24" d="M 5050 2147 
L 5050 1866 
L 3822 638 
L 3447 1013 
L 4175 1741 
L 366 1741 
L 366 2272 
L 4175 2272 
L 3447 3000 
L 3822 3375 
L 5050 2147 
z
" transform="scale(0.015625)"/>
      <path id="DejaVuSans-Oblique-61" d="M 4684 2553 
L 4684 1997 
Q 4356 1750 4076 1644 
Q 3797 1538 3494 1538 
Q 3150 1538 2694 1722 
Q 2659 1734 2644 1741 
Q 2622 1750 2575 1766 
Q 2091 1959 1797 1959 
Q 1522 1959 1253 1839 
Q 984 1719 678 1459 
L 678 2016 
Q 1006 2263 1286 2370 
Q 1566 2478 1869 2478 
Q 2213 2478 2672 2291 
Q 2703 2278 2719 2272 
Q 2744 2263 2788 2247 
Q 3272 2053 3566 2053 
Q 3834 2053 4098 2172 
Q 4363 2291 4684 2553 
z
" transform="scale(0.015625)"/>
      <path id="DejaVuSans-Oblique-16" d="M 1013 4550 
Q 1356 4650 1679 4700 
Q 2003 4750 2316 4750 
Q 2934 4750 3296 4475 
Q 3659 4200 3659 3738 
Q 3659 3284 3373 2959 
Q 3088 2634 2584 2516 
Q 2978 2403 3162 2165 
Q 3347 1928 3347 1538 
Q 3347 1163 3167 834 
Q 2988 506 2650 269 
Q 2394 88 2037 -1 
Q 1681 -91 1216 -91 
Q 922 -91 622 -33 
Q 322 25 13 141 
L 128 738 
Q 422 575 720 495 
Q 1019 416 1331 416 
Q 1947 416 2330 733 
Q 2713 1050 2713 1556 
Q 2713 1881 2469 2057 
Q 2225 2234 1772 2234 
L 1228 2234 
L 1325 2747 
L 1900 2747 
Q 2419 2747 2717 2984 
Q 3016 3222 3016 3628 
Q 3016 3922 2797 4083 
Q 2578 4244 2181 4244 
Q 1881 4244 1567 4180 
Q 1253 4116 916 3988 
L 1013 4550 
z
" transform="scale(0.015625)"/>
      <path id="DejaVuSans-Oblique-99" d="M 4488 3438 
L 3059 2003 
L 4488 575 
L 4116 197 
L 2681 1631 
L 1247 197 
L 878 575 
L 2303 2003 
L 878 3438 
L 1247 3816 
L 2681 2381 
L 4116 3816 
L 4488 3438 
z
" transform="scale(0.015625)"/>
      <path id="DejaVuSans-Oblique-44" d="M 3438 1997 
L 3047 0 
L 2472 0 
L 2578 531 
Q 2325 219 2001 64 
Q 1678 -91 1281 -91 
Q 834 -91 548 182 
Q 263 456 263 884 
Q 263 1497 752 1853 
Q 1241 2209 2100 2209 
L 2900 2209 
L 2931 2363 
Q 2938 2388 2941 2417 
Q 2944 2447 2944 2509 
Q 2944 2788 2717 2942 
Q 2491 3097 2081 3097 
Q 1800 3097 1504 3025 
Q 1209 2953 897 2809 
L 997 3341 
Q 1322 3463 1633 3523 
Q 1944 3584 2234 3584 
Q 2853 3584 3176 3315 
Q 3500 3047 3500 2534 
Q 3500 2431 3484 2292 
Q 3469 2153 3438 1997 
z
M 2816 1759 
L 2241 1759 
Q 1534 1759 1195 1570 
Q 856 1381 856 984 
Q 856 709 1029 553 
Q 1203 397 1509 397 
Q 1978 397 2328 733 
Q 2678 1069 2791 1631 
L 2816 1759 
z
" transform="scale(0.015625)"/>
      <path id="DejaVuSans-Oblique-15" d="M 2950 2253 
L 934 525 
L 3163 525 
L 3053 0 
L 25 0 
L 128 531 
L 2234 2338 
Q 2656 2703 2832 2979 
Q 3009 3256 3009 3547 
Q 3009 3850 2796 4040 
Q 2584 4231 2241 4231 
Q 1944 4231 1581 4125 
Q 1219 4019 806 3816 
L 922 4441 
Q 1309 4594 1662 4672 
Q 2016 4750 2316 4750 
Q 2928 4750 3301 4425 
Q 3675 4100 3675 3572 
Q 3675 3216 3497 2892 
Q 3319 2569 2950 2253 
z
" transform="scale(0.015625)"/>
     </defs>
     <use xlink:href="#DejaVuSans-Oblique-4e"/>
     <use xlink:href="#DejaVuSans-Oblique-2d" transform="translate(57.90625 0)"/>
     <use xlink:href="#DejaVuSans-Oblique-42" transform="translate(87.40625 0)"/>
     <use xlink:href="#DejaVuSans-Oblique-5a" transform="translate(137.40625 0)"/>
     <use xlink:href="#DejaVuSans-Oblique-3" transform="translate(219.1875 0)"/>
     <use xlink:href="#DejaVuSans-Oblique-20" transform="translate(250.96875 0)"/>
     <use xlink:href="#DejaVuSans-Oblique-3" transform="translate(334.765625 0)"/>
     <use xlink:href="#DejaVuSans-Oblique-337" transform="translate(366.546875 0)"/>
     <use xlink:href="#DejaVuSans-Oblique-3" transform="translate(429.734375 0)"/>
     <use xlink:href="#DejaVuSans-Oblique-5a" transform="translate(461.515625 0)"/>
     <use xlink:href="#DejaVuSans-Oblique-b" transform="translate(543.296875 0)"/>
     <use xlink:href="#DejaVuSans-Oblique-33" transform="translate(582.3125 0)"/>
     <use xlink:href="#DejaVuSans-Oblique-c" transform="translate(642.609375 0)"/>
     <use xlink:href="#DejaVuSans-Oblique-79" transform="translate(681.625 0)"/>
     <use xlink:href="#DejaVuSans-Oblique-33" transform="translate(713.40625 0)"/>
     <use xlink:href="#DejaVuSans-Oblique-79" transform="translate(773.703125 0)"/>
     <use xlink:href="#DejaVuSans-Oblique-329" transform="translate(805.484375 0)"/>
     <use xlink:href="#DejaVuSans-Oblique-57" transform="translate(873.890625 0)"/>
     <use xlink:href="#DejaVuSans-Oblique-12" transform="translate(913.09375 0)"/>
     <use xlink:href="#DejaVuSans-Oblique-14" transform="translate(946.78125 0)"/>
     <use xlink:href="#DejaVuSans-Oblique-13" transform="translate(1010.40625 0)"/>
     <use xlink:href="#DejaVuSans-Oblique-13" transform="translate(1074.03125 0)"/>
     <use xlink:href="#DejaVuSans-Oblique-13" transform="translate(1137.65625 0)"/>
     <use xlink:href="#DejaVuSans-Oblique-f" transform="translate(1201.28125 0)"/>
     <use xlink:href="#DejaVuSans-Oblique-3" transform="translate(1233.0625 0)"/>
     <use xlink:href="#DejaVuSans-Oblique-3" transform="translate(1264.84375 0)"/>
     <use xlink:href="#DejaVuSans-Oblique-5a" transform="translate(1296.625 0)"/>
     <use xlink:href="#DejaVuSans-Oblique-20" transform="translate(1378.40625 0)"/>
     <use xlink:href="#DejaVuSans-Oblique-14" transform="translate(1462.203125 0)"/>
     <use xlink:href="#DejaVuSans-Oblique-3" transform="translate(1525.828125 0)"/>
     <use xlink:href="#DejaVuSans-Oblique-45" transform="translate(1557.609375 0)"/>
     <use xlink:href="#DejaVuSans-Oblique-48" transform="translate(1621.09375 0)"/>
     <use xlink:href="#DejaVuSans-Oblique-4f" transform="translate(1682.625 0)"/>
     <use xlink:href="#DejaVuSans-Oblique-52" transform="translate(1710.40625 0)"/>
     <use xlink:href="#DejaVuSans-Oblique-5a" transform="translate(1771.59375 0)"/>
     <use xlink:href="#DejaVuSans-Oblique-3" transform="translate(1853.375 0)"/>
     <use xlink:href="#DejaVuSans-Oblique-26" transform="translate(1885.15625 0)"/>
     <use xlink:href="#DejaVuSans-Oblique-33" transform="translate(1954.984375 0)"/>
     <use xlink:href="#DejaVuSans-Oblique-3" transform="translate(2015.28125 0)"/>
     <use xlink:href="#DejaVuSans-Oblique-b24" transform="translate(2047.0625 0)"/>
     <use xlink:href="#DejaVuSans-Oblique-3" transform="translate(2130.859375 0)"/>
     <use xlink:href="#DejaVuSans-Oblique-61" transform="translate(2162.640625 0)"/>
     <use xlink:href="#DejaVuSans-Oblique-16" transform="translate(2246.4375 0)"/>
     <use xlink:href="#DejaVuSans-Oblique-99" transform="translate(2310.0625 0)"/>
     <use xlink:href="#DejaVuSans-Oblique-3" transform="translate(2393.859375 0)"/>
     <use xlink:href="#DejaVuSans-Oblique-44" transform="translate(2425.640625 0)"/>
     <use xlink:href="#DejaVuSans-Oblique-57" transform="translate(2486.921875 0)"/>
     <use xlink:href="#DejaVuSans-Oblique-3" transform="translate(2526.125 0)"/>
     <use xlink:href="#DejaVuSans-Oblique-15" transform="translate(2557.90625 0)"/>
     <use xlink:href="#DejaVuSans-Oblique-79" transform="translate(2621.53125 0)"/>
     <use xlink:href="#DejaVuSans-Oblique-26" transform="translate(2653.3125 0)"/>
     <use xlink:href="#DejaVuSans-Oblique-33" transform="translate(2723.140625 0)"/>
    </g>
   </g>
   <g id="text_24">
    <!-- Intensity-weighted kJ — durability clock -->
    <g style="fill: #0b0b0b" transform="translate(115.913203 16.698047) scale(0.125 -0.125)">
     <defs>
      <path id="DejaVuSans-Bold-2c" d="M 588 4666 
L 1791 4666 
L 1791 0 
L 588 0 
L 588 4666 
z
" transform="scale(0.015625)"/>
      <path id="DejaVuSans-Bold-56" d="M 3272 3391 
L 3272 2541 
Q 2913 2691 2578 2766 
Q 2244 2841 1947 2841 
Q 1628 2841 1473 2761 
Q 1319 2681 1319 2516 
Q 1319 2381 1436 2309 
Q 1553 2238 1856 2203 
L 2053 2175 
Q 2913 2066 3209 1816 
Q 3506 1566 3506 1031 
Q 3506 472 3093 190 
Q 2681 -91 1863 -91 
Q 1516 -91 1145 -36 
Q 775 19 384 128 
L 384 978 
Q 719 816 1070 734 
Q 1422 653 1784 653 
Q 2113 653 2278 743 
Q 2444 834 2444 1013 
Q 2444 1163 2330 1236 
Q 2216 1309 1875 1350 
L 1678 1375 
Q 931 1469 631 1722 
Q 331 1975 331 2491 
Q 331 3047 712 3315 
Q 1094 3584 1881 3584 
Q 2191 3584 2531 3537 
Q 2872 3491 3272 3391 
z
" transform="scale(0.015625)"/>
      <path id="DejaVuSans-Bold-5c" d="M 78 3500 
L 1197 3500 
L 2138 1125 
L 2938 3500 
L 4056 3500 
L 2584 -331 
Q 2363 -916 2067 -1148 
Q 1772 -1381 1288 -1381 
L 641 -1381 
L 641 -647 
L 991 -647 
Q 1275 -647 1404 -556 
Q 1534 -466 1606 -231 
L 1638 -134 
L 78 3500 
z
" transform="scale(0.015625)"/>
      <path id="DejaVuSans-Bold-10" d="M 347 2297 
L 2309 2297 
L 2309 1388 
L 347 1388 
L 347 2297 
z
" transform="scale(0.015625)"/>
      <path id="DejaVuSans-Bold-5a" d="M 225 3500 
L 1313 3500 
L 1900 1088 
L 2491 3500 
L 3425 3500 
L 4013 1113 
L 4603 3500 
L 5691 3500 
L 4769 0 
L 3547 0 
L 2956 2406 
L 2369 0 
L 1147 0 
L 225 3500 
z
" transform="scale(0.015625)"/>
      <path id="DejaVuSans-Bold-af6" d="M 344 2156 
L 6056 2156 
L 6056 1350 
L 344 1350 
L 344 2156 
z
" transform="scale(0.015625)"/>
      <path id="DejaVuSans-Bold-58" d="M 500 1363 
L 500 3500 
L 1625 3500 
L 1625 3150 
Q 1625 2866 1622 2436 
Q 1619 2006 1619 1863 
Q 1619 1441 1641 1255 
Q 1663 1069 1716 984 
Q 1784 875 1895 815 
Q 2006 756 2150 756 
Q 2500 756 2700 1025 
Q 2900 1294 2900 1772 
L 2900 3500 
L 4019 3500 
L 4019 0 
L 2900 0 
L 2900 506 
Q 2647 200 2364 54 
Q 2081 -91 1741 -91 
Q 1134 -91 817 281 
Q 500 653 500 1363 
z
" transform="scale(0.015625)"/>
      <path id="DejaVuSans-Bold-45" d="M 2400 722 
Q 2759 722 2948 984 
Q 3138 1247 3138 1747 
Q 3138 2247 2948 2509 
Q 2759 2772 2400 2772 
Q 2041 2772 1848 2508 
Q 1656 2244 1656 1747 
Q 1656 1250 1848 986 
Q 2041 722 2400 722 
z
M 1656 2988 
Q 1888 3294 2169 3439 
Q 2450 3584 2816 3584 
Q 3463 3584 3878 3070 
Q 4294 2556 4294 1747 
Q 4294 938 3878 423 
Q 3463 -91 2816 -91 
Q 2450 -91 2169 54 
Q 1888 200 1656 506 
L 1656 0 
L 538 0 
L 538 4863 
L 1656 4863 
L 1656 2988 
z
" transform="scale(0.015625)"/>
     </defs>
     <use xlink:href="#DejaVuSans-Bold-2c"/>
     <use xlink:href="#DejaVuSans-Bold-51" transform="translate(37.203125 0)"/>
     <use xlink:href="#DejaVuSans-Bold-57" transform="translate(108.390625 0)"/>
     <use xlink:href="#DejaVuSans-Bold-48" transform="translate(156.1875 0)"/>
     <use xlink:href="#DejaVuSans-Bold-51" transform="translate(224.015625 0)"/>
     <use xlink:href="#DejaVuSans-Bold-56" transform="translate(295.203125 0)"/>
     <use xlink:href="#DejaVuSans-Bold-4c" transform="translate(354.71875 0)"/>
     <use xlink:href="#DejaVuSans-Bold-57" transform="translate(389 0)"/>
     <use xlink:href="#DejaVuSans-Bold-5c" transform="translate(436.796875 0)"/>
     <use xlink:href="#DejaVuSans-Bold-10" transform="translate(501.984375 0)"/>
     <use xlink:href="#DejaVuSans-Bold-5a" transform="translate(543.484375 0)"/>
     <use xlink:href="#DejaVuSans-Bold-48" transform="translate(635.875 0)"/>
     <use xlink:href="#DejaVuSans-Bold-4c" transform="translate(703.703125 0)"/>
     <use xlink:href="#DejaVuSans-Bold-4a" transform="translate(737.984375 0)"/>
     <use xlink:href="#DejaVuSans-Bold-4b" transform="translate(809.5625 0)"/>
     <use xlink:href="#DejaVuSans-Bold-57" transform="translate(880.75 0)"/>
     <use xlink:href="#DejaVuSans-Bold-48" transform="translate(928.546875 0)"/>
     <use xlink:href="#DejaVuSans-Bold-47" transform="translate(996.375 0)"/>
     <use xlink:href="#DejaVuSans-Bold-3" transform="translate(1067.953125 0)"/>
     <use xlink:href="#DejaVuSans-Bold-4e" transform="translate(1102.765625 0)"/>
     <use xlink:href="#DejaVuSans-Bold-2d" transform="translate(1169.265625 0)"/>
     <use xlink:href="#DejaVuSans-Bold-3" transform="translate(1206.46875 0)"/>
     <use xlink:href="#DejaVuSans-Bold-af6" transform="translate(1241.28125 0)"/>
     <use xlink:href="#DejaVuSans-Bold-3" transform="translate(1341.28125 0)"/>
     <use xlink:href="#DejaVuSans-Bold-47" transform="translate(1376.09375 0)"/>
     <use xlink:href="#DejaVuSans-Bold-58" transform="translate(1447.671875 0)"/>
     <use xlink:href="#DejaVuSans-Bold-55" transform="translate(1518.859375 0)"/>
     <use xlink:href="#DejaVuSans-Bold-44" transform="translate(1568.171875 0)"/>
     <use xlink:href="#DejaVuSans-Bold-45" transform="translate(1635.65625 0)"/>
     <use xlink:href="#DejaVuSans-Bold-4c" transform="translate(1707.234375 0)"/>
     <use xlink:href="#DejaVuSans-Bold-4f" transform="translate(1741.515625 0)"/>
     <use xlink:href="#DejaVuSans-Bold-4c" transform="translate(1775.796875 0)"/>
     <use xlink:href="#DejaVuSans-Bold-57" transform="translate(1810.078125 0)"/>
     <use xlink:href="#DejaVuSans-Bold-5c" transform="translate(1857.875 0)"/>
     <use xlink:href="#DejaVuSans-Bold-3" transform="translate(1923.0625 0)"/>
     <use xlink:href="#DejaVuSans-Bold-46" transform="translate(1957.875 0)"/>
     <use xlink:href="#DejaVuSans-Bold-4f" transform="translate(2017.15625 0)"/>
     <use xlink:href="#DejaVuSans-Bold-52" transform="translate(2051.4375 0)"/>
     <use xlink:href="#DejaVuSans-Bold-46" transform="translate(2120.140625 0)"/>
     <use xlink:href="#DejaVuSans-Bold-4e" transform="translate(2179.421875 0)"/>
    </g>
   </g>
   <g id="legend_1">
    <g id="line2d_39">
     <path d="M 262.812695 208.40332 
L 271.312695 208.40332 
L 279.812695 208.40332 
" style="fill: none; stroke: #2a78d6; stroke-width: 2.4; stroke-linecap: square"/>
    </g>
    <g id="text_25">
     <!-- intensity-weighted kJ (durability clock) -->
     <g style="fill: #0b0b0b" transform="translate(286.612695 211.37832) scale(0.085 -0.085)">
      <defs>
       <path id="DejaVuSans-5c" d="M 2059 -325 
Q 1816 -950 1584 -1140 
Q 1353 -1331 966 -1331 
L 506 -1331 
L 506 -850 
L 844 -850 
Q 1081 -850 1212 -737 
Q 1344 -625 1503 -206 
L 1606 56 
L 191 3500 
L 800 3500 
L 1894 763 
L 2988 3500 
L 3597 3500 
L 2059 -325 
z
" transform="scale(0.015625)"/>
       <path id="DejaVuSans-45" d="M 3116 1747 
Q 3116 2381 2855 2742 
Q 2594 3103 2138 3103 
Q 1681 3103 1420 2742 
Q 1159 2381 1159 1747 
Q 1159 1113 1420 752 
Q 1681 391 2138 391 
Q 2594 391 2855 752 
Q 3116 1113 3116 1747 
z
M 1159 2969 
Q 1341 3281 1617 3432 
Q 1894 3584 2278 3584 
Q 2916 3584 3314 3078 
Q 3713 2572 3713 1747 
Q 3713 922 3314 415 
Q 2916 -91 2278 -91 
Q 1894 -91 1617 61 
Q 1341 213 1159 525 
L 1159 0 
L 581 0 
L 581 4863 
L 1159 4863 
L 1159 2969 
z
" transform="scale(0.015625)"/>
      </defs>
      <use xlink:href="#DejaVuSans-4c"/>
      <use xlink:href="#DejaVuSans-51" transform="translate(27.78125 0)"/>
      <use xlink:href="#DejaVuSans-57" transform="translate(91.15625 0)"/>
      <use xlink:href="#DejaVuSans-48" transform="translate(130.359375 0)"/>
      <use xlink:href="#DejaVuSans-51" transform="translate(191.890625 0)"/>
      <use xlink:href="#DejaVuSans-56" transform="translate(255.265625 0)"/>
      <use xlink:href="#DejaVuSans-4c" transform="translate(307.359375 0)"/>
      <use xlink:href="#DejaVuSans-57" transform="translate(335.140625 0)"/>
      <use xlink:href="#DejaVuSans-5c" transform="translate(374.34375 0)"/>
      <use xlink:href="#DejaVuSans-10" transform="translate(431.78125 0)"/>
      <use xlink:href="#DejaVuSans-5a" transform="translate(467.859375 0)"/>
      <use xlink:href="#DejaVuSans-48" transform="translate(549.640625 0)"/>
      <use xlink:href="#DejaVuSans-4c" transform="translate(611.171875 0)"/>
      <use xlink:href="#DejaVuSans-4a" transform="translate(638.953125 0)"/>
      <use xlink:href="#DejaVuSans-4b" transform="translate(702.4375 0)"/>
      <use xlink:href="#DejaVuSans-57" transform="translate(765.8125 0)"/>
      <use xlink:href="#DejaVuSans-48" transform="translate(805.015625 0)"/>
      <use xlink:href="#DejaVuSans-47" transform="translate(866.546875 0)"/>
      <use xlink:href="#DejaVuSans-3" transform="translate(930.03125 0)"/>
      <use xlink:href="#DejaVuSans-4e" transform="translate(961.8125 0)"/>
      <use xlink:href="#DejaVuSans-2d" transform="translate(1019.71875 0)"/>
      <use xlink:href="#DejaVuSans-3" transform="translate(1049.21875 0)"/>
      <use xlink:href="#DejaVuSans-b" transform="translate(1081 0)"/>
      <use xlink:href="#DejaVuSans-47" transform="translate(1120.015625 0)"/>
      <use xlink:href="#DejaVuSans-58" transform="translate(1183.5 0)"/>
      <use xlink:href="#DejaVuSans-55" transform="translate(1246.875 0)"/>
      <use xlink:href="#DejaVuSans-44" transform="translate(1287.984375 0)"/>
      <use xlink:href="#DejaVuSans-45" transform="translate(1349.265625 0)"/>
      <use xlink:href="#DejaVuSans-4c" transform="translate(1412.75 0)"/>
      <use xlink:href="#DejaVuSans-4f" transform="translate(1440.53125 0)"/>
      <use xlink:href="#DejaVuSans-4c" transform="translate(1468.3125 0)"/>
      <use xlink:href="#DejaVuSans-57" transform="translate(1496.09375 0)"/>
      <use xlink:href="#DejaVuSans-5c" transform="translate(1535.296875 0)"/>
      <use xlink:href="#DejaVuSans-3" transform="translate(1594.484375 0)"/>
      <use xlink:href="#DejaVuSans-46" transform="translate(1626.265625 0)"/>
      <use xlink:href="#DejaVuSans-4f" transform="translate(1681.25 0)"/>
      <use xlink:href="#DejaVuSans-52" transform="translate(1709.03125 0)"/>
      <use xlink:href="#DejaVuSans-46" transform="translate(1770.21875 0)"/>
      <use xlink:href="#DejaVuSans-4e" transform="translate(1825.203125 0)"/>
      <use xlink:href="#DejaVuSans-c" transform="translate(1883.109375 0)"/>
     </g>
    </g>
    <g id="line2d_40">
     <path d="M 262.812695 221.153984 
L 271.312695 221.153984 
L 279.812695 221.153984 
" style="fill: none; stroke-dasharray: 6.66,2.88; stroke-dashoffset: 0; stroke: #898781; stroke-width: 1.8"/>
    </g>
    <g id="text_26">
     <!-- raw kJ (volume only) -->
     <g style="fill: #0b0b0b" transform="translate(286.612695 224.128984) scale(0.085 -0.085)">
      <use xlink:href="#DejaVuSans-55"/>
      <use xlink:href="#DejaVuSans-44" transform="translate(41.109375 0)"/>
      <use xlink:href="#DejaVuSans-5a" transform="translate(102.390625 0)"/>
      <use xlink:href="#DejaVuSans-3" transform="translate(184.171875 0)"/>
      <use xlink:href="#DejaVuSans-4e" transform="translate(215.953125 0)"/>
      <use xlink:href="#DejaVuSans-2d" transform="translate(273.859375 0)"/>
      <use xlink:href="#DejaVuSans-3" transform="translate(303.359375 0)"/>
      <use xlink:href="#DejaVuSans-b" transform="translate(335.140625 0)"/>
      <use xlink:href="#DejaVuSans-59" transform="translate(374.15625 0)"/>
      <use xlink:href="#DejaVuSans-52" transform="translate(433.34375 0)"/>
      <use xlink:href="#DejaVuSans-4f" transform="translate(494.53125 0)"/>
      <use xlink:href="#DejaVuSans-58" transform="translate(522.3125 0)"/>
      <use xlink:href="#DejaVuSans-50" transform="translate(585.6875 0)"/>
      <use xlink:href="#DejaVuSans-48" transform="translate(683.09375 0)"/>
      <use xlink:href="#DejaVuSans-3" transform="translate(744.625 0)"/>
      <use xlink:href="#DejaVuSans-52" transform="translate(776.40625 0)"/>
      <use xlink:href="#DejaVuSans-51" transform="translate(837.59375 0)"/>
      <use xlink:href="#DejaVuSans-4f" transform="translate(900.96875 0)"/>
      <use xlink:href="#DejaVuSans-5c" transform="translate(928.75 0)"/>
      <use xlink:href="#DejaVuSans-c" transform="translate(987.9375 0)"/>
     </g>
    </g>
   </g>
  </g>
 </g>
 <defs>
  <clipPath id="pd8750645cf">
   <rect x="54.92332" y="22.698047" width="402.72" height="211.12293"/>
  </clipPath>
 </defs>
</svg>
